<svg xmlns="http://www.w3.org/2000/svg" viewBox="0 0 1080 1080">
    <g fill="#0c5156">
        <path d="m749.41 673.85c.81-3.09-.46-6.74-3.2-8a5.57 5.57 0 0 0 -3.08 0 22.58 22.58 0 0 0 -2.67 1c-.69.23-1.71.74-2 .47a5 5 0 0 1 -1.71-2.59c-1.62-9.33 1.14-18.64-.85-27.83-.45-2.09-4.07-8.34-1.2-9.86a9.12 9.12 0 0 0 2.62-2.67c1.37-1.66 2.56-3.55 4.53-4.64a5 5 0 0 0 1.16-1.13c2-2.23 1.85-4.22-.47-6-2.08-1.56-4.27-2.67-7.07-2.4-2.44.23-5-.26-6.93 1.81-.21.22-1 .24-1.17.05a1.65 1.65 0 0 1 -.28-1.4c.4-.64.43-1.49 1.61-1.76 7.39-1.7 16.39-12.17 14.27-20a6.23 6.23 0 0 0 -4.42-4.62c-.42-.1-.9 0-1.28-.1-.71-.25-1.46-.58-.7-1.57.26-.33.38-.76.61-1.11 3.35-5.11.11-10.09-5.62-10s-10.51 5.4-16.56 3.5a5.21 5.21 0 0 1 -3.23-2.56 10.25 10.25 0 0 1 -.58-3.23c-.31-2.67-5.07-3.54-3.22-7.24s8.23-5.91 12.13-9.28c3.19-2.75 7-4.68 10.11-7.6 2.53-2.4 4-5.32 6.8-7.5s3.17-5.43.8-7.67a9.92 9.92 0 0 0 -6.51-2.92 21.41 21.41 0 0 0 -7.29.85 9.8 9.8 0 0 1 -5.29.06c-3.21-.62-14.88-6.9-15.77-7.61-5.58-4.62 9.61-13.64 13-15.34 5.54-2.75 10.65-.94 14-6.82a1.57 1.57 0 0 0 0-1.24c-1.12-2.47-2.44-4.6-5.29-5.62-3.49-1.23-6.9-2.7-10.55-3.37-2.51-.46-5-.85-7.57-1.1s-4.88-.12-7.36-.51-9.71 0-10.35-.39-2.31.1-2.31-1.67.13-3.18 1.78-3.79c2.47-.94 11.69-9.42 14.74-11.63a59.91 59.91 0 0 0 5.79-4.63c5.11-4.82 10.23-9.68 15.2-14.64a46 46 0 0 1 8.95-6.82c2.13-1.28 4.16-2.56 5.45-4.86a6.81 6.81 0 0 0 -2.19-8.52c-7.85-5.12-21.18-2.13-30.06-2-4.42.09-9 .14-13-1.71a3.61 3.61 0 0 1 -1.51-1.11 4.48 4.48 0 0 1 -.36-3.1c.32-3.1.78-13.43-3.92-13.94a8 8 0 0 0 -7.8 3.45c-3 4.17-7 7.29-10.46 11-.39.43-1.4 0-1.32-.65a24.16 24.16 0 0 1 1-5.27c.52-1.44 1.68-2.63 2.51-4a16.9 16.9 0 0 0 1-2c.8-1.7 1.19-3.37-.18-5.08a4.27 4.27 0 0 0 -5.28-1.2c-4.69 2.24-9.92 3.21-14.29 6.14a17.14 17.14 0 0 0 -1.78 1.65c-.71.62-1.42 1.24-2.17 1.8-.4.3-1 .74-1-.3a13.07 13.07 0 0 1 .26-2.86 25.24 25.24 0 0 0 1.12-6.17 17.23 17.23 0 0 1 .67-4.39c.63-2.59.75-5.28 1.35-7.82 1.89-7.9.59-16.58 2.59-24.46.58-2.3 1.64-4.47 2.06-6.82 1.08-5.91-4.89-10.66-9.89-6.06a25 25 0 0 0 -5.35 7.8c-5.88 12-13.56 23-19.7 34.83-1 1.95-7.61 17.95-10.71 13.79a24.08 24.08 0 0 1 -3.31-6.82 12.82 12.82 0 0 0 -8.06-8.56c-2.88-1-5.39.35-7.22 2.4a30.38 30.38 0 0 0 -5.5 10.11c-.2.57-1.39 8.78-1.43 10.39 0 .69-.45 1-1 .59-2.38-1.63-5.15-2.41-7.72-3.62-3.75-1.78-7-4-11.23-4.9-1.09-.24-1.28-1.11-.55-2a4.66 4.66 0 0 1 1.26-.94 57.32 57.32 0 0 0 9.84-7c1.9-1.73 4-3.29 5.74-5.16 3-3.2 5.58-6.79 8.72-9.84 4.34-4.22 7.12-9.53 10.7-14.28a143.47 143.47 0 0 0 10-14.92c3.45-6 6.39-12.33 9.49-18.53 1-2 1.94-4 2.81-6.08 1.35-3.2 2.6-6.45 3.93-9.66.57-1.37 1-2.87-.37-3.79-1.2-.78-2.52-.38-3.84.55a4.47 4.47 0 0 0 -2 2.92 32.82 32.82 0 0 1 -3.53 8.1c-7.11 12.42-14.78 24.84-22.43 36.69-2.58 4-6.07 7.45-9.25 11.08-2.67 3-12.36 12.69-14.2 14.13-.56.45-1 .12-1-.58a3 3 0 0 1 .21-1.55c1.78-2.74 3.12-5.75 5.39-8.17a21.09 21.09 0 0 0 2.18-3.29c9.94-15.78 18.68-31.79 22.08-50.35 3.83-21 2.43-46.28-2.17-67.14-4.36-19.8-14.27-37.72-30.65-50-1.34-1-2.23-2.56-4.16-2.87-.91-.15-3.21.76-4 1.28-1.64 1-1.73 2.11-5 3.51s-5-1.48-6.45-1.71a6.14 6.14 0 0 0 -3.76.34 24.44 24.44 0 0 0 -7.61 5.19c-3.89 4.05-7.92 8-11.46 12.36a147 147 0 0 0 -8.52 12.4 122.1 122.1 0 0 0 -11.16 21.27c-3.12 7.7-4.8 15.86-8.1 23.48a130.58 130.58 0 0 0 -6.17 18.85 151.2 151.2 0 0 0 -3.93 18.37c-.88 6.2-2.06 12.36-3.22 18.51-.61 3.26-.89 6.55-1.36 9.81-.43 3-.09 6.05-.63 8.95a58.15 58.15 0 0 0 -.43 14.18c.19 3.36.46 6.78 1 10.16a47.36 47.36 0 0 0 1.71 6.4c.92 3.11.43 4.23-2.48 5.4-.48.19-.91.5-1.38.72l-9.49 4.45c-.85.4-1.74.73-2.59 1.16a19.94 19.94 0 0 1 -6.2 2.21c-1.91.28-3.7 1.46-5.54 2.3-1 .46-3.5 2-4 .1a4.16 4.16 0 0 1 .4-2.36c2.22-6.56-1.74-11.88-4.16-17.59-2-4.69-3.37-9.66-5.36-14.4-3.41-8.07-7.1-16-10.33-24.15-5.75-14.49-10.95-29.06-17.18-43.38-.79-1.79-1.71-3.73-3.46-4.59-10.51-5.18-20.55 41.81-21.83 48a39.65 39.65 0 0 0 -.78 6.34c-.34 8.18-.57 16.38-.85 24.57.16 3.8.16 7.59.16 11.38a7.8 7.8 0 0 1 -.06 1.93 4 4 0 0 1 -.92 1.25l-1-.88c-.65-.54-1.28-1.11-2-1.63a24.89 24.89 0 0 1 -3.75-2.95c-1.83-2.09-3.88-3.92-5.89-5.81a107.05 107.05 0 0 1 -14.12-16.82 95.86 95.86 0 0 0 -11.85-14.22c-2.33-2.25-4.54-4.62-6.9-6.82a8.5 8.5 0 0 0 -2.78-1.53 3.4 3.4 0 0 0 -4.75 2.79 4.83 4.83 0 0 0 .47 2.77 46 46 0 0 0 3.48 5.37 54.08 54.08 0 0 0 6.8 6.82 4.26 4.26 0 0 1 1.55 3.67c-.41 6.73.65 15.65 3.14 21.87 3.74 9.38 5.91 19 8.57 28.65.76 2.74 1.91 5.37 2.84 8.06.65 1.89 1.31 3.79 1.84 5.72s-.32 2.86-2.08 2.72c-2.81-.23-12.06-3.23-14.67-3s-5.48 0-8.1 3.81-4.52 9-1.91 12.61 1.21 5.11 5.63 8.1c3.8 2.58 7.13 5.29 9 9.41a22.69 22.69 0 0 0 4.49 6.75 5.31 5.31 0 0 1 1 1.28c.3.6.8 1.28-.12 1.87-2.51 1.65-3.69 4.43-5.34 6.76-5.54 7.85-10.87 15.88-16.24 23.87-3.74 5.54-6.21 11.72-8.82 17.82a119.74 119.74 0 0 0 -6.72 19.26 55.79 55.79 0 0 0 -1.76 10.05 56.71 56.71 0 0 1 -1.14 6.92l-.09.64a160.19 160.19 0 0 0 -.54 25.54c.35 6.57 2.3 12.95 4.73 19.1a101.77 101.77 0 0 0 9 18.09 76 76 0 0 0 7.13 9.16 113.38 113.38 0 0 0 14.97 13.71c3.15 2.44 6.25 5 9.86 6.79.65.32.76.69.22 1.46-2.66 3.69-5.69 7.14-7.79 11.23-4.94 9.65-9.55 19.53-14.91 29-2.29 4-6.2 7.52-5.94 12.43a2.87 2.87 0 0 0 2.13 2.86c2.6.88 5.11 1.12 7.73-.27a196 196 0 0 1 23.87-10.66 41.83 41.83 0 0 1 5.21-1.32c1.77-.4 2.63.28 2.67 2.16a7.26 7.26 0 0 1 -.29 2.85c-2.4 5.21-3.9 10.73-5.73 16.14-2.48 7.37-5 14.75-8.9 21.52s-9.18 12.7-8.46 20.8a4.13 4.13 0 0 0 6 3.66 11.92 11.92 0 0 1 1.44-.69c3.41-.8-4.69 17.61-5.45 18.9-1.28 2.13-.72 4.1 1.12 5.82 2.31 2.13 5 1.89 7.6 1.54a10.32 10.32 0 0 0 7.79-5.48c2.22-3.78 7-7.82 9.92-11.24a91.9 91.9 0 0 1 11.23-10.44l4.38-3.65c2.19-1.84 5.54-2.66 8.15-3.94 1.5-.73 2.9-1.67 4.41-2.39 4.84-2.31-.08 22.44-1.11 25.15-1.19 3.14 1.34 6.22 3.89 7.35a3.53 3.53 0 0 0 3.6-.5c2.78-1.84 4.44-4.51 6-7.25a9 9 0 0 1 2.39-2.38c6.2-5.3 12.93-10.23 19-15.77 5.29-4.87 9.24-10.92 15.28-14.81 1.73-1.11 4.29-2.13 5.58-.51a4.15 4.15 0 0 1 .67 2.36c.35 4.33 1 8.71.55 13.06a44.39 44.39 0 0 1 -1.34 7.15c-.3 1.18-1 2.23-1.41 3.45a15.69 15.69 0 0 0 -.43 5.12c0 2 2 4.17 3.55 3.78s3.56-.77 4.35-2.81c1.19-3 2.52-6 3.79-9.06a4 4 0 0 1 .48-1.15c.77-.82 1.28-2.48 2.41-2.18.74.2 1.14 1.84 1.61 2.88.29.67.38 1.42.65 2.13a84.44 84.44 0 0 1 2.65 9.74 8.72 8.72 0 0 0 2.37 4.37 9.42 9.42 0 0 0 5.22 2.06 17.33 17.33 0 0 1 3.41.62c1.89.56 2.51 1.24 1.86 3-1.78 4.75 1.66 10.32 2 15.21.4 5.37 0 11.27 2.88 16.09 1.07 1.79 5.18 2.17 6.67.7a17.38 17.38 0 0 0 2.75-3.52c2-3.34.49-11.27.61-15.18.08-2.46.15-4.93.32-7.39a34 34 0 0 1 .63-5.11 41.79 41.79 0 0 1 1.28-4.4c1.8-5.42 3.49-10.82 5.07-16.3a17.12 17.12 0 0 1 .74-1.7c.55-1.35 2-2.2 1.95-3.94 0-.43 1-1.22 1.53-1.21s1.53.94 1.46 1.28c-.52 2.83 1.34 5.12 1.6 7.78a18.81 18.81 0 0 0 2.42 7.82c1.43 2.37 2.07 5.36 5.34 6.39a6.75 6.75 0 0 0 3.75.43 11.07 11.07 0 0 0 5.9-3.56 5.77 5.77 0 0 0 1.32-3.51c.28-3.6-.93-6.92-1.59-10.36a25.19 25.19 0 0 1 -.33-5.75c.06-1.51.9-2 2.58-2.06a19.31 19.31 0 0 0 3.57 0c2.09-.38 3.21.81 4 2.34a10.31 10.31 0 0 1 1.39 5.07c-.06 1.28 0 2.6 0 3.89.07 4.53 3.46 7 7.76 5.59a6 6 0 0 1 1-.13c2.71-.46 3.92-2.25 4.31-4.81.26-1.68.55-3.34 2-4.57 1.23-1.08 2.21-1.08 3.15.25a10 10 0 0 1 1 2 51.39 51.39 0 0 1 2.27 6.25c.92 3.83 3.41 6.32 6.64 8.06a5.47 5.47 0 0 1 3.24 4.65c.79 6.33 3.84 16.11 8.36 20.72a8.71 8.71 0 0 0 4.38 2.62 4.68 4.68 0 0 0 4.65-1.59 6.94 6.94 0 0 0 1-4c.12-3.71-.09-7.43-.3-11.14-.48-8.25-4-22.23 2.43-28.9a3 3 0 0 0 .86-1.63c.4-4.38 1-8.76.67-13.17a91 91 0 0 0 -1.08-9.17 2.13 2.13 0 0 1 .76-2.19 2.6 2.6 0 0 1 2.32.17 4.16 4.16 0 0 1 1.86 3.22c.22 2.13 1.07 4.08 1.51 6.15.56 2.64 2.58 4.78 4.17 7a12.46 12.46 0 0 0 4.69 3.8c2.89 1.52 5.84 2.81 9.3 2.77a4.5 4.5 0 0 0 4.07-2.1c1.93-3 4.18-5.88 4.93-9.53.5-2.43 2.79-3.71 4-5.7.3-.49 1.32-.6 2-.75a1.2 1.2 0 0 1 1 .38 19.44 19.44 0 0 1 1.7 2.7 86.45 86.45 0 0 0 7.32 11.32c3.51 4.87 3.68 11.33 8 15.82 2.67 2.76 7 4.32 10.46 2.68 2.94-1.4 5.54-6.91 7.29-9.65 1.38-2.16 3-3.69 5.87-3.32 4.26.55 8.19 2.33 12.36 2.67 1.92.16 3.84 0 5.78 0 6.54.09 9.62 3.41 15.52-.62a1.41 1.41 0 0 0 .42-1.13 11.77 11.77 0 0 0 -1.68-5.66c-1.94-3-4.76-4.9-7.31-7.14a9.25 9.25 0 0 1 -3.23-7.36c.06-3.84-1.93-6.15-4.79-8.08-4.12-2.77-8.3-4.63-11.6-8.45-3-3.41-5.12-7.53-8.86-10.28-2.8-2.06-6.26-3.18-8.82-5.54-3.89-3.59-5-9.41-8.76-13.15-1.22-1.22-2.69-2.18-3.91-3.41-3.73-3.81-8.23-12.24-8.52-17.58 0-1-1.38-1.85-.18-3 .37-.34.29-.73 1-.42 3.14 1.21 6.35 2.27 9.53 3.41a9.18 9.18 0 0 1 1.77.66c2.13 1.31 4.22 2.76 6.39 4a17.39 17.39 0 0 0 4.37 1.81c2.27.54 5-1.44 5.59-3.75.07-.31 0-.66.08-1 .31-1 0-3.34 1-2.93s1.94.8 2.9 1.23c5 2.25 9.57 5.11 14.82 7.22 5.72 2.29 8.14 6.2 12.51 10 3.12 2.74 6.27 5.47 10.88 5.54a12 12 0 0 0 9-3.62c5.21-5.16 8.87-11.51 13.69-17 1.82-2.03 4.32-3.4 5.07-6.26zm-175.54-444.38a5.16 5.16 0 0 1 2.93 2.65c1.16 2.38 3.07 4.52 3.69 7 1.49 6 4.61 11.37 5.71 17.48.85 4.69 2 9.34 2.91 14 .73 3.75 1.28 7.53 1.93 11.3v.65q.39 8.52.79 17.08c-.14 1.63-.08 3.26-.15 4.88-.29 6.53-.21 13.42-1.09 19.88-.85 6.11-3.61 12.23-5.61 18a181.62 181.62 0 0 1 -12.57 29 117 117 0 0 1 -18.21 25.15c-1.6 1.63-3.41-.18-1.28-2.47 3.1-3.33 14.19-21.15 17-27.66a207.51 207.51 0 0 0 9.47-26.74 169.91 169.91 0 0 0 5.25-41.38c.14-20.32-4.57-41.2-6.88-51-.15-.62-5.08-13.84-4.94-17.43.18-.8.44-.63 1.05-.39zm-15.26-11.08c2.21-.66 5.77 7.58 6.82 11.56 1.47 5.52 3.69 10.84 4.26 16.62.49 4.74 1.76 9.38 2.44 14.13.63 4.32.9 8.7 1.39 13.05.35 3.17.82 6.33 1.2 9.5a17.23 17.23 0 0 1 .08 2.27v10c.5 29.65-9.3 57.55-20.15 84.68-.42 1.11-1.6 2.45-2.56 1.71-.63-.5-.42-1.5-.14-2.26a247.78 247.78 0 0 0 10.19-36.65 280.64 280.64 0 0 0 5.41-60.95c-.14-4.5-.1-9.05-.6-13.51a251.25 251.25 0 0 0 -5.59-31c-1-4-1.37-8.14-2.17-12.19-.24-1.38-2.79-6.3-.58-6.95zm-11.7 121.33c.05-.32 0-.66 0-1a114 114 0 0 1 .71-11.56c1.59-10.07 1.28-20.19 1.2-30.29-.06-8.53 0-17.05-.75-25.54-1.06-12.15-1.44-25.35.21-37.43.37-2.7 1-7.55 2.71-7.55s1.22 6 1.54 9c.34 3.31.7 6.62 1.05 9.93.68 6.38 1.56 12.71 2.27 19.07 0 .43.69 13.17.76 30.09a208.63 208.63 0 0 1 -3.19 35.8c-.34 1.89-.43 3.84-.72 5.72-.49 3.25-.88 6.53-1.59 9.74-2.84 12.7-6.19 25.3-9.13 38a1.39 1.39 0 0 1 -.34.77c-.42.43-1.24.13-1.54-.43a3 3 0 0 1 -.15-1.8l.09-.77c1.22-9.82 3.17-19.45 4.89-29.14.78-4.18 1.35-8.4 1.98-12.61zm-5.8-115.84c.7-2 2.42-5 3.49-5s0 3.35-.11 4.06c-6.2 29.43-3.34 60.18-5.21 90.09-.8 12.82-1.92 25.63-3.52 38.38-.78 6.19-1.64 12.36-2.69 18.52-.88 5.12-1.71 18.58-4.61 18.58s-3.65-26.9-3.92-32.6q-.49-10-.48-20.06 0-19.51 1.93-39 1.78-18.33 5.26-36.43a243.32 243.32 0 0 1 9.86-36.56zm-19 20.71c1.14-1.83 6.24-9.57 7.09-9.23s-.94 4.44-1.48 6.68c-1.47 6.16-3.13 12.4-3.88 18.49-.51 4.21-1.5 8.35-2.28 12.52-3.36 18.1-4.65 36.5-5.54 54.86-.43 8.42-1.14 16.93-1.13 25.35 0 8.16 1.91 16.63 2.1 24.52a65.53 65.53 0 0 0 2.53 16 8.48 8.48 0 0 1 .09 2.25 14.18 14.18 0 0 1 -.19 1.58c-.55-.27-1.31-.42-1.6-.85-1.28-1.94-3-3.84-3.49-6a222.62 222.62 0 0 1 -5.33-37.76c-.61-11.87-1.32-24.3-1.32-36.73 0-22.32 1.82-51.31 14.45-71.71zm-33 118.25c-.1-17.11 4.53-33.86 7-50.76.35-2.42.91-10.78 3.37-10.8s1.45 4.12 1.33 5.25c-.37 3.41-.38 6.87-.78 10.27-1 8.85-.14 17.67-.55 26.5-.31 6.45-.82 12.89-.65 19.37a82.56 82.56 0 0 0 8.7 36c1.42 3 .19 7-2.28 5.21-1.41-1-2.79-2.09-4.12-3.26a31.27 31.27 0 0 1 -10-15.77 52.05 52.05 0 0 1 -2-15.5c.09-2.16 0-4.33 0-6.49zm-136.79 86.51a84.36 84.36 0 0 1 -6.34-6.06c-2.86-3.09-.37-7.51 4-5.6 4.65 2.06 9.3 4.13 14 6.1a6.35 6.35 0 0 0 3.65.72 17.79 17.79 0 0 1 4.11-.51c3.27-.14 4.56-2.38 3.88-5.62-.71-3.41-2.84-6.11-3.87-9.38-2.4-7.6-5.33-15-7.67-22.65-1.93-6.28-4.56-12.31-6.32-18.63a62.84 62.84 0 0 1 -1.73-6.05 28.11 28.11 0 0 1 -.05-5.19 5.3 5.3 0 0 1 .28-1.16 3.67 3.67 0 0 1 1.17.51c1.71 1.71 3.35 3.45 5 5.19.51.55.85 1.33 1.47 1.68 1.71 1 2.8 2.56 4.09 4 6.34 6.94 13.53 13.07 19.5 20.34 2.7 3.29 6.63 5 9.81 7.67a3.28 3.28 0 0 0 .85.39 2.17 2.17 0 0 0 3.28-2 10.93 10.93 0 0 0 -2.08-6.82c-3.62-5.44-2.44-10.49-2-16.54.43-6.23-1.38-12.65-1.36-19 0-3.83.18-7.64.51-11.45 0-14.44 6.55-26.67 12.34-39.31a2.33 2.33 0 0 1 .83-1.14c1.16-.7 2.38.77 2.94 2 3.16 7.06 6.29 14.12 9.46 21.17 2.62 5.81 4.35 12 6.68 17.95 5.25 13.46 10.82 25.85 11.51 40.49a43.31 43.31 0 0 0 1.78 9.68 1.56 1.56 0 0 1 -.3 1.67c-3.71 4.87-15.44 7.78-20.93 10.66a148.9 148.9 0 0 0 -20.19 12.43c-4.82 3.6-9.73 7.11-14.31 11a177.6 177.6 0 0 1 -14.26 11.11c-2.4 1.65-4.8 3.23-6.26 5.88a7.6 7.6 0 0 1 -1.82 1.85c-.23.19-.82.32-1 .18-3.19-3.12-3-5.54-5-9.23a27.6 27.6 0 0 0 -5.65-6.33zm52 223.92c-2.2 2-4.34 4.15-6.7 6s-5.32 1.85-8.06 2.56c-1.76.08-3-1-4.42-1.77-4.06-2.19-8.09-4.45-12.09-6.72-1.84-1-3.93-1.9-5.31-3.41-1.16-1.24-2.09-2.81-3.22-4.16-.12-.14 0-.62.19-.85 1.56-2.38 2-5.36 4-7.52.6-.62.72-1.06 1.66-.55 2.49 1.35 5.11 2.5 7.6 3.83a89.34 89.34 0 0 0 8.4 3.53 15.07 15.07 0 0 1 2.09.7 36.11 36.11 0 0 0 12.36 4.58 12.17 12.17 0 0 1 3.23 1.28 1.46 1.46 0 0 1 .25 2.5zm77.81 11.09c-3 2.92-4.85 6.68-7.3 10-4.41 6-8.88 11.88-13.27 17.85-4.53 6.15-9 16.15-15 20.8-3.92 3-8.71 2.42-12.16-.88-1.44-1.39-3.41-2.22-5.08-3.39-3.69-2.55-7.3-5.28-11-7.78-2-1.33-4.2-2.32-6.31-3.47a7.07 7.07 0 0 1 -1.07-.67c-2.86-2.32-3-5.28.35-7.25 3.84-2.22 5.94-5.83 8.89-8.73 3.69-3.62 7-7.67 10.47-11.51a18.18 18.18 0 0 0 3.15-4.39 9 9 0 0 1 7.75-5.12c1.07-.1 2.16-.13 3.25-.13s2.13 0 3.17-.08c.29 0 .64 0 .78.25a.76.76 0 0 1 0 .64c-3 7.37-9.7 16-14.73 22.23-2.63 3.23-4.61 9.07-3.31 13.14a2.74 2.74 0 0 0 .89 1.42c1.12.79 2.65-.07 3.66-1 4.91-4.44 8.61-11.12 12.28-16.56 1.06-1.58 1.91-3.31 3-4.89s2.41-3.23 3.56-4.89a13.31 13.31 0 0 0 1.7-3 11.78 11.78 0 0 1 3.3-4.43 30.45 30.45 0 0 1 2.41-2.41 1.44 1.44 0 0 1 1.42 0 1.49 1.49 0 0 1 .09 1.42c-1.58 2.39-3.36 4.65-4.85 7.09-4 6.57-10.26 14.3-12.19 21.74a6.7 6.7 0 0 0 -.13 3.58 3.14 3.14 0 0 0 2.53 2.31c1.41.13 2.61-1 3.57-2 6.54-7.19 9.67-15.77 14.61-23.87 1.32-2.16 3-4.08 4.19-6.36.66-1.24 2.43-2 3.84-2.73a18.52 18.52 0 0 1 7.36-2.7c2.08-.17 2.62.45 2.06 2.43a8 8 0 0 1 -1.73 3.42zm71.4 24.34c-2.41 4.41-9.17 10.66-13 14a44.67 44.67 0 0 1 -16.83 9 38.51 38.51 0 0 0 -4.11 1.68c-.85.37-1.66.91-2.56 1.2-2.71.9-3.48.47-4.57-2.26a14.57 14.57 0 0 0 -1.28-2.56c-4.61-7.06-6.75-15.09-9.06-23.05-1-3.55-1.78-7.19-2.56-10.82-.33-1.55-.21-3.2-.59-4.73-1-3.87-2.87-7.53-2.72-11.6a1.7 1.7 0 0 1 .36-1.17 1.81 1.81 0 0 1 1.21-.35l4.1-.16a5.14 5.14 0 0 1 2.7.38 5 5 0 0 1 1.78 2.27c4.39 9 5.37 19.47 9.55 28.69.79 1.75 2 3.73 3.93 3.83 2.13.09 3.53-2.27 3.71-4.37a10.59 10.59 0 0 0 0-1.38c-.18-3-1.62-5.85-2.74-8.68-2.49-6.34-1.49-14.75-4.91-20.5-.5-.85 1.36-2.46 2.56-2.19s2.47.54 3.07 2c2.63 6.24 4.45 12.79 6.5 19.27.66 2 1.37 4.2 3 5.66s4.36 1.86 5.82.28c1.78-1.93.53-5-.62-7.36-2.62-5.41-5.83-13.59-6.19-19.58-.06-1-.26-2.16 1.25-2.56a3.06 3.06 0 0 1 3.15.77 20.35 20.35 0 0 1 2.7 3.75c3.47 7.25 10.77 12.76 14.76 19.92 1.85 3.26 3.41 7.34 1.61 10.63zm76.42-97.29c-1.7 1.92-3.19 4-4.69 6.08a47.47 47.47 0 0 1 -14.69 13.38c-7 4.07-13.71 8.8-21.21 12.07-3.41 1.48-6.87 2.87-10.32 4.29-6.21 2.56-12.34 5.36-18.67 7.57-7.71 2.68-15.56 5-23.45 7.17-5.92 1.63-12 2.88-18 4.06-2.82.55-5.76.46-8.63.76-3.29.34-6.56.78-9.83 1.17-.32 0-.64.1-1 .11-5.28.22-10.54.49-15.81.64-9.5.27-19 .17-28.5.8-4.19.28-8.37.46-12.56.5a70.53 70.53 0 0 1 -25.72-4.54c-5.77-2.18-11.63-4.11-17.48-6a88.76 88.76 0 0 1 -19.3-8.47c-5.84-3.61-11.75-7.08-17.48-10.87a109.68 109.68 0 0 1 -9.08-7.22c-2.16-1.79-4.13-3.84-6.33-5.54-5.36-4.19-9.2-9.61-12.83-15.25-3.17-4.93-4.89-10.43-6.36-16a94.31 94.31 0 0 1 -2.51-27.12 49.26 49.26 0 0 1 1.08-9.84 46.43 46.43 0 0 0 .76-6 54.38 54.38 0 0 1 4.3-17.27c1.95-4.26 3.73-8.62 5.36-13 2.5-6.68 6.25-12.63 10.23-18.48 3.51-5.16 7-10.33 10.62-15.41 2.93-4.11 6-8.1 9.06-12.13 2.31-3.1 4.52-6.28 6.93-9.29a37.32 37.32 0 0 1 4.34-4.37c3.2-2.9 6.54-5.65 9.68-8.61 11.34-10.65 23.6-20 38-26.26a51.14 51.14 0 0 0 5.2-2.95c3.69-2.16 7.76-3.67 11.68-5.43 1.06-.47 2.13-.88 3.24-1.28a.79.79 0 0 1 .59.16.56.56 0 0 1 -.11.48c-1.9 1.53-3.62 3.41-5.75 4.51-8.4 4.29-16.15 9.58-23.93 14.84-4.26 2.89-8.48 5.85-12.6 8.95a69.22 69.22 0 0 0 -6.6 5.74c-3.51 3.37-6.93 6.82-10.33 10.33-1.88 1.93-3.72 3.93-5.42 6a52.42 52.42 0 0 1 -5.45 5.4 10.61 10.61 0 0 0 -2.64 4.65c-.43 1.17.48 2 .71 2.93.05.21 1.3.43 1.76.2 5.12-2.65 8.74-7.29 12.46-11.56a148.14 148.14 0 0 1 13-12.57c5.78-5.24 12.79-8.63 19.4-12.59 11.3-6.78 21.76-15.45 33.57-21.29 4.26-2.1 7.81-5 12-7 2-.92 3.84-2.33 5.86-3.14.74-.29 6.18-1.08 6.27-1.21-2.13 3.27-7.82 5.54-11 7.94-4.07 3.11-8.1 6.26-11.88 9.73-2.51 2.32-5.49 4.11-8.13 6.29-2.41 2-4.76 4.08-7 6.29-4.81 4.85-9.92 9.35-15 13.88-4.6 4.09-8.7 8.74-13 13.21-2.46 2.56-4.55 5.57-7.29 7.78-2.34 1.88-5.56 4.53-6.25 7.67-.34 1.55.37 3.46 1.9 3.87 1.71.46 3.27-1.06 4.48-2.37a326.1 326.1 0 0 1 26.66-25.25c8.85-7.72 17.32-15.94 27-22.64 2.62-1.81 5-3.9 7.76-5.6 1.66-1 2.85-2.79 4.26-4.19 3.63-3.59 9.78-9.48 15.14-9.66 1.08 0-3.62 2.91-3.67 2.95-1.85 1.46-3.51 3.27-5.23 4.89a128.2 128.2 0 0 0 -11.27 11.45c-5.31 6.39-11.34 12.13-16.93 18.27-3 3.32-5.49 7.16-8.17 10.78-2.86 3.87-5.63 7.79-8.5 11.63-2.56 3.44-6.4 7-8 11a6.9 6.9 0 0 0 .33 6.45 2.81 2.81 0 0 0 2.3 1.36 3.66 3.66 0 0 0 2.4-1.64c2.5-3 5-6.14 7.39-9.27 1.71-2.29 3-4.93 4.73-7.21 3.46-4.53 7-9 10.71-13.34 4.84-5.66 9.76-11.26 14.87-16.69 3.61-3.83 7.58-7.34 11.37-11 4.53-4.4 7.67-9.38 13.07-13.08a.9.9 0 0 1 .6-.23c.62.09.43 1 .07 1.54-6.31 8.86-12.17 18.33-19 26.75-2.51 3.08-5.06 6.11-7.25 9.41-5.79 8.74-12.67 19.18-13.64 29.95a3.92 3.92 0 0 0 .14 1.83c.65 1.65 3.13 1.81 4.52.71 1.86-1.45 2.89-4.8 4.06-6.87 1.81-3.19 3.56-6.44 5.2-9.73 2.65-5.32 6.25-10 9.69-14.78 4.19-5.82 8.83-11.56 12.64-17.63 3.33-5.28 5.86-10.81 10.37-15.3 3-2.94 4.9-6.31 7.34-9.75.56-.77 1.93-1.46 2.23-.55a1.32 1.32 0 0 1 -.19.95c-3.34 6.93-6.64 13.79-9.95 20.71-6.9 14.43-11.47 30.59-17.14 45.61-1 2.58-1.7 6.05.57 7.63 1.62 1.13 4 .43 5.35-1a12.91 12.91 0 0 0 2.55-5.29 334.75 334.75 0 0 1 12.51-33.61c2.85-6.58 7-12.51 9.89-19.05.8-1.83 10.77-25.68 11.74-24.78 2.36 2.2.91 5.61.22 8.35a94.41 94.41 0 0 1 -3.56 12.13c-5.92 15-8.3 32.82-11.36 48.59-.83 4.24-2.47 8.06-2.2 12.49a4.23 4.23 0 0 0 1 2.83 3.22 3.22 0 0 0 4.14-.16 9.35 9.35 0 0 0 2.38-3.81c2.86-6.82 2.69-12.92 3.72-20a132.75 132.75 0 0 1 5.34-21.59c.74-2.28.94-4.75 1.71-7.07.57-1.75.87-3.64 2.46-4.89.22-.18.73-.16.73.14 0 4.66.38 9.35-.11 14-.68 6.31 0 12.67-.29 19-.27 6.49-2.17 12.68-2.69 19.18a5.08 5.08 0 0 0 .22 2.48 3.33 3.33 0 0 0 4.4 1.35 5.68 5.68 0 0 0 2.82-4.07 22.37 22.37 0 0 0 .17-5.11c-.14-5.35 2.21-10.63 2.75-15.94 1.28-12.71 2.33-26.23 2-39 0-.41.1-2 .69-2 .32 0 .33.64.35.85a5.32 5.32 0 0 0 .76 2c.79 1.52 1 3.19 1.53 4.78a145.45 145.45 0 0 1 7.63 32.2 94.74 94.74 0 0 1 .56 22.14 3.83 3.83 0 0 0 .43 2.74 3.2 3.2 0 0 0 2.34.9 4.22 4.22 0 0 0 2.49-.47c1.24-.8 1.53-2.46 1.67-3.93a137.09 137.09 0 0 0 -1.12-32.19 132.29 132.29 0 0 0 -3.91-17.6c-.75-2.55-.73-6.94-2.25-9a1.39 1.39 0 0 1 -.26-.91 11.18 11.18 0 0 1 .37-1.49c.59.16 1.45.14 1.71.53 1.11 1.67 2 3.46 3 5.21 6.82 12.13 13.72 24.12 19 36.79 2.9 6.93 4 13.89 5.63 21.13a4.83 4.83 0 0 0 .78 2c1.08 1.33 3.34 1.09 4.56-.11a7 7 0 0 0 1.71-4.73c.24-5-1.62-10.09-2.74-14.86a70.34 70.34 0 0 0 -4.27-12c-2.5-5.78-4.78-11.69-7.75-17.22-2.45-4.54-4.41-9.37-7.39-13.64-1-1.42-1.54-3.21-2.72-4.59-.15-.18-.07-.57-.09-.85a2.7 2.7 0 0 1 .78.28 16.23 16.23 0 0 1 2.71 2.21c8.83 10.5 15.83 21.57 22.98 33.4a101.14 101.14 0 0 1 8 16c1.46 3.77 2.13 9.93 5.29 12.76 5.39 4.84 3.69-6.39 3.28-8.81a70.84 70.84 0 0 0 -7-21.52c-.18-.36-5.06-9.19-4-9.23 1.7-.06 11.39 18.48 16 25 2.66 3.76 5.3 7.54 7.6 11.51 1.67 2.9 3 8.5 5.86 10.42a3.54 3.54 0 0 0 4.61-.38c.9-1.13.78-2.75.52-4.17-2.46-13.74-12.51-24.51-19.29-36.23a103.85 103.85 0 0 0 -12.29-16.35c-1.67-1.91-3.66-3.53-5.42-5.38-1.4-1.46-2.66-3.07-4-4.62-.09-.11-.07-.32-.11-.49.2 0 .46-.16.6-.09 3 1.65 6 3.09 8.7 5.28a112.9 112.9 0 0 1 23.5 26.57c2.91 4.61 5.51 9.43 8.65 13.87a125.22 125.22 0 0 1 11.09 19.09c2 4.32 4.14 8.64 5.88 13.09a48.18 48.18 0 0 1 2.26 8.86c.46 2.61 1.47 8.9 3.11 10.8 1.28 1.46 3.6 1.54 5.35.71 2.23-1.06 6.07-8 8.52-3.38a6.11 6.11 0 0 1 .58 1.14 30.21 30.21 0 0 1 1.13 13.73c-1 8.22-2.1 16.55-5.17 24.25-.71 1.77-4.1 12.72-7.25 11.18a1.87 1.87 0 0 1 -.89-1.51 35.49 35.49 0 0 1 1.7-7.36 40 40 0 0 0 2.76-9.65c.77-5.51.65-11.55.66-17.13 0-1.41-1.6-6.26-5.34-5.17s-3.49 3.72-3.8 5.82c-1.42 9.85-2.62 19.73-4.31 29.54-1.18 6.85-6.73 15.06-2.69 21.86a7.9 7.9 0 0 1 1.14 2.24c.94 4.23-9.93 12.32-12.46 15.18zm101.2 8.47c-2.44 1.16-14.43 10.8-16.14 11.77a50.25 50.25 0 0 1 -8.27 4.13c-2.89 1-5.49 2.65-8.6 3.14-2.39.37-4.65 1.45-7 2.1-4.62 1.28-9.26 2.46-14.13 2.4a14.42 14.42 0 0 0 -2.76.62c-1 .23-2.05.47-3.09.64-3.2.55-5.29-1.21-7.1-3.5-.53-.66-1-1.35-1.49-2-3.73-5.75-9.58-8.16-15.77-10-1-.31-5.36-4.14-5.76-5-.77-1.58-.67-3.46-1.75-5-.48-.68 0-1.67.8-2.25 4.66-3.48 7.73-8.29 10.45-13.22 4-7.24 7.88-14.52 12.94-21.07 2.82-3.65 4.32-7.84 5.54-12.15 1.08-3.77 5.57-19 5.79-32.62s-3.58-21.94-6.19-23.58a8.06 8.06 0 0 0 -9.66 1.17 8.84 8.84 0 0 1 -.69.68c-1.21 1-2 .79-2.83-.62-1.28-2.1-.52-5.28-1-7.64-.65-3.13-2.34-6-3.44-9a85.71 85.71 0 0 0 -8.41-15.9c-5.09-8.05-10.42-15.95-15.73-23.87-2.85-4.26-15-17.85-16.12-19.11-1.7-1.88-11.13-10.37-13.86-12.1-2-1.24-3.69-2.85-5.54-4.26-1.47-1.11-1.44-1.28-.33-2.61 1.62-2 3.11-4.05 4.65-6.09.31-.42.55-.89.85-1.32.42-.63.95-.78 1.55-.19s1.28.89 1.48 1.5c1.39 3.74 6.37 14.73 8.06 16a6.23 6.23 0 0 0 4.78 1.28c1.62-.32 3.47-.57 4.51-2.48 8.78-16.1 11.61-34.82 23.51-49.61a3.8 3.8 0 0 0 .74-1.37c.16-.55.23-1.17 1-.83a1.63 1.63 0 0 1 .6 1.15 35 35 0 0 1 .23 5.32c-.11 3.81-.69 7.48-.89 11.48-.49 10.44.66 22.67-2.09 32.77-.43 1.61.28 2.94.56 4.37a6 6 0 0 0 5.41 4.5c2.42.08 5.51-2.73 5.61-5.28.14-3.68 2-12.64 6.39-14.73s1.91 2.38.88 7.16.85 10.88 3.21 12.23c3 1.74 5.43 1.41 8.66-1.28a14.38 14.38 0 0 0 1.83-1.83c1.71-2 3.35-4.14 5.15-6.11.27-.3 1.44-.63 1.79.11 3.41 7.1 13 9.95 20.2 9.47a21.11 21.11 0 0 1 4.35-.1 45.25 45.25 0 0 0 10.4.39 3 3 0 0 1 1.51.37c1.12.61 1.19 1.24.32 2.14-7.45 7.67-14.85 15.37-22.36 23a75.54 75.54 0 0 1 -12.9 10.15 46.67 46.67 0 0 1 -9.34 4.69 10.69 10.69 0 0 0 -6.06 4.9c-1.21 2.3-1.23 4 .58 6 2 2.22 2.36 2.41 5.34 3.2 3.76 1 7.57 1.87 11.27 3.06a18.34 18.34 0 0 0 6 .91c2 0 14.49-.81 16-.1s1.94 1.92.69 3c-1.06.9-2.16 1.73-3.23 2.61a43.33 43.33 0 0 0 -3.67 3.08 61.16 61.16 0 0 1 -7.61 6.39 35.81 35.81 0 0 0 -8.76 9.6c-1.84 2.89-.62 6.34 3.74 7.28 2.63.58 5.57-.82 7.82.06s7.09 4 8.85 4.71c2 .78 15.38 6.79 12.39 9.89s-4.5 4.43-5.54 5.63a105.23 105.23 0 0 1 -8.87 8.8c-1.21 1.1-2.71 1.89-4 2.94a14.81 14.81 0 0 0 -2.69 2.79 23.25 23.25 0 0 1 -3.46 4 7.56 7.56 0 0 0 -2.37 7 4.75 4.75 0 0 0 3.63 4 21.08 21.08 0 0 0 5.42-.2c.88-.07 1.74-.49 2.63-.52 1.44-.06.91 1.51 1.53 2.09 1.25 1.17 2.62 2.19 4 3.25.24.19.69.17.86.39 2 2.58 4.81 3.76 7.85 4.58a4.51 4.51 0 0 1 3 3.09 10.4 10.4 0 0 0 6.4 6.18 6.73 6.73 0 0 1 1.52.42 1.3 1.3 0 0 1 .59 1.93c-1.08 1.28-1.49 3-3.35 3.76a9 9 0 0 0 -3.28 2.49c-1.53 1.76-3.26 3.29-4.92 4.92a65.86 65.86 0 0 0 -5.35 6c-2.77 3.44-1.14 8.32 3 9.9a4.18 4.18 0 0 0 5.12-1.15 12.08 12.08 0 0 1 6.42-3.84c2-.46 4-1.33 6-2a4.43 4.43 0 0 1 1.58-.15c.23 0 .49.3.64.52a.6.6 0 0 1 -.17.57z"></path>
        <path d="m885.56 193.24c-2.11-.07-4.23-.31-6.39.39a30.84 30.84 0 0 1 -7.49 1.45c-32.2 0-64 2.19-96.33 0-12.59-.86-25.15-2-37.76-2.88-18.54-1.3-35.49-5.18-53.65-8.84-18.77-3.77-37.69-6.87-56.44-10.76-19.83-4.13-39.78-6.25-59.13-12.62-11.45-3.78-22.89-7.54-33.87-12.6a24.55 24.55 0 0 0 -11.5-2.32 31.73 31.73 0 0 0 -10.79 2.75c-5.35 2.23-11 3.35-16.59 4.39-3.66.68-7.42.86-11.08 1.45-4.4.72-8.76 1.66-13.14 2.49s-8.55 1.31-12.79 2.47a57.22 57.22 0 0 1 -19.38 2.08 11.66 11.66 0 0 1 -2.2-.39c-5.72-1.59-11.44-3.23-17.17-4.8-14.67-4-29.39-7.83-43.72-13-8.53-3.06-17.05-6.07-25.38-9.65-8.89-3.81-17.85-7.48-27.26-10a52.43 52.43 0 0 1 -7.88-3.23c-2-.92-4-1.84-6.05-2.67s-3.9-.29-5.6.26c-6.22 2-2.43 9.77-3.22 14.42q-4 23.73-9.86 47.08c-1.7 6.8-3.46 13.58-5.14 20.38-1.14 4.64-2.38 9.27-3.22 14-.79 4.4-1.44 8.81-2.58 13.14-1 3.89-1.81 7.85-2.67 11.79-1 4.46-1.81 8.95-2.9 13.38-1.78 7.2-4.08 14.27-5 21.7a45.74 45.74 0 0 1 -2.95 11.38c-1.6 3.94-3.05 7.95-4.36 12a59.4 59.4 0 0 0 -2.87 10.74 29.11 29.11 0 0 0 3.52 18c3 5.33 5.91 10.68 8.9 16 3.14 5.61 6.59 11.06 9.42 16.82a380.73 380.73 0 0 0 20.57 37.08c4.59 7.22 7.36 11.44 12.23 18.49 2.87 4.69 3.44 12.76 1.64 15.95-.86 1.53-3.63-1.21-4.39-1.91a24.46 24.46 0 0 0 -3.81-3.34 3 3 0 0 0 -4.57 2.24 10.19 10.19 0 0 0 .27 3.81 11.27 11.27 0 0 0 4.06 6c2.39 1.89 3.38 4.88 5.76 6.73.19.15.21.59.22.9.07 5 .24 4.71-4.18 4.76-3.68 0-7.8-1.12-11.45-1.7-7.93-1.25-15.86-2.78-23.4-5.62a5.63 5.63 0 0 0 -4.2.18c-2.83 1.09-5 4.23-2.22 7.37a13.62 13.62 0 0 1 3.35 7c.2 1.23.89 2.38 1.12 3.61a1.85 1.85 0 0 1 -.73 1.59 1.68 1.68 0 0 1 -1.55-.61c-.74-1.92-2.69-2.36-4-3.53-.71-.62-1.78-.85-2.38-1.55a48.19 48.19 0 0 0 -8.5-7 10.36 10.36 0 0 0 -7.61-1.83 4.4 4.4 0 0 0 -3.63 2.36c-4.86 10.23.22 22.92 1.22 33.89 1.07 11.91 1.41 24.3 1.94 36a1.82 1.82 0 0 0 0 .33c.42 3.38 1 6.75 1.23 10.15.23 3.1.33 6.2.58 9.3.67 8.1.65 16.2 1.22 24.3a8.11 8.11 0 0 1 -.09 2.6c-.52 2-2.44 3.3-3.91 4.8a25 25 0 0 0 -3.84 5.68 12.22 12.22 0 0 0 -1.52 3.63c-.94 5.09 3.7 11.39-3.76 11.84-2.41.14-5.31 2.37-5.42 4.68a28.5 28.5 0 0 0 .33 8 24.46 24.46 0 0 0 3.53 7.76c.66 1 .55 1.52-.24 2.13a9.15 9.15 0 0 1 -1.35.79 42.52 42.52 0 0 0 -3.9 2.05c-1.81 1.2-2.59 3.88-2.43 6.33a14.67 14.67 0 0 0 3.16 8.18 41 41 0 0 1 2.25 3.46 3.69 3.69 0 0 1 -.73 4.9 8.3 8.3 0 0 0 -3.22 7.51 21.12 21.12 0 0 0 1.71 6.72 37.5 37.5 0 0 0 6.84 10.65c2.17 2.46.3 9.73-.53 12.7a22.9 22.9 0 0 1 -1.71 3.6 55.53 55.53 0 0 0 -2.73 7.46c-2.44 7.84-4.9 15.66-7.62 23.39-2 5.63-3.78 11.34-5.89 16.92-1.52 4-3.58 7.76-5.12 11.74-2.72 7-5.29 14.15-7.82 21.26-2.06 5.81-4 11.66-5.9 17.53a76.79 76.79 0 0 0 -3.31 15.88c-.54 5.23-1.06 10.43-1.33 15.68-1.32 25.33-5.57 50.24-5 75.7 0 1.86-.37 3.64-.16 5.55a50.58 50.58 0 0 0 2.31 9.51c.74 2.4 2.46 4.1 5 3.59.52-.11 11.24-4.47 13.74-5.66 3.86-1.85 7.59-4 11.51-5.74 7.31-3.24 14.72-6.25 21.89-9.81a30.38 30.38 0 0 1 16.43-3.42c3 .27 5.89 1 8.86 1.2a80.09 80.09 0 0 1 11.28 2c7.3 1.58 12.14 5.76 14.43 13.05a60.71 60.71 0 0 1 2.4 13.45 52.59 52.59 0 0 0 3.23 14.92c1.91 5 3.76 10 5.62 14.94.78 2.1 1.46 4.23 2.31 6.3a16.19 16.19 0 0 0 10.93 10.08 27.91 27.91 0 0 0 8.52 1.3 54.55 54.55 0 0 0 8.35-.54 41.88 41.88 0 0 0 8.2-2.47c6.2-2.5 11.65-8.37 16-13.27 5.23-5.94 15.21-7.25 21.82-11.57 1.17-.76 6.3-4.06 9.51-6.33 1.45-1 4.21-3.25 6.82-2.1s11.33 8.13 13.89 10c5.27 3.89 10.45 7.92 15.72 11.82 4.13 3.06 8.25 6.17 12.93 8.36a20.88 20.88 0 0 0 9.18 2.28 26 26 0 0 0 9.94-2.24 48.11 48.11 0 0 1 20.81-4.32 11.06 11.06 0 0 0 1.63-.06c1.37-.17 2.73-.38 4.1-.59s2.72-.45 4.09-.65c2.11-.29 4.23-.49 6.33-.85 4.39-.75 8.74-1.9 13.16-2.3 8.42-.75 16.28-3.56 24.69-4 1.1 0 2.42 0 3 1a3.81 3.81 0 0 1 .25 2.01c.09 5 6.12 14.12 10.5 16.46 12.31 6.59 25 7 37.41-.42 3.86-2.3 8.47-10.1 11.51-13.39 3.29-3.59 7.84-4 12.49-5.64 3.48-1.22 9.21-4.33 16.06-1.71a87 87 0 0 0 15 4.6 18.25 18.25 0 0 0 15.34-3.7 14 14 0 0 1 4.14-2.31 35 35 0 0 0 6.12-2.51c7.47-4 15-7.8 22.49-11.81a165 165 0 0 1 17.34-8.57l22.89-9a92.6 92.6 0 0 1 19-5.28c3.26-.55 6.51-1 9.8-1.35 4-.4 8-1.31 12.1-1.12a4.85 4.85 0 0 0 3.26-1.12c1.7-1.33 3.21-2.84 4.87-4.21 6.82-5.63 20.73 1.13 27.89 3.8a289 289 0 0 1 28.44 12.84c3.25 1.63 6.72 2.81 9.94 4.48 4.31 2.26 11.71 4.18 16.51 3.82 3.18-.24 6.44-1.82 7.82-4.69 1.05-2.21.85-4.79.55-7.21-.88-6.93-3-13.58-3.81-20.5-.36-3-.29-6-.72-9a96.57 96.57 0 0 0 -3.77-15.73c-3.2-9.91-6.48-19.79-9.67-29.7-1.92-6-3.84-11.94-5.57-17.94-1.56-5.4-2.77-10.9-4.35-16.29-1.11-3.77-2.56-7.44-3.94-11.14-2-5.3-3.67-10.72-6-15.84-5.27-11.58-10.92-23-16.1-34.61-3-6.85-4.3-14-5.12-21.31-.39-3.63-.46-7.28-.68-10.93a3.6 3.6 0 0 0 0-.65l-1.91-13.27c-.26-1.79-.45-3.6-.79-5.37a57.71 57.71 0 0 1 -1.19-9.16c-.07-2.34.48-4.69-.48-7-.6-1.44 5.11-4.57 6.39-8.8s.33-5.48-.1-8.55c-.23-1.68-.27-3 .23-3.35 5.19-3.17 10.47-7.6 9.78-13.45-.47-3.86-3.62-7.41-2.7-11.19.51-2.13 2.21-3.73 3.37-5.59 2.21-3.57 2.1-8.76-1-11.51-.92-.81-2.14-1.57-2.21-2.8a4.29 4.29 0 0 1 1.31-2.55c3.22-4 2.88-10.23-.08-14.32-1.38-1.88-4.15-2.87-4.78-4.94s.72-7.35.67-9.8a45.35 45.35 0 0 1 1.78-12c1.48-5.76 3.26-11.47 3.52-17.48a44.39 44.39 0 0 1 .77-5.38c.58-3.35 1.43-6.67 1.71-10s.92-6.74 1.32-10.12a99.88 99.88 0 0 1 3-14c4.32-16.31 5-35.7 5-52.55.86-13 .09-26.27 1.71-39.11.48-3.83.06-7.67.57-11.58.56-4.33.9-8.7 1.35-13.06.34-3.29.7-6.56 1.36-9.81 1-4.78 1.66-9.64 2.87-14.36 1.79-7.22 3.79-14.22 5.99-21.22 4.79-14.88 9.84-29.67 14.7-44.53 2.41-7.36 4.56-14.81 7-22.16a131 131 0 0 0 4.6-16.87c.85-4.58 2-9.1 3.1-13.64 1.1-4.75 2.18-9.51 3.33-14.26 1.25-5.15 2.45-10.33 3.9-15.43 1.12-3.93 2.06-8 4.51-11.41 1.94-2.7-.95-6.35-3.78-6.46zm-638.65 390.17c1.1-3.08 6.31-1 7.53-.1 3.5 2.62 6.82 5.46 10.23 8.21q3.51 2.82 7 5.61c.86.66 1.67 1.32 2.52 2s6.07 4.11 7.41 5.49a3.24 3.24 0 0 1 .49 3.83c-.81 1.22-5.33 1.49-9.59-.11s-18-8.86-19.26-10.62c-2-2.77-4.29-5.23-5.86-8.31-.99-2.1-1.57-2.92-.47-6zm-7.32 17.79c2-3 8.62 4 9.68 4.92q4.3 3.63 8.58 7.28c2.13 1.81 4.26 3.62 6.31 5.54 3.7 3.41 14.56 12.17 15.14 12.62.75.59 1.57 1.28 1.1 2.43s-1.71 1.45-3.13 1.35c-2.37-.17-9.24-2.82-11.7-4a103.33 103.33 0 0 1 -16.26-10.34c-7.11-5.54-11.72-16.83-9.72-19.8zm.83 24.63a7 7 0 0 1 4.78 1.47c3.7 2.86 7.74 5.24 11.2 8.46a58.37 58.37 0 0 0 10 7.45 49.13 49.13 0 0 1 8.85 7c.4.38.79 1.35.59 1.65a4.67 4.67 0 0 1 -2.07 1.79 8.28 8.28 0 0 1 -2.76.07 18.59 18.59 0 0 1 -13.19-4.92c-3.1-2.66-6.68-4.51-10-6.79a25.76 25.76 0 0 1 -8-8.12 10.16 10.16 0 0 1 -1.66-6c.16-1.59.61-1.99 2.26-2.06zm-3.13 22.17c.93-2.13 1.74-2.67 4.58-2.62 2.17-.33 12.5 9.43 16.62 14.85a38.83 38.83 0 0 1 6.21 10.6c.58 1.37-.21 2-1 2.72s-4.16-1.1-5.11-1.56a50.23 50.23 0 0 1 -11-7.46 48.17 48.17 0 0 1 -9.34-12.42c-.66-1.25-1.67-2.47-.94-4.11zm72.82 256.6a3.53 3.53 0 0 0 -.65 0c-3.55-.53-4.81-2-4.86-5.69 0-1.18-.37-19.31-.64-25.53-.21-4.63.75-9.17 1.43-13.69.72-4.81 2-9.53 3.13-14.27 1-4 2.18-8.07 4.82-11.39 5.57-7 11.58-12.08 20.89-9.91a13.59 13.59 0 0 1 5.63 2.31 12.4 12.4 0 0 1 3.41 5.73c2.28 6.64 2.58 13.21 3 20.15a47.21 47.21 0 0 1 -1.27 11.41c-.73 3.19-.93 6.49-1.4 9.74-.07.51-.34 1-.43 1.52a35.15 35.15 0 0 0 -.9 6.62c0 4.93-.51 9.87-.54 14.8a31.59 31.59 0 0 0 .94 6.91c.81 3.6-.28 5.81-3.74 6.9a1.89 1.89 0 0 1 -1.15-.12 54.73 54.73 0 0 0 -13.25-2.93c-2.94-.28-5.82-1-8.73-1.53-1.9-.37-3.74-.71-5.64-1zm31.89 39.85c-4.64 2.48-10.18 3-15.26 4-5.77 1.11-9.32-7.15-11.08-11.51-.36-.88-.78-1.73-1.12-2.62a1.52 1.52 0 0 1 1-2.28 15.07 15.07 0 0 1 3.72-.68c2.9-.1 5.82 0 8.73 0a62.5 62.5 0 0 1 8.1.07 97.19 97.19 0 0 0 10.23.63c7.41.15-2 11.19-4.35 12.44zm223.51 9.49c-8.52.71-10.46-4.12-11.47-5.42s-1.9-2.82-2.83-4.24a5.67 5.67 0 0 1 -1.07-3.61c.17-2.35 1.18-3.47 3.58-3.55s4.54 0 6.82 0 4.39.32 6.48-.08c2.66-.51 9.55-1.18 10.34-1.49 2.3-.92 4.57.23 4.57 2.69.07 7.07.01 14.33-16.4 15.7zm18.49-64.63v2c-.07 4.15-.31 8.29-.78 12.41-.49 4.35-2.55 6.86-4.12 10.7-2.63 6.42-20 4.46-25.3 3.88-3.64-.4-7.67-1.38-9.59-4.51a13.39 13.39 0 0 1 -1.44-5.26c-1.9-14.81-3.71-30.44 2.13-44.18a58.34 58.34 0 0 1 7.9-12.94c2.77-3.57 6.39-7.22 10.91-7.22 5.87 0 8.58 5.12 12.26 8.65 8.16 7.8 8.22 25.21 8.06 36.52zm230.46-255c-1.45 1.48-4.81 5.68-11.83 5.73s-5.51 0-8.26 0c0 0-13.59.4-17.78.79s-7.48-1.93-7.77-2.56c-.51-1.06.43-2.74 1.75-3.09 2.59-.69 5.19-1.36 7.82-1.9a83.43 83.43 0 0 1 10-1.76c4.11-.32 8.06-1.4 12.11-2 3.05-.42 6-1.32 9.07-1.67a8.6 8.6 0 0 1 4.35.85c2.15 1 2.41 3.65.56 5.54zm-11.73 21.52a9.31 9.31 0 0 1 -6.09 1.87c-1.7-.13-3.46 0-5.19 0a55.84 55.84 0 0 1 -7.84-1 24 24 0 0 1 -5.48-1.28c-1.37-.54-2.86-.78-4.23-1.31a2 2 0 0 1 -.92-1.31 3.22 3.22 0 0 1 2.49-4.16 41 41 0 0 1 9.46-1.51 83.77 83.77 0 0 1 16.06.8c1.53.22 2.56 1.59 3.15 3a3.55 3.55 0 0 1 -1.41 4.87zm-24-39.36a74.81 74.81 0 0 1 8.73-3.1c2.3-.66 4.73-.88 7.1-1.32 3.46-.64 16.32-3.69 18.76-3s2 3.84 1.16 6c-1.47 3.77-6.22 6.39-12.94 7s-6.44.56-9.68 1c-7.25 1-14.49 2.26-21.68 2a4 4 0 0 1 -2-1.11 1.22 1.22 0 0 1 -.26-1.71 1.8 1.8 0 0 1 .19-.2 23.7 23.7 0 0 1 2.35-1.89c2.48-1.95 5.54-2.47 8.32-3.66zm-.62-14.77c.9-1.85 9.48-7.08 17.33-9.21s13.24-5.12 17.48-2.76c1.28.71 1.34 1.37.85 3-3.41 10.55-22 11.39-31.46 12.64a8.78 8.78 0 0 1 -2.17.09 2.79 2.79 0 0 1 -.9-.24 2.38 2.38 0 0 1 -1.13-3.48zm95.9-389.77a30.87 30.87 0 0 0 -1.1 6.26 49.87 49.87 0 0 1 -1.28 7.52q-1.5 7-3.16 14c-1.17 4.95-2.3 9.92-3.68 14.82-2.65 9.38-5.32 18.8-8.27 28.11-2.62 8.31-5.64 16.5-8.41 24.76q-3.84 11.5-7.57 23c-3.06 9.4-6.05 18.83-9.15 28.22-1.2 3.64-2.76 7.15-3.46 10.95-.46 2.52-.85 5-1.14 7.58-.59 4.94-.23 9.91-.68 14.82-.25 2.56-.19 5.17-.59 7.7-1.12 7-.06 14-.69 21-2.33 25.76-3.59 51.61-7.06 77.29-.35 2.63-.82 5.25-1.18 7.88-.3 2.13-.55 4.23-.74 6.36-.26 2.76-.38 5.54-.69 8.3-.34 3-.85 5.91-1.28 8.86-.22 1.58-.47 3.16-.65 4.75-.72 6.13-2.08 12.14-3.16 18.21-1.14 6.39-2.4 12.72-4 19a28.38 28.38 0 0 1 -1.51 4.85c-1.28 2.77-5.29 8.1-8.29 9.16-14.58 5.2-23.12 12.39-25 15.59-1.71 2.86-2 4.14-1.46 6.46.3 1.28 2.6 2.14 2.34 3.41-.23 1.07-1.49.94-2.17 1.24-3.36 1.5-6.58 3.45-8.58 6.49-2.41 3.66-2.29 9.3 1.33 11.77a10.6 10.6 0 0 0 -1.22 14.46 15.2 15.2 0 0 1 2.64 3.21c1.15 2.45-.12 5.37.43 8 .81 4.13 5.43 6.16 9.49 7.25 6.82 1.82 20-.93 22.57 7.75a26.13 26.13 0 0 1 .75 6c.58 13.14 3.67 26.54 3.67 39.64.45 3.94.91 7.89 1.7 11.78 3.09 15.23 12.65 27.18 18.94 41.05 1.38 3.07 2.38 6.26 4.12 9.24s2.48 6.64 3.72 10c1.28 3.49 2.75 6.93 4 10.44a58.82 58.82 0 0 1 2.3 7.89 207.71 207.71 0 0 0 6 21.81q3.86 12.32 7.79 24.6c1.58 5 3.29 9.88 4.74 14.87 3.41 11.94 2.78 24.41 6.78 36.36.19.56.33 1.31-.16 1.66a1.41 1.41 0 0 1 -1.17.06c-9.87-2.47-18.26-8-27.58-11.77-11.25-4.58-22.38-9.44-34-13-2.74-.82-5.48-2-8.28-2.21-4.26-.34-8.61-.64-12.79.73a7.86 7.86 0 0 0 -2.36 1.59c-4.26 3.61-6.5 5.3-12.41 5.54-15.86.63-30.41 5.74-45.72 9.11-4.77 1-9.49 2.28-14.31 3.11-4.42.75-8.8 1.55-13.28 1.95-20.39 1.83-41.25 4.61-61.49 7.84-5.29.85-24.55 4.46-25.41 4.94-2.33 1.3.46-12.5.74-13.56 1.21-4.55 2.82-9.43 3.7-13.79 1.11-5.5 1-11.16.69-16.75a14.2 14.2 0 0 0 -1.43-4.87 30.59 30.59 0 0 0 -6.22-9 158.94 158.94 0 0 0 -21.36-18.22 33 33 0 0 0 -6-3.49c-6.07-2.59-11.84-1.76-17.37 1.87a34.42 34.42 0 0 0 -11.41 12c-.78 1.38-1.79 2.63-2.61 4-3 4.94-4.22 10.62-6.35 15.92a85.14 85.14 0 0 0 -3.2 11.58 10.06 10.06 0 0 0 -.06 2.26c0 9.15 2.37 17.79 2.56 26.81 0 1.65-.16 3.51-1.44 4.56a5.78 5.78 0 0 1 -3.35 1c-9 .68-18-.12-27-.31a103.12 103.12 0 0 1 -11.73-1.2c-3.89-.54-7.75-1.4-11.65-1.86-6.88-.82-13.6-2.34-20.34-3.83-3.94-.89-8-1.33-11.94-2.06a68 68 0 0 1 -19.42-7.15c-19.57-10.39-40.76-11.49-62.69-11.7-1.53 0-1.92-.79-1.62-2.35 1.75-9 8.89-18.63 8.22-27.74a19.83 19.83 0 0 0 -.91-5.31 73.35 73.35 0 0 0 -11.25-20.48 96.54 96.54 0 0 0 -6.5-7.21 26.71 26.71 0 0 0 -16.69-8.18c-6.52-.74-13.09-.37-19 3.25-3.56 2.19-7.25 4.18-10.38 7a20.92 20.92 0 0 0 -6 10.45 95.55 95.55 0 0 0 -2.78 16c-.42 4.9-1 9.81-1.39 14.69-.11 1.39.32 2.63.22 4-.66 8.58-28.83-1.28-34.49-2.44-3.22-.66-9.13-3.94-15.56-1.78s-2.24 6.94-13.19 11.21c-6.24 2.43-12.36 5.11-18.56 7.67a28.56 28.56 0 0 0 -5.61 2.56 15.7 15.7 0 0 1 -5.31 1.92c-1.83.43-2.51-.17-2.8-2.06-2.46-16.1.84-33.5 2-49.74.15-2.14.46-4.27.63-6.4a44.77 44.77 0 0 1 .53-6.39c.8-3.63.91-7.4 1.45-11.08.82-5.58 1.67-11.16 2.7-16.7.73-3.87 1.28-7.75 1.91-11.63.87-5.46 2.22-10.83 3.43-16.23 2.5-11.16 7.14-21.58 11.37-32.14s8.27-21 12.46-31.5c1.37-3.41 2.69-6.82 4-10.26s2.84-7 3.21-10.89c.2-2.13 1.16-4.24 1.28-6.52 0-.92 1.36-1.8 2.19-2.61.13-.13.76.17 1.12.35 2.17 1.07 4.31 2.24 6.52 3.23a23.51 23.51 0 0 0 8.6 2.17c4.86.23 8.19-3.26 8.74-8.36.3-2.78-.71-5.26-1.58-7.75-.33-.93-.39-1.3.61-1.62a39.21 39.21 0 0 1 5.07-1.7 3.44 3.44 0 0 0 2.2-1.52c2.93-3.41 3.16-7.43 2.65-11.51-.15-1.21-1.45-2.28-2.24-3.41-.47-.68-1-1.34-1.47-2 .77.06 1.55.1 2.32.18 4 .45 5.57 1.42 7.9-2.06a7.8 7.8 0 0 0 -.12-8.63c-1.81-2.38-15.2-14.68-15.52-15.23a1.51 1.51 0 0 1 -.09-1.34 1.45 1.45 0 0 1 1.31-.45c3.83 1.34 7.82 1.19 11.76 1a12.19 12.19 0 0 0 4.87-1.35 6.47 6.47 0 0 0 2.7-8.36 13.5 13.5 0 0 0 -2.43-3.75 128.15 128.15 0 0 0 -17.1-15.4c-4.69-3.49-9-7.56-13.59-11.23a1.72 1.72 0 0 1 -.66-.82c-.17-.64.43-1.21.85-1.7 3.1-3.41.8-10.28.09-14.31s-.27-8-.67-11.9c-.55-5.44-.85-10.91-1.38-16.34-.5-5-.09-9.92-.55-14.84-1.6-18.18-2.68-36.23-4.65-54.4-.11-1 .05-2.35 1-2.48a2 2 0 0 1 1.36.57c8.19 6.35 17.15 12.87 24.36 20.34 2.21 2.29 5.09 2.56 7.76 3.32 1.66.48 4.11-1.7 4.5-3.44.75-3.33-7.24-12-8.75-15.35-.53-1.16-5.65-11.15-1.5-9.88 8.5 2.72 18.53 2.45 27.34 4 4.35.76 11.31 4 15.51 3.34a22.6 22.6 0 0 0 4.84-1.42c1.54-.65 2.23-3.61 1.23-5.12a10.15 10.15 0 0 0 -2.14-2.2c-2.82-2.21-7.59-9.23-6.19-12.29s.85-2.8 2.92-6.29-.49-8.1 1.19-12.15 1.48-5.23 1.12-8.79-5-6.61-8.06-11.12c-3.69-5.41-7.5-10.74-11-16.26-2.42-3.79-4.37-7.88-6.66-11.75-4.09-6.9-8.75-13.5-11.82-20.95-3.87-9.38-9.58-17.69-14.69-26.35a37.61 37.61 0 0 1 -4-11.38c-1.7-8 .37-15.35 3.47-22.38a106.11 106.11 0 0 0 7.73-24.93c.82-4.79 2.18-9.5 3.45-14.21a103.67 103.67 0 0 0 3-14.33 92.1 92.1 0 0 1 3.29-15.67 106.13 106.13 0 0 0 2.49-12.49c.8-4.49 1.71-9 2.82-13.4a101.29 101.29 0 0 0 2.42-12.18c1.27-10.54 6.29-20.11 7.45-30.58.71-6.48 1.62-12.85 2.27-19.29a3.79 3.79 0 0 1 4.75-3.49c3.33.65 6.45 2 9.7 2.85 6.18 1.7 11.54 5.35 17.61 7.32q7.57 2.46 15.14 5c2.52.85 5.05 1.67 7.55 2.59 5.12 1.86 10.3 3.36 15.53 4.8 6 1.67 11.91 3.94 17.91 5.82 3.83 1.21 7.85 2 11.62 3.32 5.12 1.85 10.11 4 15.07 6.23s10.23 2.7 15.63 2.73c5.77 0 11.11-1.86 16.65-2.89 4.38-.81 8.76-1.6 13.13-2.48s8.52-1.76 12.79-2.78c4.64-1.12 9.22-2.56 13.88-3.56 3.33-.72 6.76-.9 10.12-1.46a63.68 63.68 0 0 0 9.95-2.08c1.57-.53 3.17-1 4.74-1.5 4.84-1.62 15.26 4.26 20 5.85 6.87 2.3 14.17 4.77 20.78 7 8.87 3 17.86 5.54 27 7.67 10.23 2.37 20.46 4.75 30.74 7 6.64 1.47 13.33 2.68 20 4.07 4.26.88 8.58 1.47 12.92 2a106.56 106.56 0 0 1 10.66 2.06c6 1.36 12 2.7 18.06 3.83a248 248 0 0 1 26.71 6c13.15 3.95 26.53 3.59 40.22 4.12 36.09 1.41 71.93 2.42 107.68-1.08 1.16-.12 2.3-.34 3.45-.51a3.92 3.92 0 0 1 1.28-.11 65.58 65.58 0 0 0 9.77 1.34c2.7.14 3.94 2.27 3.21 5z"></path>
        <path d="m770.25 719a132.45 132.45 0 0 0 -11.25-11.68c-2.46-2.39-5.35-4.33-7.74-6.77-3.06-3.11-7-3.59-10.93-4.52h-1.28c-2.27.08-3.41 1.75-2.22 3.67s9.87 8.06 12.08 10.54c3.64 4.08 7.54 7.94 11.41 11.81 1.09 1.1 6.59 8.19 8 10.08q15.25 21 30.37 42c3.81 5.3 7.78 10.52 10.56 16.48s5.6 11.76 8.08 17.77a6.79 6.79 0 0 0 3.41 4.06 3 3 0 0 0 4.13-1.14 6.14 6.14 0 0 0 .74-2.75 17.24 17.24 0 0 0 -.61-3.77 49.88 49.88 0 0 0 -2-7.31c-1.46-3.52-3.41-6.82-5-10.3a79.11 79.11 0 0 0 -7.36-12.82q-11.19-15.93-22.59-31.7c-5.81-7.98-11.64-15.97-17.8-23.65z"></path>
        <path d="m798.32 493.29c-2.13.39-2.71 1.73-3.09 3.5-.43 2-.1 4.06-.64 6-3.05 11.09-2.84 23.84-4.5 35.29-1.22 8.39-2.37 16.86-2.16 25.36.06 2.7 0 4.74.19 6.75a5 5 0 0 0 3.21 4.47 4.05 4.05 0 0 0 4.75-1.16c2-2.56 2.13-5.71 2.3-8.77 0-1.14-.53-2.31-.46-3.44 1.09-17.26 2.47-34.43 5.11-51.57.52-3.37.17-6.9.86-10.23.5-2.42-.58-3.86-1.86-5.28a3.9 3.9 0 0 0 -3.71-.92z"></path>
        <path d="m752.72 685.83a12.28 12.28 0 0 0 -3.12-1.44 4 4 0 0 0 -4.33 2.06 4.49 4.49 0 0 0 .6 4.2q4.38 3.74 8.74 7.5c.42.35.78.74 1.2 1.08 4.26 3.41 8.52 6.82 12.79 10.29 2.25 1.83 4.45 3.73 6.67 5.59 3.33 2.81 6.75 5.52 9 9.38a7.16 7.16 0 0 0 2.13 2 4.46 4.46 0 0 0 4.6.51 3.83 3.83 0 0 0 2.25-4.19 9.67 9.67 0 0 0 -2.09-6.33 35.35 35.35 0 0 0 -9-8.69c-5.93-4.23-11.94-8.33-17.9-12.54-2.1-1.48-4.38-2.84-6-4.74a23.72 23.72 0 0 0 -5.54-4.68z"></path>
        <path d="m424.77 597c3.41-.06 6.78-.68 10.17-1a.59.59 0 0 1 .3 1.14 12.17 12.17 0 0 1 -2.55 1.51c-1.86.6-3.44 2-5.17 3a17.59 17.59 0 0 0 -7.64 7.82 7.16 7.16 0 0 0 3.1 10.23c4.08 2 7.5 3.16 17.67 4.18 7.16.72 43.4 1.18 46.52.72 3.79-.57 7.62-1 11.44-1.33a111.53 111.53 0 0 0 12.25-2.11 48.89 48.89 0 0 0 8.53-2.62c3.84-1.57 5.51-4.63 4.76-8.53-.49-2.5-2.18-4.42-4.06-6.06a69.73 69.73 0 0 0 -5.8-4.64c-5.35-3.71-10.14-7.75-15.28-11.64a4.75 4.75 0 0 0 -3.68-1.19c-2.06.43-3.11 2.95-2.62 5s2.05 3.64 3.62 5c3.25 2.88 6.93 5.19 10.33 7.86 1.51 1.18 3.06 2.31 4.49 3.58a9.7 9.7 0 0 1 1.65 2.32 1.34 1.34 0 0 1 0 1.14c-2.24 3.73-22.68 4.58-28.13 5.17-4.69.51-9.45.54-14.17.71-2.06.08-12.24.11-15.27 0s-22.23-2.12-23.23-2.49c-2.74-1-3.11-2.83-1.18-5 7.51-8.61 40-18.33 40.71-18.9 1.81-1.4 2.76-4.29 1.89-6.08s-3-2.53-5.46-2a7 7 0 0 1 -1.59.16c-1.23 0-1.56-.42-1.21-1.56 2.26-7.68 3.77-15.27-.64-22.63a30.3 30.3 0 0 1 -2-3.61c-.52-1.27.08-1.89 1.49-2a22.36 22.36 0 0 0 4.06-.68c1.85-.56 3.89-3.29 3.41-4.57-.75-2-1.47-4-4-4.53-3-.58-6-1.62-9-1.86-4.49-.36-9 .18-13.52-.72-2.19-.42-4.47-.48-6.61-1.07-6.24-1.7-12.47-3.49-18.62-5.49a113.74 113.74 0 0 1 -24.69-11.26c-3.46-2.14-6.63-4.76-9.89-7.21-1.8-1.35-3.35-3.14-5.3-4.15a24.59 24.59 0 0 1 -6.35-4.84 17.35 17.35 0 0 0 -2.76-2.13c-2.71-1.81-5-.85-5.08 2.34-.15 4.48 1.17 8.42 5.11 11.1a10 10 0 0 1 1.28.93c1.19 1.2 1 2.45-.68 2.89-9.84 2.6-15.73 3.49-23.15 11.32a28.12 28.12 0 0 0 -6.53 12 15.57 15.57 0 0 0 -.64 6c.79 6 2.93 23.39 32.13 37.88 19.16 9.52 31.75 8.26 51.59 7.9zm-34.2-9.62c-15.35-3.58-35.29-20.46-37.66-25.92a19.12 19.12 0 0 1 -.72-13.8c4.15-12.9 19.54-17.57 31.31-17.28a5.09 5.09 0 0 1 4.6 3.35 5.8 5.8 0 0 1 -.33 2c-.74.6-1.59 1.08-2.3 1.71-4 3.58-5.71 8.31-6.85 13.38-1.86 8.23.79 15.24 6 21.39 3 3.51 7.18 5.39 11.51 6.76a26.52 26.52 0 0 0 11.51.63c3.41-.45 8.95-2.37 11.51-4.82 5.12-5 9.62-11.25 9.91-15.85s-2.36-10.11 1.62-9.42 9 1.25 12 1.53c6.13.57 11.51 7.3 13.22 13.21 1.32 4.69 1 9.17-2 13.14a18.86 18.86 0 0 1 -7.93 5.93 54.79 54.79 0 0 1 -16.32 4.17c-2.23.23-23.77 3.45-39.12-.14z"></path>
        <path d="m615.42 511.57a6.7 6.7 0 0 0 -2.3 1c-1.79 1.13-3.48 2.43-5.3 3.5q-7.34 4.26-14.75 8.4a91.88 91.88 0 0 1 -23.82 9c-3.72.85-7.51 1.5-11.29 2-3 .43-6 .22-9 .81a48.25 48.25 0 0 1 -7.38.55c-2.46.12-4.89.46-7.35.62-6.39.43-12.95 1.81-19.35 1.12-4-.42-5.89-2-9.56 1.16-1.67 1.42-1.71 2.48-.86 4.55.75 1.81 2.23 2.4 3.87 3 2.52.92 2.9 2.82 1 4.64-8.16 7.7-11.24 19.69-3.66 29.62a30.71 30.71 0 0 0 12.33 9.25 64 64 0 0 0 11.51 3.67c6.43 1.52 12.86 3.17 19.47 2.83a72.29 72.29 0 0 0 14.1-1.29 62.69 62.69 0 0 0 17.67-5.19 130 130 0 0 0 14.92-8.81 39.93 39.93 0 0 0 13-13.71c7.81-14 7-25.2-6-35.17-.63-.49-.75-1.19 0-1.59 2.56-1.46 4.43-4 7.57-4.56a3.54 3.54 0 0 0 1.68-.9c2.72-2.43 5.42-4.89 8.06-7.41a3 3 0 0 0 1-1.9c-.11-3.27-1.78-5.85-5.56-5.19zm-11.29 32.48c1 1.45.77 3.41.38 5.14-2.19 9.69-7.18 19.18-15.66 24.69-7.37 4.8-15.05 8.92-23.6 11.22-3.29.88-6.67 1.25-10 1.87-3.12.58-6.2.5-10.33.6-7.47.34-15.53-1.61-23.33-4.69a27 27 0 0 1 -6-3.61c-5.77-4.33-5.57-11.08-1.55-16.17a24.91 24.91 0 0 1 8.26-7.1 4.47 4.47 0 0 0 1.21-.91c3.14-3.3 5.12-5.93 10.08-6.19a2.79 2.79 0 0 1 1.34.15 2.26 2.26 0 0 1 1.07 1.19c1.65 3.54-1.41 7.54-1.45 11.15a17.81 17.81 0 0 0 3.53 10.28 18.53 18.53 0 0 0 10.69 6.77c13.07 3.22 24.41-5.06 29.34-16.76 2.5-5.92-.24-10.75-2.85-16.17-.55-1.14-.12-1.68.68-2 1.24-.56 2.56-.93 3.84-1.39 3.07-1.11 7.85-3 11-3.34 3.55-.43 6.85 1.7 10.34 3.26a6.65 6.65 0 0 1 3.01 2.01z"></path>
        <path d="m545.19 627.38c-8.09 3.83-15.29 8.62-23.9 11.5-8.91 3-36.15 8.75-61.47 7.19s-39.9-5-46.58-7.54c-1.71-.64-14.81-7.49-17-2.13s16.42 12 20.95 13c11.48 2.56 22.81 5.54 34.6 6.22 8.12.46 38.27.68 56.42-3.08 25.7-5.32 37.72-15.77 39.39-16.89 3.38-2.27 3.23-5.21.53-7.67a2.47 2.47 0 0 0 -2.94-.6z"></path>
        <path d="m497 552.17a3.78 3.78 0 0 0 1.5-2.62 29.34 29.34 0 0 0 0-6.82c-.33-7.8 3.84-25 4.12-25.57 1.24-2.32 1.65-6.85-2.69-6.86s-5.26 6.66-5.46 7.13c-2.87 6.47-2.69 14.92-3.62 21.89a34.28 34.28 0 0 0 -.36 5c.05 2.64.63 5.15 2.48 6.94 1.12 1.01 2.81 1.67 4.03.91z"></path>
        <path d="m479.35 551.74c1.84.8 4.4-.09 4.87-2 .3-1.22-.23-2.47-.51-3.69-.71-3 .07-6.17.68-9.22a79.66 79.66 0 0 0 1.49-14.2c0-1.42 0-2.84-.05-4.26-.09-2.35-.64-5.19-2.85-6a4.09 4.09 0 0 0 -4.65 2c-1.86 3.21-.39 7.88-.42 11.38a114.13 114.13 0 0 1 -1.35 15.25 20.41 20.41 0 0 0 -.38 6 6 6 0 0 0 3.17 4.74z"></path>
    </g>
</svg>