<svg xmlns="http://www.w3.org/2000/svg" viewBox="0 0 1080 1080">
    <g fill="#0c5156">
        <path d="m530.08 759.59c6-.15 10.46-.32 14.9-.38a193.42 193.42 0 0 0 21.37-1.64 62.28 62.28 0 0 1 15.07 0 91.4 91.4 0 0 0 22 .1 16.15 16.15 0 0 1 5.19.18 28.35 28.35 0 0 0 10.39 0 48.81 48.81 0 0 1 6.93-.56c3.48-.09 7-.05 10.45 0a62.48 62.48 0 0 0 10.41-.74 47.4 47.4 0 0 1 7.53-.4q15.39-.07 30.79 0a59.39 59.39 0 0 0 10.4-.74 46.08 46.08 0 0 1 7-.41c7.93-.12 15.86-.18 23.8-.29 1.35 0 2.71-.12 4.06-.25a19.31 19.31 0 0 1 5.78.12 19.39 19.39 0 0 0 6.92-.14c3.25-.56 6.51-1 9.77-1.46a29.12 29.12 0 0 1 7.52-.08 8.76 8.76 0 0 0 3.45.08c3.06-1 6.11-.73 9.2-.51a13.34 13.34 0 0 0 3.45-.33 42.12 42.12 0 0 1 8.68-.66h9.29a58.53 58.53 0 0 0 8.67-.64 64.53 64.53 0 0 1 8.1-.51 82.3 82.3 0 0 0 12.73-.8 44.72 44.72 0 0 1 8.11-.35 48 48 0 0 0 11.52-1.12 47.56 47.56 0 0 1 11.44-1.2c5.91.08 6.77-1 8.48-6.53 1.37-4.47 1.8-9.11 2.57-13.68 1.12-6.67 2.12-13.38 3.14-20.07a37.54 37.54 0 0 0 .61-5.18 53.24 53.24 0 0 1 2.23-13.73 37.25 37.25 0 0 0 1.38-8 42.71 42.71 0 0 1 .87-5.72c.45-2.28 1.12-4.51 1.48-6.8a9.75 9.75 0 0 1 7.05-8.39 59.94 59.94 0 0 1 7.23-2.12c3.14-.59 5.67.88 7.6 3.27a4.86 4.86 0 0 1 1 2.66 32.88 32.88 0 0 1 -.14 6.35c-1 7.27-2.27 14.54-3.35 21.81-.72 4.79-1.42 9.57-1.92 14.38a83 83 0 0 1 -1.38 8.59c-.8 3.79-1.42 7.6-2.06 11.42-.39 2.29-.78 4.59-1 6.9a67.59 67.59 0 0 0 -.15 7.53 11.05 11.05 0 0 0 .83 3.35 3.59 3.59 0 0 0 3 2.48 26.47 26.47 0 0 0 5.19.12 47.42 47.42 0 0 1 6.95 0 165.47 165.47 0 0 0 20.89-.06c3.27-.23 6.55-.48 9.83-.66a15.52 15.52 0 0 1 2.89.15c2.5.29 5 .6 7.48 1a10.83 10.83 0 0 1 2.24.64 2.24 2.24 0 0 1 1.06 2.94 2.4 2.4 0 0 1 -.28.5c-2.8 2.47-3.72 5.81-4.32 9.29a29 29 0 0 1 -2.34 7.76 5.91 5.91 0 0 0 -.21 4.52c.71 2.24 1.41 4.43 2.16 6.63a30.06 30.06 0 0 1 1.68 9.1 37.26 37.26 0 0 0 1.72 10.27 34.12 34.12 0 0 1 1.45 9.73 56 56 0 0 0 2 13.18 85 85 0 0 1 1.87 9.08c.76 5.76 1.78 11.48 2 17.29 0 1.35.31 2.69.42 4 .13 1.54.29 3.08.28 4.62a33.37 33.37 0 0 0 2.17 13.08 14.37 14.37 0 0 1 .85 6.81c-.33 4.23-1.06 8.42-.85 12.72a9.8 9.8 0 0 1 -2.84 6.84 7 7 0 0 1 -5.71 2.41c-3.48-.19-6.94-.52-10.41-.81a16.68 16.68 0 0 1 -1.72-.29c-3.13-.6-5.31-2.28-6-5.52-.87-4.18-1.78-8.34-2.48-12.53a14.26 14.26 0 0 1 .17-4.61 33.12 33.12 0 0 0 .19-8.67c-.51-5.39-.72-10.81-1.59-16.17a13 13 0 0 1 .17-4 17.41 17.41 0 0 0 -.15-5.76c-1.5-8.39-1.92-16.92-3.59-25.28a9.94 9.94 0 0 1 -.21-2.31c.18-4.69-.87-9.24-1.36-13.86a6 6 0 0 0 -.17-1.11c-1.77-5.6-2.08-11.42-3.35-17.07a51 51 0 0 0 -2.08-6.63 5.12 5.12 0 0 0 -4.55-3.14 11.89 11.89 0 0 0 -2.31 0c-2.12.17-4.26.27-6.36.6-5.54.87-11.18.87-16.68 2.09-3.87.87-4.78 1.94-5 5.94-.09 1.54 0 3.09-.08 4.64a34.87 34.87 0 0 1 -.3 5.21 59.44 59.44 0 0 0 -.87 11 18.36 18.36 0 0 1 -.27 4c-1 4.59-.87 9.24-.86 13.88a58.82 58.82 0 0 1 -.71 9.83 40.94 40.94 0 0 0 .09 13.88c.93 5.19.66 10.42.46 15.65a24 24 0 0 1 -1 5.11 12.37 12.37 0 0 0 -.09 5.74c.65 3.22 1.21 6.47 1.84 9.69a14.2 14.2 0 0 1 .05 5.77 27.36 27.36 0 0 0 -.3 8.66 37.65 37.65 0 0 1 0 4.63c0 1.35-.1 2.71 0 4a3.48 3.48 0 0 0 2.24 3.16 13.27 13.27 0 0 1 5.69 3.84 7.56 7.56 0 0 0 2.52 1.32c.85.4 1.81.68 2.66 1.12a2.4 2.4 0 0 1 .36 3.66 15.16 15.16 0 0 1 -2.83 2 10.74 10.74 0 0 0 -3.79 2.6c-2.07 2.6-5 3.59-8 4.36-1.49.38-3 .77-4.48 1.21a1.69 1.69 0 0 0 -.7 2 6.56 6.56 0 0 0 .91 1.47c1.19 1.26 2.4 2.53 3.7 3.67a5.77 5.77 0 0 1 2.2 4.53 3 3 0 0 0 1.87 2.71 9.83 9.83 0 0 1 1.87 1.34 2.39 2.39 0 0 1 -.05 3.17 8.55 8.55 0 0 1 -2.32 1.68c-4.12 1.73-8.32 3.17-12.9 3a12 12 0 0 0 -2.32.07c-5 .85-10.06 0-15.06-.24a29.57 29.57 0 0 1 -6.76-1.5 6 6 0 0 1 -3.47-2.93 2.06 2.06 0 0 1 .87-2.94c.72-.26 1.48-.44 2.24-.67 2.85-.87 3.12-1.11 2.8-4-.23-1.88.38-3.2 2.61-3.8a25.57 25.57 0 0 0 2.7-1 1.35 1.35 0 0 0 .12-2 7 7 0 0 0 -1.43-1c-1.82-.63-3.67-1.22-5.53-1.76-.92-.27-1.92-.32-2.83-.64-1.64-.55-3.25-1.22-4.84-1.92a5.58 5.58 0 0 1 -1.34-1.08 3.07 3.07 0 0 1 -.44-3.27 2.48 2.48 0 0 1 2.24-1.6 47.17 47.17 0 0 1 6.91.6 50.53 50.53 0 0 0 11 .6 14.62 14.62 0 0 0 2.28-.36 1.91 1.91 0 0 0 1.37-2.24 4.23 4.23 0 0 0 -3.57-3.35c-.77-.06-1.55 0-2.32 0a9 9 0 0 1 -2.87-.24c-2.91-1.15-6-1.44-9-2.1a5.69 5.69 0 0 1 -3.77-2.51 2 2 0 0 1 -.19-1.6 2.14 2.14 0 0 1 1.26-1c1.53-.48 3.06 0 4.59.19 6.55.91 13.13.56 19.7.31a2.75 2.75 0 0 0 1.06-.44.57.57 0 0 0 .29-.43c-.05-.35-.12-.86-.35-1a11.54 11.54 0 0 0 -2.66-1.06c-1.51-.36-3.08-.45-4.57-.84-3.25-.84-6.87-3.35-6.84-8.27 0-7-.63-13.94.76-20.85a23.77 23.77 0 0 0 .29-3.47c.26-6.15 1.22-12.3.6-18.51.81-6.75.56-13.53.59-20.31 0-2.55.22-5 1.68-7.23a6.22 6.22 0 0 0 .78-3.91q-.12-3.2-.14-6.39a30.61 30.61 0 0 1 .08-4.05c.94-7.49 1.93-15 2.91-22.44.05-.38.13-.76.19-1.12 1.16-8.39.3-8.91-3.29-15.4a4.1 4.1 0 0 0 -3.28-2.13 31.85 31.85 0 0 0 -10.4.37 31.41 31.41 0 0 1 -8.64.81 14.88 14.88 0 0 0 -5.13.7 25.8 25.8 0 0 1 -12.6 1 11.48 11.48 0 0 0 -5.18.22 13.51 13.51 0 0 1 -5.18.41 34.69 34.69 0 0 0 -6.36.32 121.38 121.38 0 0 0 -18.82 3.26 33.11 33.11 0 0 1 -8.07.81c-3.87 0-7.75-.08-11.62 0-2.7.07-5.39.36-8.09.56a21.35 21.35 0 0 1 -3.46.29c-4.86-.42-9.65.32-14.47.72a8.33 8.33 0 0 1 -1.73.18c-5-.7-10 .68-15 .56s-10.06 0-15.09 0h-.56c-5.21-.36-10.41-.83-15.62 0a2.62 2.62 0 0 1 -.56 0c-5.59-.68-11.18-.32-16.77-.36a73 73 0 0 0 -13.29 1 31.27 31.27 0 0 1 -9.26.39 51.78 51.78 0 0 0 -14.45.68 36.31 36.31 0 0 1 -12.69-.05 26.86 26.86 0 0 0 -9.83-.23 45.71 45.71 0 0 1 -12.14.11 29.23 29.23 0 0 0 -6.93.26c-2.86.42-5.77.56-8.66.82a19.85 19.85 0 0 0 -2.31.11c-4.79 1-9.64.73-14.47.76h-11.66c-1.35 0-2.71-.07-4.07 0-4.23.29-8.49 1.08-12.69.87s-8.5.37-12.75.37a5.88 5.88 0 0 0 -5.59 3.47c-.61 1.21-1.23 2.42-1.79 3.65a9.78 9.78 0 0 0 -.75 5.67c.91 6.15 1.33 12.3 2.61 18.38.56 2.8.32 5.78.37 8.67.1 6.38.13 12.77.23 19.16a28.54 28.54 0 0 0 .44 3.45 23.36 23.36 0 0 1 .42 2.87c.14 5 .68 10 1.18 15 .41 4 .51 8.1 1.22 12.12a17.43 17.43 0 0 1 .24 2.89 133 133 0 0 0 .93 16.21c.35 3.07.26 6.15.87 9.24a21.06 21.06 0 0 1 .34 4 72.17 72.17 0 0 0 .95 13.3 10.89 10.89 0 0 1 -2.19 9.31 6 6 0 0 0 -1.2 2 3.94 3.94 0 0 0 -.06 2.23 34.42 34.42 0 0 0 1.51 3.12 2.57 2.57 0 0 1 -1.14 3 8.91 8.91 0 0 1 -3.25 1.08 42 42 0 0 1 -7.52-.25 15.45 15.45 0 0 0 -7.39.64 26.63 26.63 0 0 1 -11.4 1.67 29.41 29.41 0 0 0 -3.48.18c-3.67.09-7.34.18-11 .23a9.94 9.94 0 0 1 -6.05-1.72 6.31 6.31 0 0 0 -5-1.12c-3.65.67-7.16-2.75-7.74-6.31a59.45 59.45 0 0 1 -1.22-11.52c.08-2.32 0-4.65 0-7a26.77 26.77 0 0 0 -.06-3.47c-.72-5.6-.92-11.19-1.58-16.78a71.83 71.83 0 0 1 -.67-9.83 55.05 55.05 0 0 0 -1.16-13.85 17.63 17.63 0 0 1 -.35-6.35 11.06 11.06 0 0 0 -.16-2.87 2.89 2.89 0 0 0 -3-2.24 6.28 6.28 0 0 0 -1.14.17c-4.29 1.49-8.74 1.57-13.2 1.55s-8.91 0-13.36 0h-3.44c-4.53 0-5.74 1-6.16 5.74a38.5 38.5 0 0 0 -.07 9.83 28.69 28.69 0 0 1 .18 4.63q0 7.83 0 15.66a29.8 29.8 0 0 1 -.21 4.63 51.16 51.16 0 0 0 -.44 8.11c0 3.27.38 6.57-.29 9.83a5.08 5.08 0 0 0 0 1.74c.78 5.45 0 10.78-1.2 16.09a2 2 0 0 0 1.56 2.29 1.89 1.89 0 0 0 .41 0c1.35 0 2.69-.05 4 0a1.19 1.19 0 0 1 .88.64 2.64 2.64 0 0 1 -.09 1.62 2.86 2.86 0 0 1 -1.23 1.18c-3.83 1.87-7.72 3.6-12.07 3.91a11.66 11.66 0 0 0 -2.87.43 19.87 19.87 0 0 1 -9.1 1.27 10 10 0 0 0 -2.85.48c-4.19.76-8.38 1.47-12.66.55a9.15 9.15 0 0 0 -3.46 0c-5.38 1-10.8.72-16.21.56a28.35 28.35 0 0 0 -3.45.14c-.3 0-.6.43-.82.73s.19 1.16.74 1.35a18.79 18.79 0 0 0 2.19.74c1.89.43 3.78.87 5.69 1.18 6.71 1.08 13.37 2.15 20.19 1.86a81.19 81.19 0 0 0 8.68-.67 57.44 57.44 0 0 1 6.94-.4 7.91 7.91 0 0 1 1.67.3 1.5 1.5 0 0 1 1.08 1.76 7.13 7.13 0 0 1 -.45 1.07c-.56 1.28.11 2.23 1.74 2s3.41-.7 5.13-1a18.21 18.21 0 0 1 2.86-.26 1.85 1.85 0 0 1 1 .55c.34.28.13 1.3-.34 1.54a14 14 0 0 1 -3.14 1.42c-5.49 1.11-10.81 3-16.46 3.42a20.65 20.65 0 0 1 -5.77 0 23.36 23.36 0 0 0 -7.51 0c-3.07.36-6.15.47-9.26.7-1.54.11-3.11.1-4.63.36a14 14 0 0 1 -6.3-.3 29.08 29.08 0 0 0 -4.59-.56 16.31 16.31 0 0 1 -5.64-1.23c-.46-.22-.9-1.06-.65-1.43s.45-.74.75-.81a13.05 13.05 0 0 1 3.4-.49c1.73.09 3.45.47 5.17.71a17 17 0 0 0 7.48-.39 7.64 7.64 0 0 0 2-1.06 1.26 1.26 0 0 0 .38-1c0-.32-.33-.83-.6-.89-3.19-.74-6.37-1.52-9.6-2.08-6.55-1.12-12.78-3.08-18.16-7.17a12.83 12.83 0 0 0 -5.82-2.43c-2.48-.42-4.95-.86-7.42-1.36-.19 0-.33-.59-.41-.92 0-.1.23-.32.4-.4a7.6 7.6 0 0 1 4.57-.34c8.66 1.58 17.33.9 26.06.56a12.53 12.53 0 0 0 1.72-.26 2.15 2.15 0 0 0 1.32-2.79c-.75-1.71-1.89-2.92-3.88-3a16.83 16.83 0 0 1 -1.74 0c-1.91-.32-3.81-.62-5.69-1.06a7.62 7.62 0 0 1 -5.72-4.48c-.85-2-2.24-2.28-4.25-1.71a2.12 2.12 0 0 1 -2.9-1.95 35.69 35.69 0 0 1 0-7.52 84.54 84.54 0 0 0 .91-13.3 17.53 17.53 0 0 1 .26-3.47 62.5 62.5 0 0 0 .91-12.14 59.48 59.48 0 0 1 .52-8.11 86.24 86.24 0 0 0 .63-12.74 76 76 0 0 1 .85-13.89 30.92 30.92 0 0 0 .11-6.94 3.59 3.59 0 0 0 -3.13-3.64c-2.65-.55-5.31-1.11-8-1.59a2.68 2.68 0 0 0 -3.14 2c-.71 4.22-3.22 7.37-5.83 10.5a11.91 11.91 0 0 1 -1.2 1.26 3.9 3.9 0 0 1 -3.79.88 7.85 7.85 0 0 1 -1.63-.56c-1.89-1-3.82-1.9-5.6-3a25.58 25.58 0 0 0 -5-2.8 4.77 4.77 0 0 1 -3.07-3.91 16.08 16.08 0 0 1 -.43-5.76 21 21 0 0 0 -.28-6.93 16.23 16.23 0 0 1 -.33-4.61c.38-3.11 0-6.15-.08-9.26-.15-5.42 0-10.85-.11-16.26a50.83 50.83 0 0 0 -.34-5.79 5.2 5.2 0 0 0 -4-4.52 9.69 9.69 0 0 0 -3.41-.56 54.78 54.78 0 0 1 -8.1.23 5.92 5.92 0 0 0 -2.24.44 4.87 4.87 0 0 0 -3.44 3.62 19.41 19.41 0 0 0 -.51 4 57.86 57.86 0 0 1 -2.61 16.56c-.95 3-.68 6.15-.71 9.22a5.78 5.78 0 0 0 1.49 3.7 29.35 29.35 0 0 1 2.24 2.65 18.12 18.12 0 0 1 1.95 3.53c1.12 2.85.45 4.68-2.19 6.41q-2.19 1.43-4.4 2.8a2 2 0 0 1 -2.2-.13c-1.53-1.46-3.09-2.91-4.58-4.42a4.61 4.61 0 0 1 -1.2-4.3 14.87 14.87 0 0 1 2.65-6.38 9.73 9.73 0 0 0 1.79-5.93 163 163 0 0 0 -.4-18 70.55 70.55 0 0 0 -1.57-9.72 9 9 0 0 0 -.56-1.68 3.94 3.94 0 0 0 -3.45-2.73 30.72 30.72 0 0 0 -6.36 0 89.75 89.75 0 0 1 -9.81 1 16.88 16.88 0 0 0 -4 .65c-4.09 1.16-7.49 3.36-9.29 7.31-1.48 3.23-3.71 5.84-5.85 8.59-4.63 6-9.34 11.87-13.41 18.26a200.77 200.77 0 0 1 -13.14 17.71 122.68 122.68 0 0 0 -9.81 14.23c-.56 1-1.24 2-1.83 3a7.4 7.4 0 0 1 -3.8 3.43 7.17 7.17 0 0 0 -4.48 5 11.23 11.23 0 0 1 -1.6 3.07c-5.46 7.51-10.54 15.3-16.22 22.64a39.92 39.92 0 0 0 -3.22 4.81 24 24 0 0 1 -4.17 5.55 21.34 21.34 0 0 0 -4.26 5.47c-2.68 5.19-6.61 9.51-9.77 14.41a14.74 14.74 0 0 1 -3.36 3.12 3.74 3.74 0 0 1 -4.81.13 45.72 45.72 0 0 0 -4.65-2.31 3 3 0 0 1 -1.32-3.51 18 18 0 0 1 1.65-3c2.47-3.47 5-6.87 7.53-10.31a22.88 22.88 0 0 0 1.89-2.9 3.3 3.3 0 0 0 -1.17-4.2c-1.11-.7-2.36-1.29-3.51-2a2.18 2.18 0 0 1 -.6-2.62c2.89-4 6-7.7 11.53-7.77 6.71-.08 7.77-1.42 11.06-6 2.83-3.95 6.19-7.43 9.22-11.18a42 42 0 0 0 5.13-7.73 10.94 10.94 0 0 0 .87-2.74 2 2 0 0 0 -.84-2c-1.32-.8-2.74-1.42-4.11-2.13a2.77 2.77 0 0 1 -1.34-3 13.88 13.88 0 0 1 2.24-5.31 5.21 5.21 0 0 1 5-2.42c1 .09 1.92.29 2.88.36 1.16.09 2.32.15 3.48.15a7.65 7.65 0 0 0 5.72-2.42 29.89 29.89 0 0 0 2.64-3.09c4.11-5.62 8.18-11.27 12.26-16.92l.34-.46c1.59-2.31 1-4-1.72-4.76a15.19 15.19 0 0 1 -4.37-1.5 2.85 2.85 0 0 1 -1.45-3.45 37.12 37.12 0 0 1 1.68-4.32 5.79 5.79 0 0 1 5.66-3.35c1.35 0 2.68.41 4 .48 2.12.14 4.25.25 6.36.19a6.17 6.17 0 0 0 4.59-2.24 35.5 35.5 0 0 0 5.39-8.88 2 2 0 0 0 -1.24-2.32 37.06 37.06 0 0 1 -3.86-1.27 14.33 14.33 0 0 1 -3.4-2.14 4.92 4.92 0 0 1 -.83-6.36c.62-1 1.38-1.86 2.05-2.79a6.77 6.77 0 0 0 1.22-3.82 5.39 5.39 0 0 0 -2-4.59 27.21 27.21 0 0 0 -2.35-1.68c-1-.65-2-1.22-2.92-1.9-2.07-1.48-2.67-3.25-1.87-5.56 1-2.75 1.89-5.62 4-7.69 3-3 3.21-6.34 2.23-10.16-.56-2.24-.74-4.58-1.12-6.87a17.66 17.66 0 0 0 -.39-2.29 4.28 4.28 0 0 0 -3-3.27 35.39 35.39 0 0 0 -6.21-1.33 46.35 46.35 0 0 1 -9.12-1.67c-1.67-.49-3.41-.64-5.12-1-6.76-1.38-11-5.81-13-12a15.16 15.16 0 0 1 3.54-15.66c1.56-1.67 3.35-3.19 5.09-4.75a10 10 0 0 1 4.68-2.19c6.82-1.51 13.64-2.94 20.69-2 .56.07 1.15.13 1.73.16a4.68 4.68 0 0 0 3.68-1.42c.94-1 1.81-2 2.68-3.06 1.59-1.94 3.12-3.95 4.77-5.84a8.93 8.93 0 0 0 2.3-5.81c0-2.13.08-4.25.11-6.38a25 25 0 0 1 2.54-10.07 4 4 0 0 1 4.27-2.38 3.45 3.45 0 0 1 2.84 1.76c.56 1 .9 2.14 1.37 3.19.76 1.68 1.83 1.85 3 .51a23.25 23.25 0 0 1 1.93-2.16 3.83 3.83 0 0 1 5.38.55c.08.09.14.18.21.27a9.75 9.75 0 0 1 1 2.06c1.22 3.71 2.06 7.47 1.25 11.41-.12.56-.19 1.12-.27 1.72a6.27 6.27 0 0 0 1.38 4.89 21.16 21.16 0 0 0 2.36 2.55 22.92 22.92 0 0 1 4.27 5.48 84.11 84.11 0 0 0 8.39 11.8 62.6 62.6 0 0 1 6.1 9.16c5.2 8.85 9.46 18.2 14 27.4a23 23 0 0 1 2.53 9.47 10.51 10.51 0 0 0 .21 2.31c1.57 6.18.61 12.3-.37 18.45-.07.39-.15.76-.21 1.12-.3 2.19.56 3.56 2.62 3.67a63.06 63.06 0 0 0 7.53 0 5.11 5.11 0 0 0 4.83-4.31 19 19 0 0 0 .47-3.44c.09-1.54.06-3.1.06-4.65v-23.83a54.9 54.9 0 0 1 .6-8.1 55.46 55.46 0 0 0 .56-7.51c.08-6.19 0-12.39 0-18.59a46.15 46.15 0 0 1 .7-9.26 21.77 21.77 0 0 0 0-8.66 21.23 21.23 0 0 1 -.07-7.5 59 59 0 0 0 .48-7.52 74.88 74.88 0 0 1 .85-13.3 39.64 39.64 0 0 0 .32-6.37c.1-5-.2-10.06.4-15.09a18.28 18.28 0 0 0 -.1-3.47 71.37 71.37 0 0 1 .52-17.94 35.71 35.71 0 0 0 .33-6.37c0-6.39 0-12.78 0-19.17a52.33 52.33 0 0 1 .63-8.1 47.69 47.69 0 0 0 .57-7c.07-5.42 0-10.85 0-16.27a64.89 64.89 0 0 1 .56-10.42 12.39 12.39 0 0 0 0-4 26.36 26.36 0 0 1 .13-6.93q.69-6.92 1.19-13.86c.7-9.5.29-19 .43-28.44a45.6 45.6 0 0 0 -.24-5.22 3.31 3.31 0 0 0 -4-3.23c-2.89.31-5.75.75-8.64 1.09a15.39 15.39 0 0 1 -2.88.09 3.45 3.45 0 0 1 -3.16-3.72c0-.12 0-.25.05-.38.3-1.32.76-2.6 1-3.91a2.74 2.74 0 0 0 -.56-2.72 2.3 2.3 0 0 0 -2.7-.18c-1.75.83-3.49 1.68-5.18 2.62a14.84 14.84 0 0 1 -5.45 1.83 23.4 23.4 0 0 0 -5.1 1.08c-4.71 1.67-9.5 1.39-14.35 1a2.31 2.31 0 0 1 -2-3.36c.73-1.61 1.59-3.09 2.41-4.62.45-.86 1-1.68 1.39-2.54a3.8 3.8 0 0 0 -.21-3.35 2.53 2.53 0 0 0 -2.34-1.44 9.17 9.17 0 0 0 -2.79.56 19.31 19.31 0 0 1 -9.17.85c-2.88-.34-5.75-.78-8.62-1.23a11.8 11.8 0 0 1 -2.24-.61 4.45 4.45 0 0 1 -2.59-5.76 4.27 4.27 0 0 1 .51-1 4.2 4.2 0 0 1 .71-.91c2.65-2.24 5.1-4.76 8.29-6.31a48.73 48.73 0 0 0 9.26-6 29.52 29.52 0 0 1 11.4-5.49c5.59-1.45 11.13-3.33 16.63-5.17a47.21 47.21 0 0 0 11.74-6.27 6.76 6.76 0 0 0 2.36-2.48c1.83-4.1 5.29-6.6 8.68-9.17 2.92-2.24 6.23-3.86 9.1-6.2a16.07 16.07 0 0 1 4.66-2.29 22.55 22.55 0 0 0 6.45-3.84 55.25 55.25 0 0 1 11-7.55 14.51 14.51 0 0 0 3.76-2.69 131.13 131.13 0 0 0 12.45-13.78 20.38 20.38 0 0 0 1.95-3.55c1.55-3.29 3.08-6.64 4.63-10 1.79-3.86 3.56-7.74 5.39-11.58 1.41-3 2.84-5.94 4.39-8.83a26.82 26.82 0 0 0 2.44-6.5 19 19 0 0 1 2-5.4c2.88-4.8 3.87-10.12 4.47-15.51a75.19 75.19 0 0 1 2.24-12.55 13.69 13.69 0 0 0 .52-4.59 6.83 6.83 0 0 1 1.2-4.4 12.84 12.84 0 0 0 2.11-6.55 13 13 0 0 1 .56-3.43c1.56-4.37 2.64-8.88 3.94-13.33a20.86 20.86 0 0 0 1.21-6.23 31.49 31.49 0 0 1 1.5-9.12c3.14-11 5.51-22.15 7.72-33.35.45-2.27.62-4.59.92-6.9a24.35 24.35 0 0 1 .56-4c1.68-5.59 2.09-11.41 2.86-17.16a21 21 0 0 1 .5-3.43 58.76 58.76 0 0 0 2.39-12.53 8.29 8.29 0 0 1 1.2-3.81 9.12 9.12 0 0 0 1.26-7.19 30 30 0 0 1 -.27-4.63 18.37 18.37 0 0 1 1.12-7.42 17.92 17.92 0 0 0 1.19-6.83 31.68 31.68 0 0 1 1.22-8.6 35.38 35.38 0 0 0 1.11-9.77c0-3.49 0-7 .08-10.46a5.64 5.64 0 0 1 .92-3.29c.56-.76 2.05-.9 2.49-.11a8.08 8.08 0 0 1 .93 2.08c.64 2.83 1.23 5.68 1.79 8.53a24.56 24.56 0 0 1 .6 4c.13 5.83 1.3 11.53 2.06 17.28.61 4.6 1 9.23 1.61 13.83a72.61 72.61 0 0 0 3.31 14.1c1.9 5.66 3.67 11.43 3.76 17.52a30.6 30.6 0 0 0 3.36 13.42 28.15 28.15 0 0 1 2.23 8.39c.77 4.77 1.57 9.55 2.59 14.28a42 42 0 0 0 2.23 6.57 38 38 0 0 1 2.51 8.32 8.27 8.27 0 0 0 .25 1.12c.86 3 1.93 5.9 2.55 8.92s.8 6.15 1.82 9.09a10.43 10.43 0 0 1 .35 5.17 11.23 11.23 0 0 0 .45 5.15c1.12 3.7 1.84 7.5 3.53 11a25.14 25.14 0 0 1 2.36 9.51 55.43 55.43 0 0 0 .81 5.74c.28 1.72.78 3.41 1 5.13a48.18 48.18 0 0 0 3.42 14 11.25 11.25 0 0 1 .86 5.7 16.55 16.55 0 0 0 1.41 7.91 60 60 0 0 0 4.52 10.2 55.77 55.77 0 0 1 2.55 5.21 24.22 24.22 0 0 0 1.2 2.64 64.35 64.35 0 0 1 5.85 11.95 24.2 24.2 0 0 0 3.69 5.87 23.16 23.16 0 0 1 3 4.91 36 36 0 0 0 11.5 14.34 59.51 59.51 0 0 1 6.52 5.77 18.49 18.49 0 0 0 6.55 4.68 37.2 37.2 0 0 1 3.58 1.91 69.45 69.45 0 0 0 6.22 3.12 31.13 31.13 0 0 1 10.25 6.46 28.31 28.31 0 0 0 6.49 4.86c4.42 2.28 7.76 5.79 10.81 9.51a15.86 15.86 0 0 0 7.45 5.24c3.85 1.31 7.63 2.8 11.48 4.14 2.19.75 4.47 1.32 6.71 1.92 2.79.75 5.64 1.38 8.42 2.2a14.39 14.39 0 0 1 6.53 3.63 3.39 3.39 0 0 1 .41 4.28c-2.92 3.83-6.48 6.61-11.58 6.79a44.21 44.21 0 0 0 -4.6.45 1.53 1.53 0 0 0 -1.12 1.85 1.49 1.49 0 0 0 .19.45c.78 1.12 1.67 2.11 2.43 3.24a31.3 31.3 0 0 1 2.34 4 4.32 4.32 0 0 1 -1.51 5.17 7.92 7.92 0 0 1 -5.46 1.59c-3.66-.31-7.33-.6-11-1.12a47.69 47.69 0 0 0 -8.1-.47 5.28 5.28 0 0 0 -4.8 2.61c-.21.32-.43.64-.66 1a5.05 5.05 0 0 1 -4 2c-1.74.12-3.48.14-5.22.3a3.61 3.61 0 0 0 -3.57 3.2c-.24 1.34-.36 2.69-.65 4a3.35 3.35 0 0 1 -3.35 2.66c-1.16 0-2.32-.18-3.47-.15a3.5 3.5 0 0 0 -2.87 1.72 6.15 6.15 0 0 0 -1 4.42c.68 4.6 1.42 9.19 2.17 13.77a2 2 0 0 0 2.25 1.75 2.17 2.17 0 0 0 .35-.07 14.8 14.8 0 0 1 5.74-.34 20.93 20.93 0 0 0 6.92-.4c3.62-.63 7.27-1.17 10.92-1.5a31.47 31.47 0 0 1 6.36.23 4.43 4.43 0 0 1 3.84 3.14 54.36 54.36 0 0 1 1.55 6.77 20.26 20.26 0 0 1 .12 3.48v7c.1 12.38-.46 24.77.91 37.11a23.38 23.38 0 0 1 -.38 7.51 29 29 0 0 0 -.39 8.1 62.64 62.64 0 0 1 0 12.17 20.18 20.18 0 0 0 .51 7.5 69.29 69.29 0 0 1 1.68 18.45q-.16 8.7 0 17.42c.12 5.8.52 11.59 0 17.38a17.67 17.67 0 0 0 0 2.91c.56 7.73.2 15.46.1 23.19a14.43 14.43 0 0 0 .27 4c1.63 6.09 1.18 12.3 1 18.45q-.23 8.11-.21 16.25c0 1.93.31 3.86.49 5.78.1 1 .3 1.92.33 2.88a4.65 4.65 0 0 1 -3.88 5c-4.37.63-8.7 2-13.22.84a10 10 0 0 0 -5.72.56c-4.82 1.63-9.93 1.48-14.88 2.3a11.16 11.16 0 0 1 -4.56-.52 4.64 4.64 0 0 1 -3.61-4.11c-.23-1.92-.23-3.86-.27-5.79-.08-3.1-.06-6.2-.17-9.29a5.8 5.8 0 0 0 -1.37-3.74 1.82 1.82 0 0 0 -2.57-.23 1.73 1.73 0 0 0 -.38.43 9.14 9.14 0 0 0 -1.19 4.44 68.27 68.27 0 0 0 .1 8.7 40.4 40.4 0 0 1 0 8.08 87.07 87.07 0 0 0 -.11 9.28 8.71 8.71 0 0 0 7.88 8c1.35 0 2.7.11 4.06.11 5.58.06 11.15.05 15.23.05zm-335.2 85.95c-.62.4-1.26.75-1.83 1.2a3.41 3.41 0 0 0 -.61.9c-.3.49 0 1.4.45 1.35a1.71 1.71 0 0 0 1-.37 5 5 0 0 0 1.05-3.06 3.59 3.59 0 0 0 2.27-1.46c.08-.14.12-.48.05-.51-.27-.16-.67-.41-.87-.3-.95.44-1.2 1.38-1.51 2.25zm198.62-370.62a68 68 0 0 0 -10.29-.56 1.82 1.82 0 0 1 -1.76-1.27 24.48 24.48 0 0 1 -.64-2.79 26 26 0 0 0 1.55-2.16c.11-.2-.16-.62-.26-.94-.29.12-.78.18-.84.37a23.48 23.48 0 0 0 -.56 2.62c-1.12.22-2.27.5-3.42.64a2.91 2.91 0 0 1 -2.54-1.12 7 7 0 0 1 -.93-1.47c-1.05-2.18-3-2.85-5.21-3.16a3.29 3.29 0 0 0 -3.51 1.51c-1.39 2.32-2.67 4.72-4 7.05a26.33 26.33 0 0 1 -2.2 3.4 6 6 0 0 1 -1.87 1.3 1.46 1.46 0 0 1 -1.86-.84 4.24 4.24 0 0 1 -.09-1.12c.68-4.33-.2-4.31-3.07-5.87-.51-.28-1-.66-1.45-.95a1.84 1.84 0 0 0 -2.57.5c-.88 1-1.42 2.36-2.79 2.85a1.5 1.5 0 0 1 -1.12-.06 1.18 1.18 0 0 1 -.6-.88 10.8 10.8 0 0 1 3.66-7 4.2 4.2 0 0 1 1.56-.72 15.78 15.78 0 0 0 2.24-.61 2.46 2.46 0 0 0 1-1.28 1.47 1.47 0 0 0 -1.11-1.74h-.06a10.88 10.88 0 0 1 -5-2.72 2 2 0 0 0 -3 .61 52.81 52.81 0 0 0 -3.31 5.43 22 22 0 0 1 -3 4.92 11.2 11.2 0 0 0 -2.48 4.55 40.64 40.64 0 0 1 -3.27 8c-1.33 2.58-2.35 5.3-3.47 8-.52 1.27-.88 2.6 0 3.88.63 1 2.45 1.28 4.29.52a39.5 39.5 0 0 0 4.61-2.4 10 10 0 0 1 4.36-1.46 2.69 2.69 0 0 1 2.72 1.73c.22.93.33 1.9.52 2.84a24.19 24.19 0 0 0 .65 2.8 3.43 3.43 0 0 0 4.33 2.19l.38-.16a9 9 0 0 0 1.53-.81c1.87-1.36 3.72-2.76 5.59-4.16a55.32 55.32 0 0 1 4.6-3.51 31.92 31.92 0 0 0 5.9-4.64c2.34-2.31 4.73-4.57 7.11-6.83a2.88 2.88 0 0 1 3.17-.85 2.74 2.74 0 0 1 1.72 2.76q-.15 2.9-.45 5.78c-.14 1.34-.47 2.67-.63 4a8.55 8.55 0 0 0 .59 4.55 2.85 2.85 0 0 0 3.72 1.54l.13-.06a7.55 7.55 0 0 0 3.31-3.14c1.34-2.35 2.69-4.7 4-7.07a22.22 22.22 0 0 0 2.88-7.54 25.42 25.42 0 0 1 1.44-4.4c2.52.5 3.91 2 4.71 4.5 1.89 5.68 4.07 11.27 6.15 16.88a11.1 11.1 0 0 0 3.71 5.09 3.27 3.27 0 0 0 4.58-.54 3.56 3.56 0 0 0 .37-.58 19.84 19.84 0 0 0 1.12-2.65 133.26 133.26 0 0 0 4.66-16.67 18 18 0 0 1 1-3.3 2.42 2.42 0 0 1 2.27-1.52 2.26 2.26 0 0 1 1.94 1.08 12.1 12.1 0 0 1 1.16 2c1.46 3.15 2.86 6.34 4.35 9.5a36.18 36.18 0 0 0 2.23 4.05 8 8 0 0 0 1.68 1.6 2.54 2.54 0 0 0 3.55-.51v-.05a9.83 9.83 0 0 0 1.61-5.48c.13-2.32.1-4.66 1.12-6.82a5.67 5.67 0 0 0 -.3-5.54c-.38-.68-.69-1.38-1.08-2a3.36 3.36 0 0 0 -2.76-1.86 4.88 4.88 0 0 1 -3.63-1.54c-2.24-2.65-5.37-2.94-8.44-3.15-3.5-.24-7.24 2.9-7.89 6.37-.21 1.12-.28 2.31-.49 3.44a8.22 8.22 0 0 1 -.64 1.6c-.37.82-2 1.12-2.48.43-1.43-2.07-2.8-4.1-5.2-5.25-.73-.34-.84-1.28-.76-2.07.16-1.53.44-3 .56-4.57a2.55 2.55 0 0 0 -1.68-2.16 2.49 2.49 0 0 0 -2.64.67c-.67.94-1.24 1.95-1.93 2.88a2.23 2.23 0 0 1 -3.11.52 2.05 2.05 0 0 1 -.41-.37c-.39-.41-.61-1-1-1.41a.55.55 0 0 0 -.78-.11.57.57 0 0 0 -.19.24 19.15 19.15 0 0 0 -1.56 7.25zm154.55 232.81c-.19-7.58.6-16.31-1.06-25q-.13-13.65-.26-27.29c0-.19 0-.39 0-.56 0-7 .07-13.94.07-20.91a16.52 16.52 0 0 0 -.26-2.89c-1.45-8.06-.72-16.21-1-24.32-.12-3.67.13-7.36.12-11 0-2.32-.37-4.65-.22-6.95.59-9.1 0-18.19-.08-27.28a23 23 0 0 0 -.11-4.06c-.86-4.41-.68-8.86-.7-13.31s0-8.91-.06-13.36a12.61 12.61 0 0 0 -1.11-5.65 4.11 4.11 0 0 0 -2.58-2.19 6.59 6.59 0 0 0 -1.71-.29c-4.06 0-8.13-.1-12.19.07a27.37 27.37 0 0 0 -5.67 1.12 5.49 5.49 0 0 0 -4.1 4.48 22.6 22.6 0 0 0 -.45 4c-.09 2.13-.06 4.26-.05 6.39a107.78 107.78 0 0 1 -.62 13.33 93.28 93.28 0 0 0 -.52 10.43c-.07 8.71 0 17.43 0 26.14a33.73 33.73 0 0 1 -.29 6.37c-1.12 5.59-1 11.18-.74 16.77a74.88 74.88 0 0 1 -.3 11.6 21.61 21.61 0 0 0 .52 8.62 20.42 20.42 0 0 1 .25 9.2 47.49 47.49 0 0 0 -.07 15.6 21.15 21.15 0 0 1 0 6.92 41.44 41.44 0 0 0 0 13.29 62.08 62.08 0 0 1 .6 6.94c.1 2.51-.07 5 .06 7.55.14 2.89.69 5.77.69 8.66s-.64 5.77-.68 8.66c-.11 6.78-.06 13.56 0 20.33a32.17 32.17 0 0 0 .29 4.05 3.23 3.23 0 0 0 2.61 2.79c4.43.52 8.9.93 13.22-.56a12.42 12.42 0 0 1 6.23-.84 15 15 0 0 0 6.3-.71 4.37 4.37 0 0 0 3.4-3.58 30.06 30.06 0 0 0 .45-5.19c0-5.44 0-10.86 0-17.4zm-153.05-6.73a29 29 0 0 1 .17-9 51.09 51.09 0 0 0 .74-10.4c0-7.35-.06-14.71 0-22.06.05-4.47.11-8.91.56-13.33a120.72 120.72 0 0 0 .59-12.16v-75.46a77.31 77.31 0 0 1 .44-10.43 21.62 21.62 0 0 0 -.11-4.62 126.1 126.1 0 0 1 -.11-20.29 66.74 66.74 0 0 0 0-12.72 14.23 14.23 0 0 1 1.3-7.89c2.32-5 .71-9.4-2.8-13.29a2.07 2.07 0 0 0 -2.92.06l-.16.18a38.86 38.86 0 0 0 -2.37 4c-2.45 4.69-5.47 8.89-9.94 11.89a8 8 0 0 0 -.89.75 5.78 5.78 0 0 0 -2 4.64 18.13 18.13 0 0 0 .51 4 33.37 33.37 0 0 1 1.31 12c-.08.76.13 1.55.1 2.32-.22 5.43 1.42 10.73 1 16.21a10.06 10.06 0 0 0 .84 3.36 7.91 7.91 0 0 1 .27 4c-1.17 5.55-1 11.19-.64 16.78a128 128 0 0 1 0 16.15c-.46 6.93-.08 13.92-.06 20.89 0 2.51-.09 5 0 7.53.3 7.54-1 15.05-.38 22.59a8.06 8.06 0 0 1 -.16 2.3c-.88 4-.68 8.09-.73 12.15 0 2.9.21 5.86-.29 8.69a85.3 85.3 0 0 0 -.86 15 52.72 52.72 0 0 1 -.79 11.56 8.32 8.32 0 0 0 1.16 6.67 4.55 4.55 0 0 1 .38 5c-1.83 3.36-2 7-1.93 10.72q.07 12.18 0 24.38c-.05 6.95-.27 13.89-.06 20.86.28 9.47.09 19 0 28.45q0 3.76-.38 7.52a29.38 29.38 0 0 0 .06 5.78 65 65 0 0 1 -.32 16.77 45.15 45.15 0 0 0 -.47 6.36c-.07 3.29 0 6.58 0 9.87a67.58 67.58 0 0 0 .24 7.53 35.22 35.22 0 0 1 0 8.08 62.72 62.72 0 0 0 -.11 8.11 4.53 4.53 0 0 0 3.63 4.65 28.75 28.75 0 0 0 5.11 1 27.83 27.83 0 0 0 5.77-.24 4.2 4.2 0 0 0 3.7-3.92 50.2 50.2 0 0 0 .24-5.21q0-9.87 0-19.74a40.15 40.15 0 0 1 .44-6.93 40.31 40.31 0 0 0 0-12.69c-.56-4.29-.35-8.49-.44-12.74a60.36 60.36 0 0 1 .72-10.4 54.21 54.21 0 0 0 .08-15.63 84.48 84.48 0 0 1 -.8-12.72 71.62 71.62 0 0 0 -.71-9.82 71.76 71.76 0 0 1 -.05-18.52 95.23 95.23 0 0 0 .77-11.56c0-3.29 0-6.59.26-9.86.23-2.54.55-5 0-7.24zm-169.4 68.88c-2.31.2-4.63.28-6.92.64a4.36 4.36 0 0 0 -3.32 4.25 9.1 9.1 0 0 0 .13 1.73c.63 3.42 1.25 6.85 2 10.26a17 17 0 0 0 1.31 3.83 8.63 8.63 0 0 0 1.76 2.23 2.33 2.33 0 0 0 3.29-.14 1.83 1.83 0 0 0 .24-.31 7.6 7.6 0 0 0 1.26-4.39c0-1-.24-1.91-.29-2.88a2.45 2.45 0 0 1 2.16-2.35 10.54 10.54 0 0 1 2.86.09c2.47.48 4.91 1.12 7.37 1.61a46.09 46.09 0 0 0 14.45.31c2.69-.29 5.37-.63 8.07-.79a31.34 31.34 0 0 0 8-1.49 12.77 12.77 0 0 0 9-9.76 18 18 0 0 0 .4-2.29c.74-7.83.24-15.47-3.47-22.61a31.19 31.19 0 0 1 -1.47-3.16c-2-5.3-4.93-10.07-7.92-14.81-3.83-6.05-7.27-12.31-11.45-18.17-3.58-5-6.54-10.52-11.51-14.43a2.32 2.32 0 0 1 -.39-.44 18.77 18.77 0 0 0 -6.6-5.56 6.6 6.6 0 0 1 -3.09-3.35c-.22-.56-.45-1.07-.71-1.59a4.51 4.51 0 0 0 -3.69-2.48 2.59 2.59 0 0 0 -2.87 1.43c-.45 1.28-.84 2.58-1.21 3.88a11.24 11.24 0 0 1 -2 4.15c-2.56 3.17-5.11 6.33-7.65 9.51a7.06 7.06 0 0 1 -5.49 2.75c-4.25.24-8.51.49-12.73 1s-8.39 1.39-12.56 2.19a6.14 6.14 0 0 0 -4.16 2.93 19.91 19.91 0 0 0 -3.05 9.28 8.88 8.88 0 0 0 .34 3.44c1.6 4.36 4.24 7.83 8.9 9.26a70.28 70.28 0 0 0 12.48 2.35 4.1 4.1 0 0 0 4-1.92c.56-.79 1-1.62 1.61-2.41a5 5 0 0 1 3.91-2.14c3.59-.27 7 .33 9.86 2.63 2.32 1.87 4.93 2 7.69 1.61a10.58 10.58 0 0 0 6-3.22c1.22-1.24 2.39-2.54 3.66-3.72a5.5 5.5 0 0 1 3.09-1.48 2.14 2.14 0 0 1 2 .9 3 3 0 0 1 .21 1.68 8.08 8.08 0 0 1 -2.62 3.76 12.06 12.06 0 0 0 -3.21 5.42c-2 6.68-4 13.34-6 20a16.59 16.59 0 0 1 -.83 2.16 2.8 2.8 0 0 1 -3.77 1.19l-.21-.13a5.3 5.3 0 0 1 -2.73-3.57 27.24 27.24 0 0 1 -.4-4c-.11-1.93 0-3.88-.23-5.8a6.81 6.81 0 0 0 -.94-2.69 2.54 2.54 0 0 0 -2.46-1.24 2.23 2.23 0 0 0 -1.92 1.89c-.16 2.31-.24 4.63-.32 7-.14 3.8 1.21 7.21 2.93 10.5a4.21 4.21 0 0 0 4.8 2.43 43.7 43.7 0 0 0 6.15-1.68 114.84 114.84 0 0 0 14-5.66 10.89 10.89 0 0 1 3.35-.73 1.76 1.76 0 0 1 1.68 1.32 2.71 2.71 0 0 1 -.28 1.63 8.58 8.58 0 0 1 -1.68 1.56c-1.33 1.12-2.7 2.19-4 3.36a2.1 2.1 0 0 0 -.16 2.67c.9 1 1.92 1.91 2.79 2.95a12.18 12.18 0 0 1 1.51 2.43 1.29 1.29 0 0 1 -.14 1.08 1.27 1.27 0 0 1 -.95.56 5.25 5.25 0 0 1 -2.23-.56c-4.85-2.98-10.1-3.9-15.63-3.9zm162.58-351.27c0-1.15.08-2.31 0-3.45a1.81 1.81 0 0 0 -2-1.64 1.85 1.85 0 0 0 -.57.15c-.56.21-1 .55-1.55.78a1.29 1.29 0 0 1 -1.62-.82 1.67 1.67 0 0 1 -.06-.29c-.13-1-.15-1.93-.3-2.88a1.93 1.93 0 0 0 -2.29-1.31 3 3 0 0 0 -2.24 1.63 14.53 14.53 0 0 0 -1.12 3.27c-.31 1.51-.3 3.09-.65 4.59a13 13 0 0 1 -1.35 3.16 1.77 1.77 0 0 1 -2.92-.28 6 6 0 0 1 -.61-2.19c0-1.15.3-2.3.36-3.46a21.34 21.34 0 0 0 -.11-2.88c-.07-.8-.84-1.75-1.39-1.63a2.86 2.86 0 0 0 -1.46.78 10.7 10.7 0 0 0 -1.28 1.92 15.81 15.81 0 0 1 -3.73 4.41 3.87 3.87 0 0 1 -1.54.71c-.3.07-.92-.21-1-.43a35.71 35.71 0 0 0 -.89-4.47 11.06 11.06 0 0 1 -.5-6.26 4.29 4.29 0 0 0 -.08-1.71 1.35 1.35 0 0 0 -.67-.84 1.19 1.19 0 0 0 -1.07 0c-1 .93-1.82 2-2.8 2.9a18.31 18.31 0 0 1 -2.28 1.74 1.63 1.63 0 0 1 -2.06-.47c-.33-.69-.5-1.47-.87-2.14a3 3 0 0 0 -3.59-1.07 9.83 9.83 0 0 0 -1.9 1.3c-1 .89-2 1.86-2.92 2.79a5.88 5.88 0 0 1 -4.59 2.12 5.9 5.9 0 0 0 -3.84 1.09 7.53 7.53 0 0 1 -6.07 1.19 7.73 7.73 0 0 0 -6 1.46 16.81 16.81 0 0 0 -1.81 1.44 22.58 22.58 0 0 1 -7.43 4.44c-.9.36-1.81.69-2.69 1.12a16.35 16.35 0 0 0 -5.5 4.18 1.72 1.72 0 0 0 .24 2.42 1.64 1.64 0 0 0 .67.34 17.15 17.15 0 0 0 2.85.4 30.13 30.13 0 0 0 10.76-2.15c2-.7 4-1.42 6-2a5.78 5.78 0 0 1 2.27 0 1.31 1.31 0 0 1 .85.67 1.66 1.66 0 0 1 0 1.12 1.84 1.84 0 0 1 -.69.91c-3.6 2.12-5.83 5.59-8.57 8.57-.78.85-1.46 1.89-.84 3.15.5 1 2 1.25 3.66.65a7.1 7.1 0 0 0 1.08-.42 62.49 62.49 0 0 1 10.35-3.77 21.43 21.43 0 0 0 9-5.11 35.56 35.56 0 0 1 5.17-3.69 6.23 6.23 0 0 1 2.19-.69 2.2 2.2 0 0 1 2.11.68 2 2 0 0 1 .49 2.14 27.6 27.6 0 0 1 -1.8 3.61 21.19 21.19 0 0 0 -2.63 8.24 5 5 0 0 0 .89 3.85 2.68 2.68 0 0 0 2.56 1 5 5 0 0 0 1.08-.39c3.36-2 6.61-4.1 9.05-7.16s6-5.44 8.72-8.47a2.23 2.23 0 0 1 2.69-.26 2.41 2.41 0 0 1 .9 2.05 13.67 13.67 0 0 1 -.45 2.84c-.53 1.87-1.23 3.68-1.72 5.54a17.45 17.45 0 0 0 -.56 4 3.1 3.1 0 0 0 2.95 3.24 3 3 0 0 0 1.52-.32 15.73 15.73 0 0 0 6.75-5.35c2.24-3.14 4.69-6.15 6.36-9.69.71-1.51 1.17-3.35 3.13-3.91 2.38 1 1.32 3.36 1.89 5a7.75 7.75 0 0 1 .22 2.3c.05 2.33.07 4.65.09 7a15.34 15.34 0 0 0 1 6.26 9.34 9.34 0 0 0 1.62 2.36 2.53 2.53 0 0 0 3.59-.14 33.77 33.77 0 0 0 2.1-3.45c.73-1.36 1.3-2.8 2.09-4.14a2.11 2.11 0 0 1 3.77-.06c.56 1 1 2.08 1.61 3.08a11.47 11.47 0 0 0 4 4.11 3.32 3.32 0 0 0 4.61-.94c2.48-4.37 4.91-8.79 6.11-13.73.27-1.12.35-2.29.56-3.43a6.2 6.2 0 0 1 .48-1.68 2.3 2.3 0 0 1 1.83-1.27 2.24 2.24 0 0 1 2 .92 29.87 29.87 0 0 1 2.71 7.62 34.88 34.88 0 0 0 7.76 14.11 10.23 10.23 0 0 0 1.28 1.18 2.82 2.82 0 0 0 4.82-1.71 21 21 0 0 0 -.05-6.94c-.52-3.44-1.08-6.88-1.51-10.33a12.32 12.32 0 0 1 .12-3.43 2.13 2.13 0 0 1 3.22-1.27 20 20 0 0 1 4.57 4.42c1.82 2.24 3.71 4.47 5.39 6.83 2.49 3.53 6.15 5.18 10.06 6.48a2.63 2.63 0 0 0 3.47-2.74 50 50 0 0 0 -.94-5.12 12.94 12.94 0 0 1 -.49-5.17 6.63 6.63 0 0 1 .9-2.08 1.72 1.72 0 0 1 2.09-.38 21.82 21.82 0 0 1 2 2 17.57 17.57 0 0 0 4.63 4.35c3.35 1.9 6.82 3.64 10.24 5.44a3.47 3.47 0 0 0 .56.11 1.59 1.59 0 0 0 1.61-1.32 8.07 8.07 0 0 0 -1.21-3.83c-1.93-3.78-3.85-7.58-5.79-11.36a8.56 8.56 0 0 1 -1-5c.14-1.15.27-2.3.3-3.46a2.71 2.71 0 0 0 -2.1-2.46c-1.5-.27-3.2.21-4.5-.79-2.91-2.24-6.83-2.8-9.24-5.83-.27-.33-1.26.09-1.46.56a9.51 9.51 0 0 0 -.61 1.61c-.22 1.12-.3 2.31-.5 3.45a9.12 9.12 0 0 1 -.56 1.62 1.91 1.91 0 0 1 -2.51.71c-1.36-1-2.07-3-4.19-2.8a6.2 6.2 0 0 1 -4.86-2.26 2.8 2.8 0 0 0 -2.67-.71c-2.43.46-4.4 1.39-5 4.11a6 6 0 0 1 -1.18 2 2.28 2.28 0 0 1 -3.15.6c-.78-.56-1.45-1.28-2.24-1.82a1.86 1.86 0 0 0 -2.18 0 19.12 19.12 0 0 0 -1.73 1.53c-.95.88-2.06 1.24-3.14.42a5.06 5.06 0 0 0 -4.9-.87 2.16 2.16 0 0 1 -2.82-1.33 14.9 14.9 0 0 0 -.77-1.55 1.62 1.62 0 0 0 -2.26-.29 2 2 0 0 0 -.25.25 14.51 14.51 0 0 0 -1.24 1.94c-.52 1-.89 2.14-1.44 3.15a2.52 2.52 0 0 1 -3.37 1.17 2.82 2.82 0 0 1 -.54-.36 17.44 17.44 0 0 0 -2.2-1.87 4.05 4.05 0 0 0 -2.2-.29 3.52 3.52 0 0 0 -1.55.76 4.94 4.94 0 0 1 -5.46.31 15.88 15.88 0 0 0 -2.17-.83 6.82 6.82 0 0 1 -3.64-2.73 10.71 10.71 0 0 0 -.71-.92c-1-1.12-2-.82-2.51.72-.24.73-.34 1.52-.65 2.23a21.05 21.05 0 0 1 -1.42 2.49c-.29.47-1.26.65-1.57.31s-.61-.56-.64-.91a11.78 11.78 0 0 1 -.22-2.9zm87.82 164.95v-27.88c0-6.57.39-13.17-1-19.67a2.71 2.71 0 0 1 -.05-.56v-22.07c1.32-5.38.8-10.74 0-16.12-.21-1.33-.18-2.71-.4-4a5.73 5.73 0 0 0 -2.42-3.82 1.68 1.68 0 0 0 -2.43.72 18.88 18.88 0 0 0 -.56 2.79c-.14 1.54 0 3.11-.28 4.63a9.88 9.88 0 0 1 -1.12 3.25 3.71 3.71 0 0 1 -3.82 2.1 16.76 16.76 0 0 0 -1.73-.12 2.22 2.22 0 0 0 -1.79 1.29 6.43 6.43 0 0 0 -.44 1.67c0 3.87-.31 7.78.19 11.58a93.47 93.47 0 0 1 .78 12.73c0 3.68-.07 7.36 0 11 .07 2.7.27 5.41.56 8.09a18.06 18.06 0 0 1 .08 5.19 22.6 22.6 0 0 0 .08 7.52 53.76 53.76 0 0 1 .49 11 28.76 28.76 0 0 0 .5 6.35 28.86 28.86 0 0 1 0 11 24.41 24.41 0 0 0 -.07 8.65 74.21 74.21 0 0 1 0 22 30 30 0 0 0 0 10.39 44.22 44.22 0 0 1 .67 8.67v19.16a53.69 53.69 0 0 0 .46 6.94 24.54 24.54 0 0 1 -.06 6.35c-.3 2.49-.33 5-.4 7.52a10.75 10.75 0 0 0 1.46 6.09 4 4 0 0 1 .24 3.86 18 18 0 0 0 -1 10.25 41.87 41.87 0 0 1 .46 7.51c.05 5.42 0 10.84 0 16.26a56.83 56.83 0 0 0 .79 11.57 28.3 28.3 0 0 1 .35 5.2c0 3.68.16 7.36 0 11-.28 5.42-.19 10.81 0 16.21.25 7.35.25 14.71.34 22.06 0 1.16-.14 2.32-.15 3.48-.08 6.58-.46 13.15.37 19.72a28.61 28.61 0 0 1 -.17 4.61c-.08 2.32-.34 4.65-.19 7a20.77 20.77 0 0 0 3.11 9.86 1.87 1.87 0 0 0 2 .67 2.92 2.92 0 0 0 1.15-1.21c.75-1.84.48-3.81.56-5.73.13-3.29 0-6.6.49-9.84a71.83 71.83 0 0 0 .67-9.83v-33.73a48.5 48.5 0 0 1 .68-9.24 12.26 12.26 0 0 0 .31-4.61c-1-4.84-.48-9.61.1-14.42.07-.56 0-1.15 0-1.74.18-7.34-.33-14.71.47-22a7.69 7.69 0 0 0 -.05-1.73c-.66-5.41-.37-10.83-.36-16.25a42.22 42.22 0 0 1 .56-6.92 21.27 21.27 0 0 0 0-8.07 26.39 26.39 0 0 1 -.38-9.82c.82-4.85.3-9.64.08-14.46a53.63 53.63 0 0 1 .18-6.94c.41-5 1.24-10 .32-15a16.33 16.33 0 0 1 .56-8.57 14 14 0 0 0 .68-6.29 155.62 155.62 0 0 1 -.92-27.21c.05-1 0-1.93 0-2.91 0-5 0-10 0-15.08zm-175.12 222.91h-.2c.11 3.08.16 6.15.34 9.26a3.12 3.12 0 0 0 3.3 2.66 9.72 9.72 0 0 0 2.27-.39 4.21 4.21 0 0 0 3.11-3.8 44.89 44.89 0 0 0 .2-4.64c0-7.93-.09-15.86.92-23.76a22.16 22.16 0 0 0 -.17-6.35 29.78 29.78 0 0 1 0-8.64 74.25 74.25 0 0 0 .56-14.46 56.35 56.35 0 0 1 .73-16.22 29 29 0 0 0 .42-11.52 24.7 24.7 0 0 1 -.15-4.64v-12.19a52.47 52.47 0 0 1 .63-8.67 43.56 43.56 0 0 0 .47-6.35c.08-3.68 0-7.36.08-11a48.5 48.5 0 0 1 .37-6.37 23.53 23.53 0 0 0 0-6.91 40.21 40.21 0 0 1 .16-12.72c.23-1.33.41-2.68.56-4 .56-5.39 1-10.78 1.67-16.16a23.21 23.21 0 0 0 0-6.34 48.24 48.24 0 0 1 -.06-13.89 72 72 0 0 0 .83-11 13.94 13.94 0 0 1 .15-2.89c.9-4.39.87-8.85 1.2-13.28a47.42 47.42 0 0 0 0-6.95 26 26 0 0 1 .13-6.36 65 65 0 0 0 .86-16.18c-.13-1.74 0-3.49-.06-5.23-.09-2.51-.18-5-.43-7.52a26.58 26.58 0 0 1 .06-5.2c.75-8.31.38-16.63.23-25 0-1.15-.4-2.29-.48-3.44a18.24 18.24 0 0 1 0-4.61 28.48 28.48 0 0 0 .2-8.09 20.6 20.6 0 0 1 .82-8c.39-1.3.81-2.59 1.12-3.92a18.22 18.22 0 0 0 .47-2.85 2.65 2.65 0 0 0 -2.31-3 2.44 2.44 0 0 0 -1 .08c-2 .62-4 1.41-6 2.23a4.49 4.49 0 0 0 -2.92 4c-.31 5.41-.68 10.87.21 16.22.95 5.62.62 11.18.06 16.77a23.27 23.27 0 0 0 .14 6.92 32.1 32.1 0 0 1 .35 9.83c-.4 3.84-.85 7.69-1.48 11.51a52.28 52.28 0 0 0 -.64 8.66v18a39.68 39.68 0 0 1 -.39 6.35 56.75 56.75 0 0 0 -.75 10.41v11.61a40.63 40.63 0 0 1 -.66 8.67 16 16 0 0 0 -.15 6.35 21.12 21.12 0 0 1 0 6.35 61.53 61.53 0 0 0 -.21 6.37c0 1.15.17 2.31.15 3.47-.07 6.78-.16 13.55-.31 20.32a45 45 0 0 1 -.53 6.35 49.82 49.82 0 0 0 -.6 8.09v25a35.73 35.73 0 0 1 -.36 6.37 63.81 63.81 0 0 0 -.81 11.55 45.55 45.55 0 0 1 -.2 5.23 38.58 38.58 0 0 0 0 6.36 25.33 25.33 0 0 1 -.27 5.77 52.47 52.47 0 0 0 -.63 8.67c0 5.59.06 11.23-.05 16.84-.07 3.68-.23 7.34 0 11a30.91 30.91 0 0 1 -.52 8.09 28.92 28.92 0 0 0 -.12 11 18 18 0 0 1 .05 5.76 45.13 45.13 0 0 0 -.22 5.2c-.16 1.75-.14 3.48-.14 5.22zm406.9-36.42h2.32c6.58 0 13.17.38 19.68-1a8.49 8.49 0 0 1 1.74-.12 140.37 140.37 0 0 0 19.1-1c3.63-.5 7.31-.69 10.94-1.29 4.77-.8 9.5-1.78 14.41-1.53a11 11 0 0 0 1.72-.19c6-.64 11.87-1.79 17.89-1.93a28 28 0 0 0 2.88-.36q8.07-.89 16.15-1.75c.55-.07 1.16 0 1.73-.07 2.51-.22 5-.49 7.51-.68a28.73 28.73 0 0 1 5.77-.18 26.71 26.71 0 0 0 8.65-.06 32.5 32.5 0 0 1 5.22-.26h10.45a32.85 32.85 0 0 0 5.77-.45 114.17 114.17 0 0 1 20.2-1.89 39.87 39.87 0 0 0 5.77-.49 46.74 46.74 0 0 1 8.1-.64h12.77c2.33 0 4.65 0 7-.12a6.41 6.41 0 0 0 2.18-.66 1.22 1.22 0 0 0 .56-.92 1.3 1.3 0 0 0 -.5-.95 3.85 3.85 0 0 0 -1.59-.63c-1.53-.19-3.1-.14-4.62-.41a29.92 29.92 0 0 0 -8.66 0 66.35 66.35 0 0 1 -11 .34 55 55 0 0 0 -10.42.27 79.92 79.92 0 0 1 -11.57.75c-2.71 0-5.42-.1-8.13 0a103.14 103.14 0 0 0 -11.54.9 79.64 79.64 0 0 1 -13.24 1.4c-1.93 0-3.87.2-5.79.37-2.7.23-5.4.45-8.08.81a145.83 145.83 0 0 1 -16.18 1.33 11.85 11.85 0 0 0 -2.29.35 38.25 38.25 0 0 1 -9.25.56c-1.55 0-3.1-.22-4.64-.2q-13.37.1-26.72.3a27.4 27.4 0 0 0 -5.2.28 58.78 58.78 0 0 1 -13.88.84c-8.13-.26-16.22.55-24.35.55-3.07.8-6.15.07-9.26.22-3.67.18-7.34.35-11 .4a57.86 57.86 0 0 0 -11 .8 18.23 18.23 0 0 1 -4 .33c-10.62-.1-21.3.47-31.93-.37a22.44 22.44 0 0 0 -2.32 0c-4.25.13-8.5.33-12.76.39a54.9 54.9 0 0 0 -10.4.78 20.24 20.24 0 0 1 -4 .36 141 141 0 0 1 -15.1-.29 27.24 27.24 0 0 0 -4 0c-2.52.08-5 .27-7.54.28-7.94 0-15.88 0-23.82 0a33.66 33.66 0 0 0 -6.36.32 69.88 69.88 0 0 1 -13.31.82 63.69 63.69 0 0 0 -10.41.71 58.89 58.89 0 0 1 -7.52.29 50.19 50.19 0 0 0 -5.2.17 51.9 51.9 0 0 1 -15.59.24 15.75 15.75 0 0 0 -4.6.17 3.3 3.3 0 0 0 -2.63 2.06 5.32 5.32 0 0 0 0 4.48 2.26 2.26 0 0 0 1.73 1.39 13.86 13.86 0 0 0 2.88 0c4.43-.43 8.84-1 13.29-1.09a28.66 28.66 0 0 1 5.78.29 42.58 42.58 0 0 0 15 0 38.64 38.64 0 0 1 10.41-.4 81.41 81.41 0 0 0 16.22-.61 98.29 98.29 0 0 1 11-.73h10.3c19.15-.14 38.3.39 57.44-.68 1.54-.08 3.14.3 4.62 0a38.43 38.43 0 0 1 9.81-.67 12.17 12.17 0 0 0 2.88-.32 16.94 16.94 0 0 1 5.77 0 55.23 55.23 0 0 0 15.62-.09 55.17 55.17 0 0 1 6.92-.55c4.09-.08 8.16 0 12.22 0zm-296.1-404.43c.18-1.49.23-1.88.27-2.24a5.23 5.23 0 0 0 0-.56c0-.38-.05-.77-.07-1.16 0-.55-.64-1.34-1-1.24s-.8.22-1 .48c-1 1.65-1.88 3.36-2.94 5a8.34 8.34 0 0 1 -2.06 2 2 2 0 0 1 -2.52-.73 17.47 17.47 0 0 1 -.67-2.24c-.29-1.12-.48-2.24-.81-3.36a2.06 2.06 0 0 0 -1.63-1.48 1.77 1.77 0 0 0 -1.79 1.19 39.36 39.36 0 0 1 -1.46 3.72 14.76 14.76 0 0 1 -2 2.8 2.24 2.24 0 0 1 -2.67.37 2.1 2.1 0 0 1 -.76-2.07c.24-1.33.73-2.61 1-3.92a5.16 5.16 0 0 0 -2.42-5.48 2 2 0 0 0 -2.18.11c-.5.56-1 1.2-1.46 1.79s-1.19 1.52-1.86 2.21a2.65 2.65 0 0 1 -3.68.07c-1.28-1.17-2.33-2.58-4.1-3.13-3.13-1-2.68-2.93-1.29-4.87.79-1.12 1.59-2.2 2.3-3.35a8.57 8.57 0 0 0 .86-2.13 1.28 1.28 0 0 0 -.29-1 1.91 1.91 0 0 0 -1-.33.86.86 0 0 0 -.56.17 41.57 41.57 0 0 1 -6.33 3.9 4.79 4.79 0 0 0 -1.93 2.08 40.36 40.36 0 0 0 -1.67 4.31 31 31 0 0 1 -2.12 5.39c-3.05 5-4.56 10.68-7.59 15.66a5.39 5.39 0 0 0 -.39 2.24c-.06.76 1.12 1.39 1.74 1a11.34 11.34 0 0 0 1.9-1.29c1.82-1.74 3.58-3.55 5.36-5.32a23.63 23.63 0 0 1 2.51-2.39 2.14 2.14 0 0 1 1.6 0 1.09 1.09 0 0 1 .55.92 18.64 18.64 0 0 1 -.46 3.41 12.32 12.32 0 0 0 -.49 5.15c.75 4.19 1.46 8.39 2.29 12.56a11 11 0 0 0 1.11 2.65 1.7 1.7 0 0 0 2.07.44 4.46 4.46 0 0 0 1.25-1.16c3-6.05 6.76-11.75 9.18-18.1a25.48 25.48 0 0 1 1.53-3.1 1.2 1.2 0 0 1 1.59-.07 3.75 3.75 0 0 1 .92 1.42 22.81 22.81 0 0 1 .44 4.59c-.22 4.89.92 9.62 1.47 14.42a8 8 0 0 0 1 2.66 2.21 2.21 0 0 0 3.49.38 28.72 28.72 0 0 0 1.88-2.9c.88-1.49 1.67-3.06 2.62-4.48a5.71 5.71 0 0 1 3.33-2.2 3.61 3.61 0 0 1 4.05 1.51c.6 1 1.06 2.05 1.64 3.06a1.43 1.43 0 0 0 2.42-.15 3.08 3.08 0 0 0 .32-.48c1.79-4.26 4.28-8.27 4.8-13a8.3 8.3 0 0 1 .68-2.24 7.71 7.71 0 0 1 .95-1.45 1.91 1.91 0 0 1 3 .09 11 11 0 0 1 .94 2.1 77.75 77.75 0 0 1 2 8.46c.67 4.71 3.49 8.08 6.48 11.4a2.22 2.22 0 0 0 3.44-.68 14 14 0 0 0 .72-2.19c.34-1.51.56-3.05.92-4.55a105.35 105.35 0 0 0 2.76-14.82 8.06 8.06 0 0 1 .66-2.21 2.31 2.31 0 0 1 2.51-1 2.58 2.58 0 0 1 1.88 2 6.14 6.14 0 0 1 .12 2.3c-.76 4.22 1.26 7.48 3.54 10.68a1.58 1.58 0 0 0 2.43-.24 29.85 29.85 0 0 0 1.26-3.22c.62-2 1.12-4.1 1.75-6.15a2 2 0 0 1 2.8-1.19c2.63 1.68 5.08 3.55 6.09 6.71a5.06 5.06 0 0 0 2.24 3.28 1.34 1.34 0 0 0 1.11 0c.28-.14.44-.56.56-.91a.73.73 0 0 0 0-.56c-1.76-3.25-2.68-6.83-4.05-10.22-.88-2.15-2-4.19-3-6.29a4.16 4.16 0 0 0 -3-2.45c-2.23-.5-4.47-1.17-6.71-1.78a4.2 4.2 0 0 1 -2.94-2.57c-.28-.72-.49-1.48-.81-2.17a4.29 4.29 0 0 0 -4.67-2.67c-2 .33-2.88 1.81-3.3 3.6-.31 1.32-.45 2.68-.77 4a17.1 17.1 0 0 1 -1 2.71 2.38 2.38 0 0 1 -2.42 1.26 2.27 2.27 0 0 1 -2-1.87c-.18-1.11-.23-2.29-.43-3.42a1.2 1.2 0 0 0 -.73-.82 16.94 16.94 0 0 1 -7.47-2.82c-.63-.44-2.17.18-2.54.91a8.66 8.66 0 0 0 -.86 2.12c-.3 1.32-.39 2.69-.7 4a6.33 6.33 0 0 1 -2.06 3.42 2.24 2.24 0 0 1 -2.66-.06 3.5 3.5 0 0 1 -1.19-2.56 12.32 12.32 0 0 1 .18-1.66zm24.32 489.32c1.42-.11 3.35-.16 5.26-.45a3.7 3.7 0 0 0 3.11-3.06 16.44 16.44 0 0 0 .27-1.71c.31-2.69.59-5.37.93-8.06a26.49 26.49 0 0 0 -.07-8.66 59.33 59.33 0 0 1 -.77-12.12 59.63 59.63 0 0 0 -.79-11.55 30.13 30.13 0 0 1 -.35-5.77c.05-9.47 0-18.93-.8-28.38a38 38 0 0 0 -.81-6.89 13.46 13.46 0 0 1 -.18-6.31 14.16 14.16 0 0 0 .21-5.76 158.1 158.1 0 0 1 -2.07-16.67 14.47 14.47 0 0 0 -.56-2.83c-.77-2.57-2.49-3.58-5.34-3.21-.56.07-1.26.65-1.18 1.07a1.92 1.92 0 0 0 .37 1c.84.78 1.81 1.44 2.66 2.24a2.69 2.69 0 0 1 -.56 4.4 4.07 4.07 0 0 1 -3.88.36c-2.8-1.24-5.6-2.59-8.39-3.89a1.67 1.67 0 0 0 -1.94.87 7.7 7.7 0 0 0 -.63 2.2 53.57 53.57 0 0 0 0 6.94c.41 4.61.22 9.25.84 13.86.33 2.45-.11 5-.22 7.51a28.43 28.43 0 0 0 -.24 3.45c.32 4.24.77 8.46 1.12 12.69.13 1.54.19 3.08.3 4.62.51 6.71-.09 13.53 1.24 20.22a27.35 27.35 0 0 1 .21 5.21c0 6.57.1 13.14 0 19.71-.07 4.68 1.11 9.2 1.52 13.81a3.53 3.53 0 0 0 .14.56 5.33 5.33 0 0 0 4.85 4.31c1.76.16 3.51.15 5.75.25zm-16.57-29.53v-2.32c-.09-6.19-.21-12.38-.27-18.57a59.32 59.32 0 0 0 -.61-8.1 57.09 57.09 0 0 1 -.53-7.51 60.34 60.34 0 0 0 -.82-11 25.53 25.53 0 0 1 -.33-4.62c-.05-5 .11-10.07-1-15a7.81 7.81 0 0 1 -.13-1.74c.08-3.91-.68-7.69-1-11.54a16.33 16.33 0 0 0 -3.41-8.47c-1-1.35-1.79-1.67-3.23-.11a6.59 6.59 0 0 1 -3.4 2.11c-3.3.79-4.08 2-4.05 6a15.07 15.07 0 0 0 .15 2.32 25.15 25.15 0 0 1 .14 7.5 11.68 11.68 0 0 0 .46 4 5.91 5.91 0 0 1 .05 3.41c-.94 2.62-.86 5.34-.86 8v29.64c0 7.72 1 15.43.09 23.15a2.59 2.59 0 0 0 0 .56c.13 2.12 1.12 2.9 2.83 3a18.4 18.4 0 0 1 2.87.22 2.16 2.16 0 0 1 1.61 1.52 2.5 2.5 0 0 1 -.88 2.59 18.77 18.77 0 0 1 -2.57 1.3 4.08 4.08 0 0 0 -2.72 4.07c0 3.87-.1 7.74.09 11.61a21.7 21.7 0 0 0 1.22 5 3.09 3.09 0 0 0 2 2 40.18 40.18 0 0 0 4.48 1.12 12.43 12.43 0 0 0 7.36-1 4 4 0 0 0 2.43-3.06 8.06 8.06 0 0 0 .16-2.3c-.77-7.89-.31-15.82-.14-23.75zm142.23-366.73c.3-.05 1.63-.25 2.92-.56a1.2 1.2 0 0 0 .63-.87 1.49 1.49 0 0 0 -.36-1 2.27 2.27 0 0 0 -.93-.66c-5.07-1.89-10.06-3.95-15.24-5.59s-9.8-3.58-13.8-7.13a5.71 5.71 0 0 0 -1.49-.87 6 6 0 0 0 -3.4-.46 2.07 2.07 0 0 0 -1.81 2.29 1.42 1.42 0 0 0 0 .2 12 12 0 0 0 2.46 4.56c.74.89 1.59 1.68 2.3 2.6a2.63 2.63 0 0 1 -1.68 4.39c-1.94.14-3.83.22-5.5 1.42a3.57 3.57 0 0 1 -3.36.43c-2-.68-3.75 0-5.48 1a13.2 13.2 0 0 0 -4.66 4.25c-1.17 1.84-2.39 2.24-4.27.68a9 9 0 0 0 -.92-.71c-1.77-1.12-3.09-1-4.65.51-1.24 1.22-2.34 2.57-3.51 3.86a2.56 2.56 0 0 1 -3.15.71 25.46 25.46 0 0 0 -7.09-2.44 11.43 11.43 0 0 0 -6.81.63 18.15 18.15 0 0 1 -3.22 1.28 4.28 4.28 0 0 1 -2.24-.27 3.53 3.53 0 0 1 -1.35-1.07c-1.27-1.46-2.7-2.09-4.63-1.3-1.47.6-2.61 0-3.53-1.23a4.46 4.46 0 0 0 -.86-.76c-.39-.28-1.21 0-1.48.5a7.33 7.33 0 0 0 -.36 6.71c1.8 4.63 4.92 8.31 8.46 11.63a50.63 50.63 0 0 1 5.59 5.85 16.74 16.74 0 0 0 4.81 4.14c1.5.88 2.9 1.93 4.4 2.79a27.84 27.84 0 0 0 3.64 1.78 3.26 3.26 0 0 0 3.33-.06c1.26-.95 1.19-2.41.82-3.72a58.79 58.79 0 0 0 -2-6 52.79 52.79 0 0 1 -2.88-10c-.28-1.53-.45-3.11.94-4.29.84-.71 2.37-.17 3.84 1.75 3.08 4 7 7.16 10.62 10.69a17.25 17.25 0 0 0 3.82 2.56 3.25 3.25 0 0 0 3.35 0c.92-.56 1.22-2.12.69-3.72-.37-1.11-.85-2.15-1.21-3.26a27.62 27.62 0 0 1 -1.09-3.91 9.15 9.15 0 0 1 .09-2.86 2.39 2.39 0 0 1 3.65-1.47 25.77 25.77 0 0 1 2.93 2.79 15.15 15.15 0 0 0 5.67 3.92 3 3 0 0 0 1.68.22 2.09 2.09 0 0 0 1.2-1.06 3 3 0 0 0 .08-1.67c-.27-1.33-.71-2.61-1-3.92s1.34-3 2.84-3.08a7.65 7.65 0 0 1 3.91 1c1.71.89 3.39 1.86 5.08 2.8a18.75 18.75 0 0 0 8.86 2.43c2.31 0 4.61.42 6.92.59a10.92 10.92 0 0 0 2.28-.19 1.8 1.8 0 0 0 1-1.88 5.24 5.24 0 0 0 -.73-1.55 42.17 42.17 0 0 0 -3.25-3.3 34.42 34.42 0 0 1 -5.72-7.27 3 3 0 0 1 0-3.3 3.37 3.37 0 0 1 3-1.42 9.87 9.87 0 0 1 2.29.31 17.13 17.13 0 0 1 2.2.72 21.69 21.69 0 0 0 7.29.9zm-54.23 367.66a32.48 32.48 0 0 1 -1.05 8 8.15 8.15 0 0 1 -4 5.45 32.66 32.66 0 0 0 -8.6 6.82 8.93 8.93 0 0 1 -.85.78 4 4 0 0 1 -3.8.93 36.68 36.68 0 0 1 -5.46-1.88 16 16 0 0 0 -9.64-1c-3.56.56-6 1.78-6.07 6.36-.07 3.7-1.48 6.3-4.93 7.73a2.28 2.28 0 0 0 -.46.36 2.84 2.84 0 0 0 -1.06 3.09c1.12 3.09 2.23 6.15 3.41 9.24a6.16 6.16 0 0 0 3.53 3.64c3.21 1.33 4.62 3.92 5.07 7.21.13 1 .27 1.91.46 2.86.26 1.31 1.44 1.64 2.65.73.46-.35.84-.81 1.3-1.15a1.39 1.39 0 0 1 2.3.68c.29 1.12.47 2.27.81 3.35a3.36 3.36 0 0 0 .9 1.46 6.29 6.29 0 0 0 4.21 1.68 1.17 1.17 0 0 0 .9-.6 6.94 6.94 0 0 0 .5-2.24c.07-4.64.3-9.28-.62-13.88a6.8 6.8 0 0 1 .16-2.84c.11-.43.75-.81 1.23-1a1.19 1.19 0 0 1 1.05.31 7.7 7.7 0 0 1 1.44 1.77c.65 1.19 1.12 2.48 1.79 3.64a2.69 2.69 0 0 0 1.31 1c.52.21 1.29-.56 1.5-1.47s.35-1.9.6-2.84a9.53 9.53 0 0 1 .68-1.58 1.74 1.74 0 0 1 2.52-.39c.89 1 1.68 2.11 2.59 3.09a2.27 2.27 0 0 0 3.48-.68 10.81 10.81 0 0 0 .82-3.36 65.82 65.82 0 0 0 -.39-13.31 4.35 4.35 0 0 1 1.28-4.25c2.83-2.57 3.46-6.41 5.5-9.44a3.32 3.32 0 0 0 .51-1.61c.26-5.21.74-10.44-.63-15.58a16.46 16.46 0 0 1 -.64-6.86 13.36 13.36 0 0 0 -.63-6.3 39.53 39.53 0 0 1 -1.47-7.38c-.43-3.25-1.12-6.48-1.68-9.71a1.41 1.41 0 0 0 -.21-.56c-.1-.14-.33-.38-.38-.35-.3.15-.78.37-.79.55q-.23 6.38-.34 12.74a54.51 54.51 0 0 0 .75 11.55 45 45 0 0 1 .49 5.3zm-46.43-44.72v-32.51c0-1.75 0-3.49-.07-5.22a28.68 28.68 0 0 0 -2.18-9.58 3.92 3.92 0 0 0 -3.09-2.37 14.09 14.09 0 0 0 -7.41.81 4.74 4.74 0 0 0 -3.36 4.9c.07 1.92.6 3.87.46 5.77-.37 4.68.67 9.24 1.05 13.85s.56 8.86.65 13.31a52.5 52.5 0 0 0 .4 7.52 64.12 64.12 0 0 1 .74 11v11.6a25.76 25.76 0 0 0 .23 5.21c1.12 5.37.87 10.79.93 16.22a44.73 44.73 0 0 0 .38 6.94 63.1 63.1 0 0 1 .77 11c0 1.94.05 3.87.15 5.81a7.64 7.64 0 0 0 1.6 4.29c1.61 2.08 3.76 2.56 6.23 2a4.64 4.64 0 0 0 3.41-4.24 21.13 21.13 0 0 0 .22-4.05q-.39-5.5-1-11c-.37-3.31-1-4.29-4.18-4.36a2.17 2.17 0 0 1 -.56-.13 2.55 2.55 0 0 1 .83-5c.56 0 1.16.14 1.73.14a1.74 1.74 0 0 0 1.68-1.35 15.33 15.33 0 0 0 .36-2.86c-.11-6.19.83-12.36.09-18.55a42.23 42.23 0 0 1 -.05-4.64q-.06-7.24-.01-14.51zm-128.35 60.38c4.51.14 5.87-.94 6.41-4.34.11-.76.25-1.52.37-2.29.37-2.44-.18-3.91-2.94-4.84a10.23 10.23 0 0 1 -1.59-.7 2 2 0 0 1 -.58-2.84 1.33 1.33 0 0 1 .14-.19 5.93 5.93 0 0 1 1.21-1.24c2.67-1.57 3.41-4 3.3-6.92-.06-1.54 0-3.09 0-4.64v-34.28a55.24 55.24 0 0 0 -.78-11 20.57 20.57 0 0 1 -.35-4.63 76 76 0 0 0 -1.11-12.69 9 9 0 0 0 -2.6-5.66 4.15 4.15 0 0 1 -1.13-4.74c.63-1.88-.14-2.8-2.07-3.4a33.33 33.33 0 0 0 -4-.84 4.16 4.16 0 0 0 -1.11.18c-.69.12-1.27 1.34-.84 1.84a14.75 14.75 0 0 0 1.61 1.65 3 3 0 0 1 -.65 5.24 10 10 0 0 1 -1.06.46 3.23 3.23 0 0 0 -2.11 3.17 66 66 0 0 0 .23 11.59 14.34 14.34 0 0 1 .18 4 88 88 0 0 0 -.47 16.22c.14 4.83.15 9.64 0 14.47-.23 7.35-.06 14.7 0 22a25.9 25.9 0 0 0 .32 4 3.24 3.24 0 0 0 2.97 3.22 16.57 16.57 0 0 1 2.79.63c.79.24.9 1.9.33 2.52-1 1.07-2.46 1.12-3.56 1.87a6.17 6.17 0 0 0 -2 2 5.56 5.56 0 0 0 1.38 6.84 13.72 13.72 0 0 0 7.71 3.34zm74.64 34.54c0-2.62.1-4.76 0-6.88a15.85 15.85 0 0 0 -.83-3.91 4 4 0 0 0 -4.17-2.5 3.84 3.84 0 0 0 -1.12.16 17 17 0 0 1 -9.08 1.16 7.67 7.67 0 0 0 -2.29.25 9.3 9.3 0 0 1 -5.14-.51 20.44 20.44 0 0 0 -7.38-1.31 18.18 18.18 0 0 1 -3.45-.42 3.62 3.62 0 0 1 -2.59-2.14 27.17 27.17 0 0 1 -1.07-3.31 4.73 4.73 0 0 0 -3.51-3.53 57.66 57.66 0 0 0 -9.65-1.93 16.28 16.28 0 0 0 -10.92 3.24 7.47 7.47 0 0 0 -3.15 4.72 21.67 21.67 0 0 0 .45 10.9 2 2 0 0 0 2.13 1.59 2.62 2.62 0 0 1 .56 0 2.43 2.43 0 0 1 2.34 2.1c.36 2.16-.23 4.24-.47 6.34a30.22 30.22 0 0 0 -.08 3.43c0 .48.84 1.12 1.26.95s.83-.35.9-.63c.56-2 .93-4.14 1.5-6.19a25.41 25.41 0 0 1 1.46-3.74 1.11 1.11 0 0 1 .95-.39 1.26 1.26 0 0 1 .82.67 4.88 4.88 0 0 1 .37 1.68c.08 1.16.09 2.32.1 3.48 0 1.74 0 3.49.07 5.22a9.7 9.7 0 0 0 .37 2.28 1.16 1.16 0 0 0 .77.71 1.06 1.06 0 0 0 .92-.44c.61-1.62 1.12-3.27 1.68-4.91a3.49 3.49 0 0 1 4-2.54c1 .13 1.88.43 2.84.55a2.05 2.05 0 0 0 2-.87c.76-1.12 1.41-2.3 2.14-3.44a2 2 0 0 1 2.08-.7 17.92 17.92 0 0 1 2.08 1 2.83 2.83 0 0 0 3.26-.13 8.87 8.87 0 0 1 1.52-.81 2.57 2.57 0 0 1 2.6.86 5.07 5.07 0 0 1 1.27 3.18c0 2.51 0 5-.14 7.52-.06 1.35-.44 2.68-.5 4a5 5 0 0 0 1.35 3.71 2.61 2.61 0 0 0 3.68.32 2.7 2.7 0 0 0 .69-.88 10 10 0 0 0 .93-4.51 47.21 47.21 0 0 1 1.53-10.31 35 35 0 0 1 1.87-5.48 5.71 5.71 0 0 1 1.5-1.67 1.47 1.47 0 0 1 2 .66 14 14 0 0 1 .36 2.23c0 1.55-.13 3.1 0 4.64.17 2.15 1.26 3 2.79 3.21.56.09 1.16.12 1.73.24a2.46 2.46 0 0 1 1.91 1.95c.38 1.5.56 3.05 1 4.53a3.24 3.24 0 0 0 2.35 2.34c.51.14 1.43-.22 1.48-.67a24.36 24.36 0 0 0 .24-3.42c-.18-4.07-1.38-8.09-.28-11.66zm-136.65-410.83v-.13c1.54.09 3.09.13 4.62.29a5.73 5.73 0 0 1 1.6.6 1.49 1.49 0 0 1 .36 2 8.14 8.14 0 0 1 -1.26 1.16 29.13 29.13 0 0 1 -3 1.68 38.45 38.45 0 0 0 -7.2 4.84 11.58 11.58 0 0 0 -3.95 6.27 2.45 2.45 0 0 0 2.8 3.26 21.41 21.41 0 0 0 3.35-.87c4.54-1.68 9.14-3.16 13.56-5.1s8.52-3.61 13.26-3.86a8.17 8.17 0 0 0 4.78-1.93 48.68 48.68 0 0 0 7.72-7.8 2.22 2.22 0 0 0 .17-1.62c-.13-.6-1.24-.94-2-.69-1.29.42-2.55.91-3.84 1.31a1.61 1.61 0 0 1 -1.12-.1c-.25-.16-.56-.69-.47-.9a3 3 0 0 1 1-1.33c2.3-1.42 4.68-2.72 7-4.14a8.74 8.74 0 0 0 2.13-1.89 1.93 1.93 0 0 0 .16-2.18 2 2 0 0 0 -1.89-1.07 11.12 11.12 0 0 0 -1.16.13c-3.83.9-7.35 2.35-10 5.45-3 3.47-7 5.41-10.85 7.63a1.84 1.84 0 0 1 -1.12.25 1.92 1.92 0 0 1 -.92-.56.57.57 0 0 1 -.05-.55 4.74 4.74 0 0 1 .91-1.45c2.24-1.87 4.48-3.65 6.71-5.51a12.82 12.82 0 0 0 1.53-1.68 1.22 1.22 0 0 0 -.56-1.48 7.09 7.09 0 0 0 -2.24-.26c-1.71.27-3.39.75-5.09 1.08-.32.06-.72-.2-1-.38s-.25-1.2.18-1.57c1.32-1.12 2.7-2.18 4-3.33q1.26-1.17 2.4-2.46c.09-.1 0-.4 0-.56s-.32-.34-.45-.32c-1.89.35-3.76.86-5.66 1.07a15.64 15.64 0 0 0 -8 3.13 20.11 20.11 0 0 1 -7.36 3.32 3.79 3.79 0 0 1 -3.31-.51c-.31-.22-.62-.46-.92-.7a3.29 3.29 0 0 0 -3.27-.56 90.25 90.25 0 0 0 -18.4 8.42c-1.82 1.12-3.55 2.34-5.28 3.58a11.54 11.54 0 0 0 -1.68 1.6 2.23 2.23 0 0 0 .51 3.07 5.25 5.25 0 0 0 1.56.71c2.28.37 4.58.72 6.89.93a9.14 9.14 0 0 0 2.85-.31c3-.71 6-1.55 9-2.24a12.78 12.78 0 0 0 5.28-2.24 8.11 8.11 0 0 1 4.89-1.55zm77.57 332.22v33.67c0 2.52 0 5 .05 7.55a18.11 18.11 0 0 0 .45 3.43 3.18 3.18 0 0 0 1.74 2.23c2 1 5.53.38 7-1.37a5.12 5.12 0 0 0 1.08-2.61c.24-2.5.12-5 .39-7.53.35-3.08.77-6.11.18-9.23a16.71 16.71 0 0 1 .21-4c.19-2.7.5-5.39.56-8.09.09-4.47-.05-8.9.07-13.35a70.39 70.39 0 0 1 .65-8.08 40.88 40.88 0 0 0 -.1-13.29 21.49 21.49 0 0 1 0-8.64 18 18 0 0 0 .19-7.49 52.52 52.52 0 0 1 -.83-10.4 22.32 22.32 0 0 0 -.28-3.46 3.92 3.92 0 0 0 -4.43-3.33h-.24c-2.07.49-4.1 1.12-6.11 1.78a2.06 2.06 0 0 0 -1.3 1.8 9.27 9.27 0 0 0 0 2.88 53.15 53.15 0 0 1 .74 11q-.03 18.25-.02 36.53zm138.28-51.13c0-6 0-12 0-18a43.42 43.42 0 0 0 -.5-6.93 27.87 27.87 0 0 1 0-10.38 30.32 30.32 0 0 0 .05-11.55 49.38 49.38 0 0 1 -.69-9.25v-16.85c0-7.18-.9-14.28-1.41-21.43a1.81 1.81 0 0 0 -.36-1.07 3.15 3.15 0 0 0 -1.34-.84c-.24-.06-.67.33-.89.61a2.21 2.21 0 0 0 -.42 1.07c-.46 3.65-1.12 7.27-1.27 10.94a152.42 152.42 0 0 0 .48 23.21 71.92 71.92 0 0 1 -.21 19.66 30.24 30.24 0 0 0 -.39 5.21c0 5.59-.3 11.23.36 16.83a25.1 25.1 0 0 1 -.07 3.47c-.1 4.47-.23 8.9-.31 13.35a18.35 18.35 0 0 0 1 6.27 15.71 15.71 0 0 1 1.09 4.47c.06 4.86.86 9.64 1.33 14.45.17 1.73.37 3.46.45 5.2a23.77 23.77 0 0 1 0 4.62 26.76 26.76 0 0 0 .26 9.23 27.93 27.93 0 0 1 0 9.82 67.12 67.12 0 0 0 -.63 7.5c-.1 2.71 0 5.42 0 8.14a46.24 46.24 0 0 0 .74 9.82 16.55 16.55 0 0 1 0 6.35 25.05 25.05 0 0 0 -.45 3.45 7.12 7.12 0 0 0 .48 2.23 2.36 2.36 0 0 0 2.32 1.41 2.08 2.08 0 0 0 1.82-1.26 10 10 0 0 0 .8-3.35c0-5 .11-10.07-.21-15.1-.4-6.37-.95-12.73-.87-19.13s0-12.78 0-19.16a31.11 31.11 0 0 0 -.32-5.79 63.91 63.91 0 0 1 -.81-12.73q0-7.23 0-14.49zm388.51-1.29c3.46.06 5.49-1.31 6.38-4.68a60.92 60.92 0 0 0 1.22-6.83c.29-2.1.56-4.22.71-6.33a99.14 99.14 0 0 1 2.59-16.67 19.78 19.78 0 0 0 .28-2.3c1-7.48 1.86-15 3.51-22.37a45.47 45.47 0 0 0 1-6.88 48.27 48.27 0 0 1 1.16-8 22.54 22.54 0 0 0 .65-4 3.79 3.79 0 0 0 -4.82-3.6 8 8 0 0 0 -5.52 4.76 65.82 65.82 0 0 0 -2.79 10c-1 5.32-1.68 10.7-2.36 16.07-.6 4.79-1.58 9.55-1.44 14.43a16.69 16.69 0 0 1 -.42 3.45c-1 5.31-2.15 10.62-3.12 15.95-.62 3.42-1.06 6.88-1.54 10.33a10.5 10.5 0 0 0 0 2.31 4.47 4.47 0 0 0 4.58 4.31zm-456.23-424.79c.16-1.05.35-2.2.5-3.36a2.22 2.22 0 0 0 -1.12-2.46 9 9 0 0 0 -1-.56 4 4 0 0 1 -2.29-3.73c-.13-2.32-1.27-2.85-3.63-1.94a6 6 0 0 0 -2.72 2.08c-.9 1.21-1.34 3-3.15 3.13-2 .16-2.33-1.73-3.18-2.94a3.15 3.15 0 0 0 -2.42-1.38 11.22 11.22 0 0 0 -1.16 0 9.52 9.52 0 0 1 -7.56-3.64c-.38-.44-.76-.88-1.17-1.29a3.15 3.15 0 0 0 -2.63-.95 25 25 0 0 0 -3.42.6 4 4 0 0 0 -2.95 2.54 45.9 45.9 0 0 0 -3 11.18 9 9 0 0 0 .06 1.72c0 .17.18.44.3.45.35 0 .89.11 1-.08 1-1.42 1.88-2.9 2.79-4.36a6.28 6.28 0 0 1 2.46-2.39 2 2 0 0 1 2.5.84 7.2 7.2 0 0 1 .52 1.65 14.51 14.51 0 0 0 2.32 7.07 5 5 0 0 1 .66 3.36 19.83 19.83 0 0 0 -.12 2.88 5.75 5.75 0 0 0 1.59 3.64 2.11 2.11 0 0 0 3.08-.1 37.58 37.58 0 0 0 1.91-3.55c.6-1.2 1.11-2.46 1.75-3.63a1.88 1.88 0 0 1 3 .17 19.73 19.73 0 0 1 1.3 3.79 14.67 14.67 0 0 0 4.92 8.33 30 30 0 0 0 3.66 2.8 2.5 2.5 0 0 0 3.4-1l.06-.12a42.43 42.43 0 0 0 1.49-5c.45-1.87.63-3.82 1.15-5.67.81-2.62 1.55-5.21 1.1-8.08zm-20.5-69.4c-.53 0-1.5.05-2.45.19a3.33 3.33 0 0 0 -2.32 1.58 5.35 5.35 0 0 0 -.79 1.54c-1.08 4.1-2.12 8.2-3.15 12.3a.92.92 0 0 0 .14.56c.08.17.22.41.36.42a1.65 1.65 0 0 0 1.07-.09c1.29-1 1.3-2.74 2-4.08a2.11 2.11 0 0 1 4.14.42c.42 1.27.63 2.62 1 3.91.83 2.79 1.63 5.55 2.62 8.26a12 12 0 0 0 1.92 2.85 1.68 1.68 0 0 0 2.37 0 1.54 1.54 0 0 0 .17-.19 22.44 22.44 0 0 0 2.27-4 48.56 48.56 0 0 0 3.38-13.99 13.25 13.25 0 0 1 .71-3.35 2.62 2.62 0 0 1 1.23-1.12 1.92 1.92 0 0 1 2 .75 10.79 10.79 0 0 1 1.25 2.58 21.53 21.53 0 0 1 .56 4 21.88 21.88 0 0 0 1.68 7.3 40.55 40.55 0 0 1 2.23 7.77 45.41 45.41 0 0 0 1.19 4.48 4 4 0 0 0 .87 1.47 1.33 1.33 0 0 0 1 .37 1.34 1.34 0 0 0 .92-.56 8 8 0 0 0 .91-2.1 52.27 52.27 0 0 0 1.16-5.67c.56-4.8 1.11-9.56 3.35-14a6.88 6.88 0 0 0 .21-3.4 2.17 2.17 0 0 0 -2.31-2 1.91 1.91 0 0 0 -.62.13c-.89.37-1.67.91-2.58 1.29a2.06 2.06 0 0 1 -2.67-1.17c0-.07-.05-.15-.08-.22-.17-1.12-.15-2.31-.34-3.44a2.33 2.33 0 0 0 -.73-1.5c-2.65-1.61-5.37-3-8.68-2.57a4.1 4.1 0 0 0 -3.55 2.54c-.61 1.41-1.2 2.84-1.89 4.21a2 2 0 0 1 -1.87 1.15 1.85 1.85 0 0 1 -1.68-1.36c-.29-1.12-.5-2.24-.8-3.36a2.61 2.61 0 0 0 -2.63-1.87c-.37-.04-.75-.03-1.57-.03zm111.44 340.45c0-1.93.05-3.87 0-5.8a15.39 15.39 0 0 0 -.4-2.86 2.47 2.47 0 0 0 -4.15-1.11 7.61 7.61 0 0 0 -1.59 2.36 11 11 0 0 0 -.68 3.36 63.06 63.06 0 0 0 .43 12.73 53.74 53.74 0 0 1 .56 7.5c.1 4.83 0 9.66.12 14.49.07 2.53.23 5-.62 7.46a4.42 4.42 0 0 0 -.24 2.28c.69 3.26 0 6.57.44 9.82a20.44 20.44 0 0 1 -.31 6.34 36.85 36.85 0 0 0 0 12.13 69.63 69.63 0 0 1 .64 7.49c.1 2.9 0 5.8 0 8.71 0 1.54 0 3.09.11 4.63a12.27 12.27 0 0 0 .66 2.8 2.61 2.61 0 0 0 2.8 1.57 2.38 2.38 0 0 0 1.84-2 14.74 14.74 0 0 0 -.05-3.45 43.81 43.81 0 0 1 -.7-8.08v-44.66a36.5 36.5 0 0 1 .41-6.35 33.77 33.77 0 0 0 0-13.25 13.32 13.32 0 0 1 0-5.76 43.15 43.15 0 0 0 .69-10.35zm2.66-150.67c.39 0 .77-.06 1.15-.12 3.17-.56 4.48-2.52 3.64-5.32a9.74 9.74 0 0 1 0-5.66 2.77 2.77 0 0 0 -.83-2.64 21 21 0 0 0 -5.12-3.71c-7-4-14.84-6.5-21.3-11.52a2 2 0 0 0 -2.88 1 10.76 10.76 0 0 0 -.61 2.24c-.23 1.9-1.87 3.64-1.19 5.55a27.42 27.42 0 0 0 3 5.55 11.86 11.86 0 0 0 2.39 2.46c1.75 1.51 3.6 2.9 5.34 4.42a51.38 51.38 0 0 0 9.74 6.18 13.5 13.5 0 0 0 6.67 1.57zm-101.31 286.17c2.32-.3 4.84-.48 7.27-1 2.95-.62 3.92-1.89 4.2-4.76.2-2.31.24-4.65.61-6.93a17.58 17.58 0 0 0 -.56-7.46 4 4 0 0 0 -3.7-3.15c-3.47-.38-6.92-.79-10.39-1.12a14.31 14.31 0 0 0 -3.49.15 6.59 6.59 0 0 0 -5.45 6 7.15 7.15 0 0 0 0 1.73 23.46 23.46 0 0 1 0 9.22 7.16 7.16 0 0 0 0 2.31 4 4 0 0 0 2.18 3.24 9.36 9.36 0 0 0 2.69 1c2.2.33 4.32.5 6.64.77zm81.26 56.63h-.06c0 2.32.1 4.64 0 7-.14 2.5-.54 5-.75 7.49a13.86 13.86 0 0 0 0 2.88c.36 3.26.67 6.54 1.23 9.76a53.84 53.84 0 0 1 .7 9.23v10.43a18.72 18.72 0 0 0 .51 3.41 2.23 2.23 0 0 0 2.79 1.36 4.85 4.85 0 0 0 3.36-3 15.83 15.83 0 0 0 .88-3.91c.26-2.88.47-5.78.5-8.67a37.38 37.38 0 0 0 -.38-6.93 62.18 62.18 0 0 1 -.72-10.38v-12.77a32.27 32.27 0 0 0 -.3-5.2 63 63 0 0 1 -.91-9.79 13.43 13.43 0 0 0 -.56-3.4 2.83 2.83 0 0 0 -4.29-1.34 3.65 3.65 0 0 0 -1.63 2.3 14.47 14.47 0 0 0 -.38 2.86v8.67zm-33.85-101.13h.29c-.16-2.69-.23-5.39-.52-8.07a3.19 3.19 0 0 0 -2.49-2.9c-3-.63-6.05-1.2-9.11-1.53a14.34 14.34 0 0 0 -6.77 1.26 4.66 4.66 0 0 0 -2.88 3.4 13.05 13.05 0 0 0 -.4 2.85 89.21 89.21 0 0 1 -.75 9.8c-.48 3.55 1.45 6.15 4.93 6.61a53.57 53.57 0 0 0 13.27.06 4.5 4.5 0 0 0 4.41-4.53c.14-2.31 0-4.63 0-7zm-10.67 43v.11c2.89-.17 5.77-.33 8.66-.52a3.1 3.1 0 0 0 2.85-2.47 18.69 18.69 0 0 0 .41-3.42c0-3.67 0-7.34-.28-11a4.42 4.42 0 0 0 -4.56-4.27 4.9 4.9 0 0 0 -.67.07 34.52 34.52 0 0 1 -8.62-.24 25.64 25.64 0 0 0 -5.74.17 3.69 3.69 0 0 0 -3 2.47c-.21.56-.4 1.08-.55 1.64-1.68 5.59-.84 11.06.69 16.52a2.74 2.74 0 0 0 2.74 1.72c2.69-.24 5.37-.53 8.05-.8zm-106.56-9.77v-6.4a8.33 8.33 0 0 0 -.11-1.12 4.25 4.25 0 0 0 -3.1-3.78 15.25 15.25 0 0 0 -3.91-.72 44.26 44.26 0 0 0 -5.75.34c-3.21.34-4.83 1.9-5.36 5a14.7 14.7 0 0 0 -.24 2.29v11a13.14 13.14 0 0 0 .4 2.85 5.1 5.1 0 0 0 2.26 3.23 17.41 17.41 0 0 0 10.44 2.67 4.63 4.63 0 0 0 4.22-3.41 20 20 0 0 0 1.18-6.21c0-1.94 0-3.85 0-5.78zm-10.4-248.27c.26-2.23-1.23-3.4-3.23-2.49a42 42 0 0 0 -4.05 2.24c-1.5.88-2.92 1.89-4.43 2.75a8.69 8.69 0 0 1 -2.17.68.58.58 0 0 1 -.51-.17c-.13-.32-.35-.8-.21-1a10.14 10.14 0 0 1 1.84-2.18c1.2-1 2.54-1.76 3.81-2.64.8-.52 1.58-1.08 2.33-1.68a6 6 0 0 0 1-1.38 2.46 2.46 0 0 0 -.25-2.71 2.29 2.29 0 0 0 -2.1-.71 4.33 4.33 0 0 0 -3.65 2.51c-1.73 3.65-4.75 5.93-7.89 8.25-4 3-7.76 6.34-11.58 9.58a22 22 0 0 0 -2.38 2.54 12.5 12.5 0 0 0 -2.63 5.1 9.91 9.91 0 0 0 -.17 1.71 2 2 0 0 0 1.53 1.51 5.46 5.46 0 0 0 1.71-.16 83.68 83.68 0 0 0 8-3.36 61.72 61.72 0 0 1 6.89-3 27.66 27.66 0 0 0 4.76-2.1c2.48-1.46 4.89-3.09 7.26-4.75a30.45 30.45 0 0 0 3.56-2.95 7.83 7.83 0 0 0 2.53-5.59zm23.35 215.45c0 2.3-.12 4.62 0 6.91.18 2.72 1.67 4.17 4.47 4.31 3.07.15 6.15 0 9.22 0a6.43 6.43 0 0 0 1.68-.34 3.75 3.75 0 0 0 2.66-2.8 8.48 8.48 0 0 0 .25-1.11c.4-3.44.9-6.86 1.15-10.31a30.51 30.51 0 0 0 -.24-5.73 2.66 2.66 0 0 0 -2.24-2.38c-3.42-.46-6.86-.8-10.3-1a8.82 8.82 0 0 0 -2.79.56c-2.45.67-3.7 2-3.85 4.44s-.05 5-.05 7.51zm-.27 34.17h.1v4a49.35 49.35 0 0 0 .39 5.16 2.72 2.72 0 0 0 2.24 2.4q5.69.81 11.43 1.33c1.52.13 2.79-1.12 3.23-2.8a34.27 34.27 0 0 0 -.25-17.1 15.2 15.2 0 0 0 -.76-2.18 4.35 4.35 0 0 0 -3.91-3c-2.68-.15-5.38-.06-8.06-.07a2.62 2.62 0 0 0 -.56.09 3.89 3.89 0 0 0 -3.4 3.43c-.28 2.91-.32 5.8-.45 8.68zm71.08-66.3c-.15-1.73-.23-4-.62-6.31a4 4 0 0 0 -3.48-3.42c-2.84-.49-5.68-1-8.55-1.28a34.62 34.62 0 0 0 -5.76 0c-2.72.19-4.31 1.62-4.65 4.27-.4 3.24-.64 6.5-.88 9.76a3.85 3.85 0 0 0 2.43 3.61 9.32 9.32 0 0 0 2.8.67 90.67 90.67 0 0 1 10.9 1.12 16.89 16.89 0 0 0 4 0 3.57 3.57 0 0 0 3.47-3.25c.17-1.52.19-3 .32-5.16zm11.4-.79h.12c0 1.55-.07 3.09 0 4.63.21 4.48 1.72 5.91 6.05 5.86a16.56 16.56 0 0 0 1.73-.09c3.26-.38 6.52-.74 9.77-1.16a4.51 4.51 0 0 0 4.17-4.15 42.08 42.08 0 0 0 0-11.54 4.12 4.12 0 0 0 -3.47-3.44 9.2 9.2 0 0 0 -2.87-.09 28.5 28.5 0 0 1 -9.79.35 5.53 5.53 0 0 0 -1.15 0 4.2 4.2 0 0 0 -4.31 3.86c-.13 1.91-.13 3.85-.25 5.78zm503 139.83a32.66 32.66 0 0 0 -.73-3.8c-1.43-5-2.95-10-4.47-15a6.93 6.93 0 0 0 -2.2-3.29 5.31 5.31 0 0 0 -6-.5 4.35 4.35 0 0 0 -2.23 4.4c.15 1.92.55 3.82.68 5.74a34.79 34.79 0 0 0 2.11 10.18 23.58 23.58 0 0 1 1.45 7.34 63.19 63.19 0 0 0 2.35 13.09 4.31 4.31 0 0 0 .76 1.53 1.35 1.35 0 0 0 1 .51 1.25 1.25 0 0 0 .94-.56 27.65 27.65 0 0 0 1.55-4.93c.5-3.1 1.21-6 3.23-8.54 1.21-1.51 1.63-3.44 1.6-6.18zm-595.66-107.38h-.15c0-1.74.06-3.48 0-5.22a19.86 19.86 0 0 0 -.51-3.43 3.26 3.26 0 0 0 -3-2.33c-3.08.07-6.15.15-9.25.31a13.11 13.11 0 0 0 -2.84.56 3.28 3.28 0 0 0 -2.63 2.8q-.72 7.19-1.23 14.42a3.59 3.59 0 0 0 2.56 3.5 16.54 16.54 0 0 0 1.68.56 31.7 31.7 0 0 0 11.53.38 3.74 3.74 0 0 0 3.44-3.4c.21-2.74.26-5.45.4-8.15zm59-91c.18 2 .23 3.75.49 5.45a4.21 4.21 0 0 0 2.8 3.45 31.61 31.61 0 0 0 13 2 5.65 5.65 0 0 0 5.13-4 12.64 12.64 0 0 0 .66-4 32.72 32.72 0 0 0 -1.46-9.1 3.1 3.1 0 0 0 -2.47-2.19 19.54 19.54 0 0 0 -2.28-.32c-2.49-.28-5-.54-7.46-.8-.77-.08-1.53-.19-2.3-.2a5.07 5.07 0 0 0 -5.43 4.21 53.4 53.4 0 0 0 -.7 5.46zm12.77 39c1.73-.1 3.46-.12 5.17-.32a4.35 4.35 0 0 0 3.86-3.72 27.64 27.64 0 0 0 .18-8.61c-.35-3-1.68-4.61-4.65-5-4-.56-8-.91-12-1.25a8.74 8.74 0 0 0 -2.83.41 3.89 3.89 0 0 0 -3.24 3.58 82.63 82.63 0 0 0 -.08 8.62c.13 2.79 1.68 4.54 4.48 5.3a36.33 36.33 0 0 0 9.09.99zm-59.23-34.2c.13 2.13.18 4.44.43 6.71a3.24 3.24 0 0 0 2.57 2.8 15.29 15.29 0 0 0 2.83.51 44.45 44.45 0 0 0 10.37-.56 3.79 3.79 0 0 0 3.35-3.46c.22-2.68.27-5.38.26-8.07a23.5 23.5 0 0 0 -.48-4.58c-.56-2.59-2.2-4.19-4.74-4.33a94.22 94.22 0 0 0 -9.8 0c-2.59.12-4.13 1.75-4.47 4.47-.23 2.07-.23 4.21-.34 6.51zm101.28-4.36h-.12v-4a11.13 11.13 0 0 0 -.09-1.15c-.25-2.29-1.43-3.7-3.62-3.76-3.85-.12-7.7-.19-11.54 0a5.75 5.75 0 0 0 -5.21 6.48c.24 2.87.56 5.75.93 8.61a4.56 4.56 0 0 0 4.18 4.13 8 8 0 0 0 2.29.15c3.24-.46 6.49-.92 9.69-1.58a4 4 0 0 0 3.17-3.7c.2-1.71.22-3.45.32-5.18zm-23.29-267c.3-1.35.5-2.49.83-3.59a5.9 5.9 0 0 1 .86-1.5 1.9 1.9 0 0 1 3-.15c1 1.43 1.79 2.95 2.66 4.44.31.51 1.16.88 1.47.53a2.47 2.47 0 0 0 .73-1.43 9.11 9.11 0 0 0 -.46-2.24 33 33 0 0 1 -1.15-4.47c-.27-2.59-.94-4.88-3.06-6.62a5.32 5.32 0 0 1 -1.11-2 14.18 14.18 0 0 1 -.52-1.68c-.49-1.57-1.32-2.8-3.15-2.95-1.5-.11-2.61.77-3.35 2.65-.36.89-.61 1.83-1 2.72a3 3 0 0 1 -3.35 1.67c-.94-.18-1.85-.53-2.8-.72a2.35 2.35 0 0 0 -2.58 1.82 2 2 0 0 0 .66 2.1 7.18 7.18 0 0 1 2.94 6.55 16 16 0 0 0 3.24 10.3c.67.94 1.16 2 1.82 3a8.48 8.48 0 0 0 1.54 1.68 2.52 2.52 0 0 0 2.7.5 2.46 2.46 0 0 0 1.54-2.28 19.64 19.64 0 0 0 -.44-3.42c-.31-1.67-.71-3.35-1-4.88zm441.52 457.33h-.11c0-.77.05-1.55 0-2.32a32 32 0 0 0 -.47-4 3.78 3.78 0 0 0 -2.54-2.94 7.77 7.77 0 0 0 -5.65.25 4.23 4.23 0 0 0 -2.34 2.44 11.66 11.66 0 0 0 -.56 2.24c-1 6.87-2.43 13.66-3.16 20.58a47.28 47.28 0 0 0 -.26 8.66 7.51 7.51 0 0 0 .59 2.23 1.28 1.28 0 0 0 .87.65 1.26 1.26 0 0 0 1-.37 3.82 3.82 0 0 0 .74-1.53c.49-2.46.9-4.93 1.35-7.4.17-.94.33-1.89.56-2.79a2.06 2.06 0 0 1 2.59-1.38 2.12 2.12 0 0 1 .67.34 15.59 15.59 0 0 1 1.21 1.23c.51.56 1 1.18 1.5 1.74a1.31 1.31 0 0 0 2-.41 15.77 15.77 0 0 0 .68-2.79c.35-2.87.64-5.74.91-8.62.21-1.95.31-3.86.45-5.8zm-428.91-152.9c2.55-.1 4.86-.12 7.15-.31a3.85 3.85 0 0 0 3.4-2.73 20.64 20.64 0 0 0 .85-10.79 4.41 4.41 0 0 0 -2.85-3.35 5.61 5.61 0 0 0 -2.24-.56c-3.26.08-6.53.22-9.78.46a8.39 8.39 0 0 0 -2.73.83 4.16 4.16 0 0 0 -2.54 3c-.56 3-1 6.07-1.32 9.11a3.69 3.69 0 0 0 3.36 4c2.32.24 4.63.27 6.7.38zm-33.08-101.25c-1-.09-2.32-.23-3.66-.31a14.59 14.59 0 0 0 -2.29 0 3.92 3.92 0 0 0 -3.57 3.25q-.64 4.85-1.12 9.72a4.06 4.06 0 0 0 3 4.37 25.77 25.77 0 0 0 10.76 1.51c3.75-.32 5.59-2 6.34-5.54a9.17 9.17 0 0 0 .25-2.86c-.37-2.65-.82-5.3-1.37-7.93a3.36 3.36 0 0 0 -3.42-2.56c-1.49.02-3.03.19-4.92.35zm-.35 26.73c-2 .1-3.72.1-5.43.29a5.09 5.09 0 0 0 -4.95 4.76c-.25 1.9-.37 3.82-.45 5.74-.12 3.08 1 4.72 3.79 5.67a11.72 11.72 0 0 0 3.35.81c3.45.1 6.9.08 10.35 0a6.24 6.24 0 0 0 2.2-.62 2.79 2.79 0 0 0 1.91-2.64c-.15-3.07-.37-6.15-.73-9.18a5 5 0 0 0 -4.55-4.47c-1.9-.25-3.83-.29-5.49-.39zm43 9.88h-.23v-3.48a8.81 8.81 0 0 0 -.14-1.15 4 4 0 0 0 -3.81-3.73c-3.85-.15-7.73-.16-11.59 0a3.8 3.8 0 0 0 -3.87 3.62c-.32 3.27-.51 6.56-.67 9.84a3.66 3.66 0 0 0 2.65 3.43c5 1.88 9.91 1.12 14.81-.27a3.07 3.07 0 0 0 2.23-2.49c.3-2 .42-3.88.62-5.8zm6.74-76.25a27.36 27.36 0 0 0 -1.18-9.95 24.36 24.36 0 0 1 -1.55-6.15c-.14-3.36-1.72-5.86-3.53-8.39a1.36 1.36 0 0 0 -1.6-.25c-.53.56-1 1.12-1.52 1.73a2.9 2.9 0 0 1 -3.08 1.12 34.23 34.23 0 0 0 -3.41-.65 3 3 0 0 0 -2.79 1.78 5.79 5.79 0 0 0 -.49 2.24 12.42 12.42 0 0 0 2.7 7.5c2.8 3.44 5.51 7 8.32 10.43a28.06 28.06 0 0 0 3.3 3.24 8.74 8.74 0 0 0 2 1.12 1.82 1.82 0 0 0 2.34-1.12c.29-1.37.46-2.71.46-2.68zm-28 48.59h.08c-.11 1.34-.25 2.69-.33 4a4.23 4.23 0 0 0 2 3.92 9.27 9.27 0 0 0 4.3 1.57 22.55 22.55 0 0 0 9.72-.91 5.3 5.3 0 0 0 3.84-4.59c.44-2.94-.26-5.76-1-8.56a4.33 4.33 0 0 0 -3-3.22 26.94 26.94 0 0 0 -12.58-.75 3.23 3.23 0 0 0 -2.62 2.75c-.23 1.89-.31 3.81-.45 5.76zm-90.37 86.07c-.13-1.53-.21-3.65-.52-5.73a3.29 3.29 0 0 0 -2.63-2.8 17.17 17.17 0 0 0 -9.66.37 4.69 4.69 0 0 0 -3.27 3.73c-.53 3-.94 6.08-1.33 9.13a13.86 13.86 0 0 0 0 2.88 4.12 4.12 0 0 0 3.44 4.07 44.41 44.41 0 0 0 5.12.84 7.4 7.4 0 0 0 8.49-6.74c.3-1.69.27-3.43.4-5.75zm29.07 28.88c-.17-1.68-.28-3.82-.62-5.92a2.85 2.85 0 0 0 -2.27-2.31c-2.24-.51-4.53-1-6.81-1.36a12.94 12.94 0 0 0 -3.46-.07 5.58 5.58 0 0 0 -5.14 4.77c-.46 2.66-.65 5.36-.85 8.06a7 7 0 0 0 .39 2.27 3.68 3.68 0 0 0 3.21 3c2.88.36 5.77.71 8.66.83a12.43 12.43 0 0 0 4-.68 3.38 3.38 0 0 0 2.53-2.89c.24-1.73.3-3.47.44-5.64zm67.84-133c1.68-.19 3-.28 4.33-.52a34.88 34.88 0 0 0 3.91-1 3.45 3.45 0 0 0 2.51-2.9c1-5.34 1.38-10.68 0-16a3.25 3.25 0 0 0 -3.35-2.57c-2.68.16-4.9 1.12-6 3.74a19.69 19.69 0 0 1 -6.62 8.55c-2.06 1.48-2.39 3.85-2.12 6.27a4.23 4.23 0 0 0 3.13 3.75c1.49.34 3 .49 4.25.67zm-42.45-305.11c.05 1 .09 1.92.17 2.88a8.66 8.66 0 0 0 .26 1.12 1.88 1.88 0 0 0 1.64 1.39c.77 0 1.53-.18 2.29-.2a3 3 0 0 1 3.17 2.05c.39 1.08.59 2.23 1 3.3a19.1 19.1 0 0 0 1.59 3 1.73 1.73 0 0 0 2.38.57 1.81 1.81 0 0 0 .53-.5 9.7 9.7 0 0 0 1.15-2 60.47 60.47 0 0 0 2-6.61 15.44 15.44 0 0 1 2.1-5.93 8.72 8.72 0 0 0 1-2 6.67 6.67 0 0 0 .12-4 2.9 2.9 0 0 0 -2.45-2.12 3.49 3.49 0 0 0 -.56 0 10.71 10.71 0 0 0 -6.45 2.17 5.56 5.56 0 0 1 -1.93 1.17 1.57 1.57 0 0 1 -1.42-.56c-.56-1.2-.88-2.54-1.45-3.75a2.22 2.22 0 0 0 -1.36-.82c-.26-.07-.71.23-1 .47a3.23 3.23 0 0 0 -.65.94 18.18 18.18 0 0 0 -2.14 9.42zm-60.84 371.1c-1.73.13-3.26.17-4.78.39a4.11 4.11 0 0 0 -3.42 2.75 25.67 25.67 0 0 0 -1.48 13 3.88 3.88 0 0 0 3.44 3.36 51.59 51.59 0 0 0 7.46.07 5 5 0 0 0 4.88-4.79c.37-3.82.56-7.65.75-11.48a3 3 0 0 0 -2.48-2.8c-1.5-.23-3.03-.36-4.37-.5zm7.62-18.45c-.14-2.1-.23-4.23-.46-6.33a3.28 3.28 0 0 0 -2.68-2.71 28.52 28.52 0 0 0 -9.22 0 3.33 3.33 0 0 0 -2.64 2.06 54.73 54.73 0 0 0 -2.15 6 10.44 10.44 0 0 0 .26 6.28 5 5 0 0 0 4.09 3.66 28.37 28.37 0 0 0 9.24-.08 3.61 3.61 0 0 0 3.08-3.08c.29-1.88.33-3.82.48-5.77zm10.34-58.42a35.84 35.84 0 0 0 1.49 10.19 4.55 4.55 0 0 0 2.95 3.36 15 15 0 0 0 9.09.09 3.22 3.22 0 0 0 2.23-2.45 14.4 14.4 0 0 0 .41-2.85 36.66 36.66 0 0 0 -1.48-10.25 4 4 0 0 0 -2.76-2.73 18.28 18.28 0 0 0 -8.56-.64 3.71 3.71 0 0 0 -3.24 3.53c-.08.76-.12 1.52-.13 1.77zm-21.28 152.65c1.86-.15 3.79-.23 5.69-.49a3.36 3.36 0 0 0 2.57-2.11c1.6-3.63 1.68-7.09-1.2-10.21-.38-.42-.71-.9-1.08-1.34a5.31 5.31 0 0 0 -4.57-2.06c-2.11.13-4.21.41-6.31.71a3.78 3.78 0 0 0 -2.69 2 12.14 12.14 0 0 0 -1.15 9.51 4.32 4.32 0 0 0 3.52 3.42c1.68.34 3.43.4 5.22.59zm2.88-113v.31h4a3.39 3.39 0 0 0 3.63-3 43 43 0 0 0 0-10.39 4.41 4.41 0 0 0 -3.74-3.88 14.62 14.62 0 0 0 -8.95 1.51 3.1 3.1 0 0 0 -1.72 2.24 97.94 97.94 0 0 1 -2.1 9.58 2.93 2.93 0 0 0 1.95 3.18 9.93 9.93 0 0 0 2.23.46c1.56.08 3.13 0 4.65 0zm.25-25.37c1.36-.16 2.9-.25 4.42-.51a3.2 3.2 0 0 0 2.62-2.07 17.26 17.26 0 0 0 .8-9.12 4 4 0 0 0 -2.94-3.26c-1.11-.3-2.23-.56-3.35-.88a4 4 0 0 1 -2.73-2.8c-.4-1.28-.63-2.62-1-3.91a1.22 1.22 0 0 0 -.91-.56 1.34 1.34 0 0 0 -1 .42 3.56 3.56 0 0 0 -.84 1.49c-.84 4-1.74 7.92-2.36 11.92a26 26 0 0 0 .1 5.78 3.45 3.45 0 0 0 3 3.11c1.33.21 2.68.27 4.22.41zm36 17.8c-.14-1.74-.23-2.9-.34-4.05-.08-.77-.16-1.54-.29-2.3a3.54 3.54 0 0 0 -3.52-3.24c-2.69-.11-5.39 0-8.09 0a4.79 4.79 0 0 0 -1.12.32 2.5 2.5 0 0 0 -1.68 2.16 50.91 50.91 0 0 1 -.45 9.23 11.2 11.2 0 0 0 .13 2.31 3.47 3.47 0 0 0 2.48 2.9 19.86 19.86 0 0 0 9.75 0 3.35 3.35 0 0 0 2.64-2.79c.3-1.63.37-3.37.49-4.52zm48.07-26.43a5.53 5.53 0 0 0 0-1.15 58.86 58.86 0 0 1 -.95-10.35 11.2 11.2 0 0 0 -.47-2.23 1.36 1.36 0 0 0 -1.94-.52 15.52 15.52 0 0 0 -1.56 1.68c-1.12 1.55-2.19 3.17-3.32 4.73a6.61 6.61 0 0 1 -4.22 2.79c-1.47.28-2.56-.52-3.7-1.27-2-1.3-3.35-.25-3.75 1.79a8.26 8.26 0 0 0 -.17 1.11c-.42 6.15.17 6.78 5.75 7.75a16.29 16.29 0 0 0 4 .31c2.5-.2 5-.56 7.45-1a3.35 3.35 0 0 0 2.88-3.66zm-112.44 325c0-2.71 0-5.41 0-8.11a23.45 23.45 0 0 0 -.35-3.45 3.36 3.36 0 0 0 -3.35-2.65c-2.11-.11-3.66.76-4.1 2.46-.38 1.49-.61 3-1 4.52-1 4.47-.26 8.84 1.17 13.1a11.89 11.89 0 0 0 4.47 5.91 4.56 4.56 0 0 0 1.06.41 1.42 1.42 0 0 0 1.46-.71 14 14 0 0 0 .56-2.8c.09-2.87 0-5.77 0-8.66zm54.62-16.57c-.13 5.67.29 12.44-.46 19.19a1.82 1.82 0 0 0 .27 1.12 1.44 1.44 0 0 0 .83.72 2.51 2.51 0 0 0 1.59-.26 2.4 2.4 0 0 0 .93-1.4 56.29 56.29 0 0 0 1.36-8c.15-2.48-.38-5-.42-7.5s.2-5 .18-7.51c0-1.73-.37-3.45-.42-5.18-.16-5-.21-10.07-.37-15.1-.11-1.53-.3-3.06-.56-4.57 0-.14-.26-.31-.43-.35s-.46.08-.5.19a29.15 29.15 0 0 0 -2.05 10.73c.13 5.63.05 11.24.05 17.94zm120.9-310.28v4.62a7.05 7.05 0 0 0 .13 1.72 23.14 23.14 0 0 0 1.15 3.83 3.51 3.51 0 0 0 4.92 1.54 4.63 4.63 0 0 0 2.58-2.94 11.28 11.28 0 0 0 .38-2.24c.25-4.47-.81-8.79-1.76-13.11a4.86 4.86 0 0 0 -2-2.79 3.18 3.18 0 0 0 -4.81 1.38 11.69 11.69 0 0 0 -.56 2.8c-.09 1.72 0 3.48 0 5.18zm17.23 25.27c.15 1.63.21 3.55.56 5.43a4.54 4.54 0 0 0 4.47 3.75 3 3 0 0 0 2.73-1.75c.36-1.28.62-2.6.91-3.91a14.46 14.46 0 0 0 -.53-7.38 4.12 4.12 0 0 0 -2.67-2.79 10.58 10.58 0 0 0 -1.67-.46 2.63 2.63 0 0 0 -3.36 2.24c-.23 1.51-.29 3.05-.44 4.86zm-77.87 139.08c0-1.37 0-2 0-2.52a6.92 6.92 0 0 0 -.21-1.12 3.23 3.23 0 0 0 -2.9-2.42c-2.91-.28-4.92 1.71-4.55 4.53a10.85 10.85 0 0 0 .51 2.24c.39 1.08.86 2.14 1.35 3.18a8.94 8.94 0 0 1 .46 6.75 22.71 22.71 0 0 0 -.77 3.36 2 2 0 0 0 .88 2 2.27 2.27 0 0 0 2.24.08 3.94 3.94 0 0 0 2.33-3.09 7.71 7.71 0 0 0 .08-2.3 24.49 24.49 0 0 1 .34-8.62 17.8 17.8 0 0 0 .24-2.07zm81.63-162.59c-.52-3.51-1.06-7.13-1.61-10.74a2 2 0 0 0 -1.54-1.52 2.08 2.08 0 0 0 -2 1 11 11 0 0 0 -1.45 3.11c-1 4.2-.55 8.42.26 12.59a3.37 3.37 0 0 0 2.35 2.36 2.47 2.47 0 0 0 3.25-1.54c.33-1.69.47-3.42.71-5.27zm-229 279.24v-.15a17.64 17.64 0 0 1 2.29-.17c3.87.25 7.66-.67 11.5-.81a5.64 5.64 0 0 0 2.09-.81c.4-.19.41-1.34 0-1.52a5.52 5.52 0 0 0 -2.09-.83c-3.07-.08-6.15-.13-9.22.06-3.25.21-6.5.68-9.73 1.12a7.11 7.11 0 0 0 -2.14.76 1.06 1.06 0 0 0 -.46 1.43 1.08 1.08 0 0 0 .4.42 3.42 3.42 0 0 0 1.6.56c1.9-.02 3.82-.06 5.74-.06zm113.16 152.9a21.72 21.72 0 0 0 3.91-.89 34.89 34.89 0 0 1 8.34-2.19 11 11 0 0 0 2.75-.82 5.43 5.43 0 0 0 1.35-1 1.35 1.35 0 0 0 -.44-2 10.58 10.58 0 0 0 -2.24-.52 10 10 0 0 0 -5 1.12 15.34 15.34 0 0 1 -7.17 1.92 5.22 5.22 0 0 0 -2.23.56 7.58 7.58 0 0 0 -1.84 1.33 1.14 1.14 0 0 0 -.28 1 3.12 3.12 0 0 0 1.12 1.19c.28.25.77.18 1.71.3zm-57.3-487.4h1.21c4.68-.06 6.15-1.86 5.4-6.52a1.78 1.78 0 0 0 -2.6-1.36c-2.24 1.43-4.47 2.94-6.67 4.47-.3.2-.45.61-.67.92-.4.56 0 1.81.59 2 1.09.2 2.21.39 2.72.49zm150.83 143.49a22.1 22.1 0 0 0 -.32-2.7 9.89 9.89 0 0 0 -1-2.68 1.77 1.77 0 0 0 -1.39-.75 1.83 1.83 0 0 0 -1.19 1.08 9.55 9.55 0 0 0 -.56 2.79 26.64 26.64 0 0 0 1.47 9.11.76.76 0 0 0 .38.39c.15.08.46.1.51 0a13.24 13.24 0 0 0 2.1-7.24zm-118 344.53c1-.14 1.95-.26 2.89-.43a1.6 1.6 0 0 0 1.17-1.93c0-.1-.07-.21-.11-.31a5.18 5.18 0 0 0 -3.6-2.65 4 4 0 0 0 -4.09 1.56 2 2 0 0 0 .93 3.27c.97.2 1.93.32 2.83.49zm-16.7-229.67c-.08-.65-.21-2-.43-3.31a1.47 1.47 0 0 0 -.61-.94 1.14 1.14 0 0 0 -1 0 2.83 2.83 0 0 0 -.89 2.62c.24 3.27.56 6.54.83 9.81a.74.74 0 0 0 .24.48c.09.08.43 0 .44 0a27.45 27.45 0 0 0 1.44-8.66zm64.12-25.23a3.6 3.6 0 0 0 -.38-1.2 4.18 4.18 0 0 0 -5.09-1 1.29 1.29 0 0 0 -.45 1.76l.14.19a4.75 4.75 0 0 0 4.65 1.29c.47-.12.81-.68 1.15-1zm92.64-196.55a15.55 15.55 0 0 0 -1.25-2.52 1.73 1.73 0 0 0 -1.5-.48 1.75 1.75 0 0 0 -1.07 1.12 5.38 5.38 0 0 0 1.09 4.32 1.32 1.32 0 0 0 1 .38 1.4 1.4 0 0 0 .92-.61 19.55 19.55 0 0 0 .82-2.21zm-96.14-193.51a4 4 0 0 0 -2.75-4.5 1.18 1.18 0 0 0 -1 .21 1.36 1.36 0 0 0 -.45 1 5.54 5.54 0 0 0 1.77 4 1.73 1.73 0 0 0 1.47.36c.46-.13.75-.73 1-1zm-58.82 95.29a2.44 2.44 0 0 0 -2.2-2.65h-.14a1.84 1.84 0 0 0 -1.95 1.65 2.71 2.71 0 0 0 2.42 2.68 1.71 1.71 0 0 0 1.86-1.55.49.49 0 0 0 .01-.13zm-27.18 109.25c.07.31.16.87.31 1.41 0 .17.22.41.36.42.35 0 .85.13 1-.06a6.13 6.13 0 0 0 2-4 1.7 1.7 0 0 0 -.8-1.31 1.88 1.88 0 0 0 -1.56.25c-.98.71-1.24 1.85-1.31 3.29zm108.59 106.24c-.07-.75 0-1-.12-1.12a4.47 4.47 0 0 0 -1-1.24c-.36-.25-1.15.34-1.32.81a8.62 8.62 0 0 0 -.13 5.67c.08.27.56.45.86.6.09 0 .41-.13.45-.27.49-1.62.95-3.28 1.27-4.43zm-64.51 159.63c-.11-1.3-.19-2.65-.37-4a1.1 1.1 0 0 0 -.7-.74c-.25 0-.56.34-.82.56a.8.8 0 0 0 -.16.56c0 2.31 0 4.61.11 6.92a1.05 1.05 0 0 0 .71.75 1 1 0 0 0 .8-.59c.21-1.11.29-2.27.43-3.46zm-191.39 99c.19 0 .41.11.56.05a8 8 0 0 0 4.13-4.42c.18-.47-.17-1.37-.61-1.4a1.82 1.82 0 0 0 -1.05.19 11.61 11.61 0 0 0 -3.3 5.14c-.04.14.17.32.27.47zm160.86-463.28c.43 0 .66 0 .8-.09a5.68 5.68 0 0 0 2.9-5.19c0-.22-.63-.67-.77-.6a7.32 7.32 0 0 0 -3.72 4.76c-.08.28.56.83.79 1.12zm143.88 1.16a4.53 4.53 0 0 0 1.29-.67 1.81 1.81 0 0 0 -.26-2.54 2.19 2.19 0 0 0 -2.53-.74 1.07 1.07 0 0 0 -.41.38 2.56 2.56 0 0 0 1.33 3.37 2.28 2.28 0 0 0 .58.17zm-187.67 32c-.31-.45-.49-1-.69-1a4.65 4.65 0 0 0 -4.26 2.21 1.13 1.13 0 0 0 0 1.11c.09.16.26.35.4.36 2.13.03 3.38-1.28 4.55-2.68zm189.85 175c-.08-1.36-.61-2.18-1.41-2.41s-1.39.82-1.31 2.08a4.18 4.18 0 0 0 .43 1.58 1.07 1.07 0 0 0 1.81.1 5.43 5.43 0 0 0 .48-1.35zm-128 120.78a1.6 1.6 0 0 0 -1.61 1.22 1.8 1.8 0 0 0 3.6.13c0-.87-.89-1.51-2-1.44zm74.26-16.77a15.76 15.76 0 0 0 -.63-2.16c-.1-.22-.61-.3-.94-.36-.12 0-.33.22-.4.38a4.34 4.34 0 0 0 -.06 3.91 1.22 1.22 0 0 0 .89.6 1.09 1.09 0 0 0 .85-.6 8.94 8.94 0 0 0 .31-1.79zm-104.46-202.72a23.35 23.35 0 0 0 -.41-2.29c-.08-.26-.49-.44-.78-.6-.06 0-.33.19-.4.34a5.79 5.79 0 0 0 -.19 5.48c.07.15.32.35.42.32.31-.11.77-.26.84-.5.22-.94.35-1.88.52-2.75zm45.68 446.2a3 3 0 0 0 1.11 0 3.19 3.19 0 0 0 1.31-.86c.37-.45-.35-1.47-1.16-1.54a6.47 6.47 0 0 0 -2.15.15 1.05 1.05 0 0 0 -.84 1.23 1.39 1.39 0 0 0 .69.78 3.66 3.66 0 0 0 1.04.24zm5.84-503.49a1.89 1.89 0 0 0 .49-.25 2.05 2.05 0 0 0 .47-2.51 1 1 0 0 0 -.85-.5 1.63 1.63 0 0 0 -1.12 1.68 3.59 3.59 0 0 0 .51 1.46c.02.12.3.12.5.12zm130.15 247a6.65 6.65 0 0 0 -1.36-1.12c-.48-.19-1.06.46-1.06 1.06 0 .89.72 1.65 1.38 1.33.41-.12.64-.7 1.04-1.22zm-135.39-215.55c-.1-.33-.12-.77-.35-1a1.2 1.2 0 0 0 -1-.25 1.67 1.67 0 0 0 -1.32 1.61 1 1 0 0 0 1.07 1 1.66 1.66 0 0 0 1.6-1.36zm58.5 11.44a6.63 6.63 0 0 0 -1.3-1.12c-.49-.23-1.12.36-1.12 1 0 .88.66 1.68 1.32 1.39.44-.18.7-.74 1.12-1.25zm0-207.86c-.49-.42-.82-.92-1.24-1-.6-.14-1 .36-1.07.94-.13.81.56 1.59 1.23 1.28.43-.18.7-.7 1.1-1.2zm-62.41 491.84c-.2-.27-.44-1-.78-1-.61-.11-.84.55-.92 1.11a.77.77 0 0 0 0 .56c.19.28.43.68.69.71s.56-.34.8-.56a3.43 3.43 0 0 0 .21-.82zm.22-326.82c-.3-.17-.62-.52-.85-.46a1.15 1.15 0 0 0 -.68.73c-.15.56.69 1 1.12.66.26-.2.3-.61.41-.93zm-142.21 280.88-.63-.8c-.25.23-.64.4-.73.67-.2.61.45 1.34.85 1 .25-.15.34-.56.51-.87zm-88.89 183.83c-.34-.06-.77-.29-1-.16s-.27.62-.39.95c.33.07.77.3 1 .17s.26-.65.39-.96zm243.61 36.72c-.35.42-.74.67-.78 1-.07.53.65 1 1.25.81.29-.1.48-.51.71-.78zm-179.72-122.71c-.33-.07-.76-.3-1-.16s-.25.61-.37.94c.32.07.76.3 1 .17s.25-.62.37-.95zm166.27-75.87c0-.28 0-.55 0-.83a1.48 1.48 0 0 0 -.42 0 7.87 7.87 0 0 0 0 .84zm559.47-8.8a3.39 3.39 0 0 1 .15-.45 8 8 0 0 0 -.82-.17 2.16 2.16 0 0 0 -.14.43zm-777.53 153.98-.51.82c.26.15.6.49.78.43s.35-.5.52-.78zm282.2-283.83-.22-.43a6.12 6.12 0 0 0 -.69.43 3.17 3.17 0 0 0 .21.41zm-108.89.81-.51-.71c-.21.25-.53.48-.56.75s.3.47.47.71zm108.63-29.46a5.75 5.75 0 0 0 0-.83h-.41a7.69 7.69 0 0 0 0 .83zm-63.61 161.86c-.17-.07-.35-.22-.48-.18a.48.48 0 0 0 -.28.39c.08.49.38.6.74.29.09-.07.02-.33.02-.5zm-16.22-222.66c-.17 0-.37 0-.48.14a.94.94 0 0 0 -.23.48c-.08.47.13.75.56.72.14 0 .36-.23.35-.35a5 5 0 0 0 -.2-1zm-120.11 257.14-.27.19.28.15zm182.21-390 .26-.18-.28-.15zm-96.6 371.57-.27-.36c-.11.1-.29.18-.32.29-.09.42.09.62.46.49.08-.05.09-.29.13-.44zm165.62-138.58a1 1 0 0 0 -.08.44c0 .12.17.22.27.34.1-.11.25-.21.28-.33a.57.57 0 0 0 -.08-.44c-.05-.07-.25 0-.39 0zm-51.55-48.65-.06.33.3-.1zm-1-42.7-.18-.27-.15.28zm-41.98-196.58-.06.32.3-.1zm-67.53 104.76.33.06-.11-.31zm95.49 14.08.06-.33-.31.11zm-8-288.2-.18-.27-.15.29z"></path>
        <path d="m617.82 220.68c3.83.48 7.31.78 10.72 1.41a13.5 13.5 0 0 1 4.19 1.9c2.16 1.27 4.25 2.67 6.34 4.07a11.13 11.13 0 0 1 2.2 1.85c1.92 2.17 3.86 4.34 5.59 6.66a46.83 46.83 0 0 1 3.31 5.43c.56 1 .86 2.15 1.36 3.2a3.57 3.57 0 0 0 4.28 2.12 40.37 40.37 0 0 0 3.86-1.25 23.69 23.69 0 0 1 9.08-1.62 20.64 20.64 0 0 0 11.12-2.79 29.89 29.89 0 0 1 8.6-3.36 22.4 22.4 0 0 0 6.93-2.87c2.63-1.62 5.4-3 8.08-4.57a8.76 8.76 0 0 1 7.27-.78 21.89 21.89 0 0 1 8.16 4.27 3.59 3.59 0 0 1 1.52 3.54 3.42 3.42 0 0 1 -3.45 2.59 44.64 44.64 0 0 0 -8 1 131.2 131.2 0 0 1 -13.85 1.11 31.59 31.59 0 0 0 -11.19 2.73 12.45 12.45 0 0 0 -7.15 7.21c-.28.72-.61 1.43-.87 2.15a17.81 17.81 0 0 1 -3.52 6 21.66 21.66 0 0 0 -2.07 2.79c-1 1.5-.85 3.21.56 4.13 2.7 1.79 4.11 4.59 5.89 7.09a6.07 6.07 0 0 1 1 2.09q1.72 7.63 3.35 15.3a6.53 6.53 0 0 1 -.52 4 11.27 11.27 0 0 1 -.56 1 2.41 2.41 0 0 1 -3.91.6c-1.38-1.61-2.72-3.28-4-5a24.81 24.81 0 0 0 -5.52-5.91 9.68 9.68 0 0 1 -3.12-4.11 32.09 32.09 0 0 0 -1.88-3.58 5 5 0 0 0 -2.64-2.17c-3.07-1.12-7.65.41-9.19 3.19a44 44 0 0 0 -2 4.8 4.48 4.48 0 0 1 -3.4 2.85c-2.08.44-4.14.93-6.23 1.36a2.13 2.13 0 0 1 -2.48-1.72 2.42 2.42 0 0 1 0-.71 21.57 21.57 0 0 1 .56-2.24c.2-.74.49-1.46.67-2.23a2.83 2.83 0 0 0 -2.11-3.05 6 6 0 0 0 -3.42.08 20.55 20.55 0 0 0 -3.24 1.27c-2.71 1.44-5.2 1-7.65-.64-1.72-1.12-2-3.23-.26-4.28 5-3 8.59-7.79 13.36-11.13a21.62 21.62 0 0 0 4-4.18 3.45 3.45 0 0 0 0-4.33 56 56 0 0 1 -4.42-6.79 15.62 15.62 0 0 0 -3.1-3.39 9.45 9.45 0 0 1 -2.87-4.27 37.92 37.92 0 0 0 -1.41-3.81 16.87 16.87 0 0 0 -5.86-7.75 36 36 0 0 1 -4.35-3.83 7.66 7.66 0 0 1 -1.3-1.89 2.24 2.24 0 0 1 1.2-2.89c.81-.33 1.76-.53 2.34-.65z"></path>
        <path d="m519.18 1025.5c-2.9.12-5.8.31-8.69.31a16.28 16.28 0 0 1 -4-.56 13.92 13.92 0 0 0 -5.74-.48 22.47 22.47 0 0 1 -6.34-.22c-4-.5-8.08-.89-12.12-1.28a14.31 14.31 0 0 1 -5-1.2 9.41 9.41 0 0 1 -1.5-.89 2.15 2.15 0 0 1 -1-1.94c.06-.75 1.21-1.45 2.29-1.41a5.71 5.71 0 0 1 1.16.08c2.68.3 5.4.47 8.05 1 3.64.71 7.32.56 11 .82a22.66 22.66 0 0 0 9.11-1.44 1.08 1.08 0 0 0 .55-.88 1.25 1.25 0 0 0 -.55-.9 6.64 6.64 0 0 0 -5-1c-4.31 1-8.46-.18-12.67-.56a16.84 16.84 0 0 1 -3.36-.83 5.17 5.17 0 0 1 -3.91-3.87c-.41-1.76-1.72-2.4-3.36-2.68-4.18-.73-8.38-1.48-12.53-2.34a22.88 22.88 0 0 1 -3.79-1.38 1.86 1.86 0 0 1 -.85-2 3 3 0 0 1 1.15-1.2 8 8 0 0 1 4.57-.36c3.64.42 7.32.74 10.92 1.4s7 0 10.41.31a8.38 8.38 0 0 0 3.36-.79 20 20 0 0 1 7.41-1 95.38 95.38 0 0 0 16.78-.88c3.8-.64 7.66-1 11.51-1.33 5-.4 10-1.3 14.92-2.13a6.9 6.9 0 0 1 4 .05c.33.13.77.44.81.72.08.52.09 1.3-.22 1.57a8.46 8.46 0 0 1 -2.86 1.86c-2.77.84-5.6 1.48-8.42 2.15-2.07.48-4.2.75-6.23 1.34a28.3 28.3 0 0 1 -8 1.12c-2.9 0-5.8 0-8.7 0a18.84 18.84 0 0 0 -6.81 1.24 4.31 4.31 0 0 0 -1.41 1 1.31 1.31 0 0 0 -.32 1 5.43 5.43 0 0 0 .84 1.41.81.81 0 0 0 .52.24c7.32.56 14.63 1.67 22 .14a9 9 0 0 1 1.16-.13 5.05 5.05 0 0 1 4.18 1.58 14.09 14.09 0 0 0 13.12 4.39 11.34 11.34 0 0 1 3.44.08 1.84 1.84 0 0 1 1.18 1.08 1.87 1.87 0 0 1 -.39 1.56 18.4 18.4 0 0 1 -8.65 4.5c-5.26 1.23-10.51 2.64-16 2.39a49.17 49.17 0 0 0 -6.02.34zm-5.8-7.88c0 .14 0 .35.14.42a.51.51 0 0 0 .45 0c.34-.3.26-.56-.19-.67-.11 0-.26.17-.4.25z"></path>
        <path d="m487.58 997.7a45.47 45.47 0 0 1 -12.25-1.12 20 20 0 0 0 -7.48-.36 57.34 57.34 0 0 1 -15-.28 94 94 0 0 0 -13.32-.43 16.89 16.89 0 0 0 -4 .66c-3.74 1-7.44 2.12-11.18 3.07a23 23 0 0 1 -5.15.76c-5 .11-10.06.1-15.1 0a34.8 34.8 0 0 1 -11.84-2.63 7.6 7.6 0 0 1 -1.93-1.25 2.07 2.07 0 0 1 .71-3.35 5.49 5.49 0 0 1 2.23-.38c9.83 1.41 19.71.46 29.57.7h.56a7.85 7.85 0 0 0 6.28-2.41c1.57-1.75 3.56-2.07 5.82-1.82 7.1.8 14.19 1.75 21.34 2a47.22 47.22 0 0 1 5.17.7 29.87 29.87 0 0 0 9.8-.33c.25 0 .56-.56.56-.84a1.33 1.33 0 0 0 -.47-1 4.6 4.6 0 0 0 -1.5-.83c-1.48-.46-3-.8-4.48-1.24a22.25 22.25 0 0 1 -3.28-1.12 8.72 8.72 0 0 1 -2.31-1.68 1.84 1.84 0 0 1 -.44-1.54 1.76 1.76 0 0 1 1.22-1 9.33 9.33 0 0 1 2.3.12c2.11.17 4.23.45 6.35.5a67.27 67.27 0 0 1 9.82.8 21 21 0 0 0 5.77.17 29.38 29.38 0 0 1 10.37.39 13 13 0 0 0 4.61.16c2.12-.24 4.24-.41 6.36-.6 4.23-.4 8.44-1 12.72-.36a18.29 18.29 0 0 0 3.47 0l13.32-.45a18 18 0 0 1 2.32 0 45.49 45.49 0 0 0 9.26.08 8.24 8.24 0 0 1 2.8.6 1.34 1.34 0 0 1 .38 2 5.54 5.54 0 0 1 -1.87 1.27 14.64 14.64 0 0 1 -3.42.5c-1.93.1-3.87.08-5.8.08a22.44 22.44 0 0 0 -8 1.09 10 10 0 0 1 -4.58.41c-7.14-.66-14.3-.28-21.46-.27a11.1 11.1 0 0 0 -5.59 1.25 1.53 1.53 0 0 0 -.6 2 6.26 6.26 0 0 0 .72.91c2 2.14.79 3.54-1.44 4.11a35.31 35.31 0 0 1 -5.69.91c-1.74.17-3.49.05-5.65.05zm.32-5.36v-.09h4.5c.25 0 .62-.46.67-.75a1.33 1.33 0 0 0 -.38-1 1.8 1.8 0 0 0 -1-.56c-2.06-.24-4.12-.46-6.18-.59a2.86 2.86 0 0 0 -1.61.44c-.42.28-.93.84-.92 1.27a1.57 1.57 0 0 0 .95 1.19 34.5 34.5 0 0 0 3.94.08zm-11-1.37c.17-.27.51-.6.43-.79s-.49-.35-.77-.52c-.15.26-.5.6-.43.78s.5.36.77.56z"></path>
        <path d="m917.27 899.27a13.19 13.19 0 0 1 2.86.5c1.5.39 3 1 4.44 1.38 4.66 1.34 9.33 2.57 14.26 2.24 1.34-.09 2.71.17 4.06.19a27.41 27.41 0 0 0 5.21-.09c4.22-.85 8.5-.3 12.72-.78a9.5 9.5 0 0 1 2.86.34 2.41 2.41 0 0 1 1.68 2.7 33.63 33.63 0 0 1 -1.76 4.9c-1.12 2.24-1.59 4.35 0 6.55a4.15 4.15 0 0 1 .46 1.06 3.08 3.08 0 0 1 -1.55 3.92 10.27 10.27 0 0 1 -1.51.82 55.9 55.9 0 0 0 -10 4.57 10.73 10.73 0 0 1 -7.86 1.12 77.63 77.63 0 0 0 -12-1.9 6.5 6.5 0 0 1 -3.76-1.39c-1.51-1.18-2-2.33-1.16-4a15.91 15.91 0 0 0 .73-1.57 2 2 0 0 0 -.64-2.09 45.54 45.54 0 0 0 -4.07-2.19 23.37 23.37 0 0 1 -5.93-3.61 4.37 4.37 0 0 1 -1.53-4.68 2.62 2.62 0 0 1 .18-.56 4.39 4.39 0 0 0 -.31-4.41c-1.07-1.85.13-2.98 2.62-3.02z"></path>
        <path d="m386.62 99.37a37 37 0 0 1 1-10.66 18.8 18.8 0 0 1 6.32-10.16 22 22 0 0 0 3.35-3.19 15.72 15.72 0 0 1 4.82-4.1 6 6 0 0 0 3-4.7 71 71 0 0 0 1.31-12.09 60.84 60.84 0 0 1 .58-7.47c.42-4 1-8 1.3-12.09a37.6 37.6 0 0 0 -.52-5.76 5.68 5.68 0 0 1 .91-3.86 2.07 2.07 0 0 1 3.41.08 7 7 0 0 1 .73 1.57 9.25 9.25 0 0 1 .33 2.29 39.79 39.79 0 0 1 -.15 4.63c-.56 5.37-1.46 10.73-1.81 16.11-.32 5-.14 10.07-.12 15.1a8.44 8.44 0 0 0 .43 2.27 4.35 4.35 0 0 0 2.54 3 32 32 0 0 0 3.3 1.12c1.29.4 2.62.69 3.91 1.12a19.27 19.27 0 0 1 10.43 7.88 11.5 11.5 0 0 1 2 4.76c.21 1.33.36 2.68.44 4 .07 4.25.05 8.51.05 12.76a11.42 11.42 0 0 1 -1.68 6.08c-.7 1.16-1.29 2.39-2.05 3.51a20.3 20.3 0 0 1 -7 6.79c-5.7 3.07-11.75 5-18.33 4.57a10.17 10.17 0 0 1 -6.39-2.34c-1.6-1.4-3.36-2.62-5-4a18.49 18.49 0 0 1 -7.11-14.59c-.02-1.19 0-2.36 0-2.63zm42.87-3.07v-3.14a13.67 13.67 0 0 0 -2.24-7.16c-2.33-3.66-5.26-6.67-9.44-8.23-1.09-.41-2.18-.81-3.24-1.28-3.83-1.71-7.54-1.2-11.18.56-4.78 2.29-7.66 6.37-10.07 10.83a8.79 8.79 0 0 0 -.74 2.8 40.08 40.08 0 0 0 -.1 12.7 11.66 11.66 0 0 0 2.5 5.78 45.93 45.93 0 0 0 3.16 3.39c4.76 4.74 10.38 5.59 16.58 3.51a50.41 50.41 0 0 0 4.86-1.9 14.77 14.77 0 0 0 7.46-7 19.72 19.72 0 0 0 2.45-10.86z"></path>
        <path d="m369.09 993c-4.21-.48-8.44-.84-12.63-1.5a13.68 13.68 0 0 1 -4.2-1.87 5.23 5.23 0 0 1 -1.57-1.67 2.67 2.67 0 0 1 -.2-2.75 2.46 2.46 0 0 1 2.32-1.48c1.34 0 2.67.33 4 .46a19.45 19.45 0 0 0 2.29 0c.65 0 1.2-1.25.88-1.83a5.16 5.16 0 0 0 -3.1-2.46 26.74 26.74 0 0 0 -4-.76c-5.34-.79-10.7-1.55-16-2.37a8.49 8.49 0 0 1 -2.14-.8 1.59 1.59 0 0 1 -.13-2.49 4.07 4.07 0 0 1 2.05-.86c2.12 0 4.24.23 6.36.43a45.88 45.88 0 0 0 10.41-.11 26.18 26.18 0 0 1 4.6-.05c5 .2 10 .56 15-.31a15.08 15.08 0 0 1 5.19-.18c5.06 1 10 .18 15-.56 5.34-.83 10.69-1.77 15.6-4.25a10.11 10.11 0 0 1 2.8-.76 2.79 2.79 0 0 1 2.92 1.43 2.61 2.61 0 0 1 -.47 2.71 13.48 13.48 0 0 1 -6 4.47c-3.46 1.22-6.87 2.45-10.67 2.41a36.75 36.75 0 0 0 -6.86 1 6.6 6.6 0 0 0 -2.12.89 1.35 1.35 0 0 0 -.49 1 1.49 1.49 0 0 0 .47 1 5.71 5.71 0 0 0 3.26 1 5.59 5.59 0 0 1 3.25 1.06 2.29 2.29 0 0 1 .72 1.47 1.91 1.91 0 0 1 -.79 1.39 7.93 7.93 0 0 1 -2.71.93 52.11 52.11 0 0 0 -12.31 3.3 29.69 29.69 0 0 1 -10.73 2.11z"></path>
        <path d="m466.26 963.27a13.39 13.39 0 0 1 -6.6-.8 2.56 2.56 0 0 1 -1.58-2.24 2.51 2.51 0 0 1 1.5-2.29 8.76 8.76 0 0 1 2.8-.72c2.12-.14 4.25-.08 6.37-.19a17.87 17.87 0 0 0 2.8-.5.54.54 0 0 0 .38-.38c0-.35 0-.92-.16-1-1.68-.91-3.47-1.68-5.17-2.59-1.35-.72-2.65-1.55-3.91-2.39a1.63 1.63 0 0 1 -.56-2 2.9 2.9 0 0 1 1.29-1 6.29 6.29 0 0 1 2.28-.27c1.16.06 2.3.31 3.45.41 2.31.22 4.62.46 6.93.56a106.83 106.83 0 0 0 11.58.37c6.15-.36 12.38.06 18.51-.91 1.72-.27 3.46-.4 5.18-.63a20 20 0 0 0 4-.69c3.53-1.3 7.23-1.12 10.87-1.43a6.63 6.63 0 0 1 2.24.5c.66.19 1 1.55.47 1.95a14.11 14.11 0 0 1 -2.34 1.65c-1.72.88-3.54 1.56-5.26 2.42a1.92 1.92 0 0 0 -1 2.53 1.76 1.76 0 0 0 .24.42 4.07 4.07 0 0 1 .31.49c1.42 2.72.89 4.31-1.93 5.35-3.85 1.43-7.83 2.35-11.94 1.63a24.59 24.59 0 0 0 -8.64 0 33.43 33.43 0 0 1 -5.2.25c-3.49 0-7 0-10.45 0a47.49 47.49 0 0 0 -8.08.61c-2.55.37-5.06.53-8.38.89zm42.35-7.27c1.22-.1 2.55-.16 3.87-.33a8.07 8.07 0 0 0 2.21-.56 7 7 0 0 0 1.86-1.24 1.14 1.14 0 0 0 .15-1c-.1-.3-.47-.55-.76-.74a.84.84 0 0 0 -.56-.13c-3.59.38-7.18.76-10.76 1.2-.28 0-.56.46-.76.75s.21 1.22.72 1.4a6.39 6.39 0 0 0 1.06.39c.95.09 1.93.16 3 .27z"></path>
        <path d="m463.35 967.57a74.18 74.18 0 0 1 11.82.74 52.82 52.82 0 0 0 16.17-.22c2.47-.43 5-.79 7.45-1.12a4.31 4.31 0 0 1 3.71 1.26c.56.56 1.06 1.11 1.56 1.71a4.12 4.12 0 0 0 4.17 1.4q6.3-1 12.59-2c2.87-.44 5.75-.81 8.6-1.28a26.14 26.14 0 0 0 7.74-2.33 13.49 13.49 0 0 1 5.56-1.51 4 4 0 0 1 1.67.21 2 2 0 0 1 1.15 1.12 1.8 1.8 0 0 1 -.47 1.53 11.52 11.52 0 0 1 -2.79 2 31.83 31.83 0 0 1 -4.89 1.79c-3.36.9-6.75 1.67-10.14 2.45-.93.21-1.94.22-2.84.52a41.12 41.12 0 0 1 -12.54 2 13.86 13.86 0 0 0 -4 .74 65.33 65.33 0 0 1 -17.71 2.42 38.08 38.08 0 0 1 -13.67-2.14 41.17 41.17 0 0 0 -12.41-2.57 35.83 35.83 0 0 1 -6.82-1.24 9 9 0 0 1 -2.56-1.28 2.36 2.36 0 0 1 -.91-2.55 2.15 2.15 0 0 1 1.75-1.35 25.15 25.15 0 0 1 3.45-.32c1.55-.02 3.09.02 4.36.02z"></path>
        <path d="m380.32 1034.36c-.6-.08-1.55-.26-2.51-.33a16.72 16.72 0 0 0 -4.05-.13c-4.81.86-9.65.22-14.47.36a16.06 16.06 0 0 0 -5.68.81 7 7 0 0 1 -5.11.24 12.3 12.3 0 0 0 -5.15-.53 14.05 14.05 0 0 1 -2.9 0 133.72 133.72 0 0 0 -13.85-1.28 4.6 4.6 0 0 1 -3.55-1.72 1.86 1.86 0 0 1 .34-2.56 6 6 0 0 1 2.1-.87 11.1 11.1 0 0 1 3.45.07 49 49 0 0 0 9.83.68c11.6 0 23.22.13 34.82-.06 7.35-.11 14.7.07 22.05.07a47.55 47.55 0 0 1 5.2.28 5.83 5.83 0 0 1 2.13.82 1.21 1.21 0 0 1 .48.94 1.27 1.27 0 0 1 -.48 1 9.13 9.13 0 0 1 -2.61 1.16 31.1 31.1 0 0 1 -4.62.41c-4.47.12-8.9-.16-13.32.62a14.73 14.73 0 0 1 -2.1.02z"></path>
        <path d="m396.76 1055.6a9.12 9.12 0 0 1 -1.38-.07 64.62 64.62 0 0 0 -10.93-1 6.27 6.27 0 0 1 -5.35-2.92 2 2 0 0 1 .55-2.81 1 1 0 0 1 .23-.13 6.35 6.35 0 0 1 2.12-.67 19.7 19.7 0 0 1 4.6.16 52.11 52.11 0 0 0 10.36.74h13.3a60.17 60.17 0 0 0 10.38-.55 6.81 6.81 0 0 1 4.47.72 2.4 2.4 0 0 1 1 3.26 2.37 2.37 0 0 1 -.52.66 4 4 0 0 1 -2.56 1.2c-4.81.21-9.62.4-14.43.51a54.39 54.39 0 0 0 -9.79.67c-.73.11-1.51.14-2.05.23z"></path>
        <path d="m485.08 1043.67c-3 .63-6.26-.15-9.5-.74a60.7 60.7 0 0 0 -13.25-1.07c-5.11.21-9.95-1.12-14.75-2.58a7.41 7.41 0 0 1 -2.45-1.48 1.94 1.94 0 0 1 1.2-3.41 21.21 21.21 0 0 1 2.87.22 203.88 203.88 0 0 0 23 2.75c3.65.27 7.27 1 10.91 1.41 2.67.33 5.36.56 8 .83 1 .1 1.92.21 2.87.36.78.12 1.61 1 1.38 1.56a3 3 0 0 1 -1 1.35 8.16 8.16 0 0 1 -5 1.15c-1.29-.02-2.64-.22-4.28-.35z"></path>
        <path d="m434.05 1017.78c-3-.32-6.86-.74-10.7-1.11a17.39 17.39 0 0 0 -2.89-.15 84.41 84.41 0 0 1 -11.57-.43c-1.72-.11-3.46-.07-5.19 0a29.38 29.38 0 0 1 -11.3-2.16 7.37 7.37 0 0 1 -1.82-1.37.61.61 0 0 1 -.15-.56c.15-.33.34-.79.62-.89a7.12 7.12 0 0 1 2.23-.48c5.21-.07 10.44-.33 15.52 1.28a4.18 4.18 0 0 0 1.68.23c2.94-.37 5.78.28 8.62.78 4.23.73 8.49.12 12.72.45 1.34.1 2.71 0 4 .24a27.7 27.7 0 0 0 8.08.07 14.5 14.5 0 0 1 1.74-.1c1.11 0 2.23.74 2.17 1.47-.08.92-.81 1.27-1.53 1.54-2.95 1.12-6.09 1-9.15 1.21-.7.03-1.48-.02-3.08-.02z"></path>
        <path d="m149.8 966.31a54.44 54.44 0 0 1 -12.35-1c-3.59-.66-7.27-.82-10.9-1.25a22.08 22.08 0 0 1 -4-.72 4.75 4.75 0 0 1 -1.73-1.42 1.36 1.36 0 0 1 .59-1.94 7 7 0 0 1 1.68-.4 33.76 33.76 0 0 1 4.61.11c4.21.51 8.39 1.18 12.61 1.68a58.3 58.3 0 0 0 6.34.37h16.21a48.63 48.63 0 0 0 9.18-.6 7.54 7.54 0 0 1 2.84.1 2.23 2.23 0 0 1 1.2 1.12c.32.56-.26 1.65-.94 1.88a11.48 11.48 0 0 1 -2.75.77 42.73 42.73 0 0 1 -5.77 0 14.78 14.78 0 0 0 -5.69.52 22.14 22.14 0 0 1 -5.11.81c-1.82.07-3.82-.03-6.02-.03z"></path>
        <path d="m157.91 976.84h8.09a50.42 50.42 0 0 0 8.67-.67c3.62-.62 7.27-1 10.93-1.44a10.68 10.68 0 0 1 5.71.44c.32.14.73.55.73.81a2 2 0 0 1 -.48 1.49 6.7 6.7 0 0 1 -2.56 1.23c-4.38.78-8.73 1.77-13.23 1.62a42.17 42.17 0 0 0 -8.09.61 53.74 53.74 0 0 1 -6.94.51c-3.87.1-7.74-.07-11.58.56a7.68 7.68 0 0 1 -6-1.47 2 2 0 0 1 -.73-2 3 3 0 0 1 1.12-1.25 8.36 8.36 0 0 1 4.53-.67l9.87.36z"></path>
        <path d="m360.67 1002.93a49.37 49.37 0 0 0 -5.16.24c-3.75.56-7.27-.37-10.81-1.37a4.53 4.53 0 0 1 -1.47-.89 2.22 2.22 0 0 1 -.9-2 2.06 2.06 0 0 1 1.4-1.68 18.45 18.45 0 0 1 3.39-.56q12.15-.06 24.3 0a14.39 14.39 0 0 1 3.39.56 1.89 1.89 0 0 1 1.4 1.68 2.16 2.16 0 0 1 -.91 2 3.55 3.55 0 0 1 -1.47.87c-4.37.71-8.66 1.91-13.16 1.15z"></path>
        <path d="m869.67 961.67a28.66 28.66 0 0 1 -10.14-1.18 15.69 15.69 0 0 1 -2.6-1.2 2.46 2.46 0 0 1 -1.07-2.5 2.38 2.38 0 0 1 1.6-1.52 5.42 5.42 0 0 1 1.68-.35 29.41 29.41 0 0 1 4.6.18 45.07 45.07 0 0 0 14.93-.05 10.37 10.37 0 0 1 6.25.39 3.12 3.12 0 0 1 1.19 1.2 1.87 1.87 0 0 1 -.64 2.05 10.62 10.62 0 0 1 -3.09 1.46c-4.38.75-8.67 1.85-12.71 1.52z"></path>
        <path d="m936.81 933.06 10.93-1.06a11 11 0 0 1 6.15 1.18 2.24 2.24 0 0 1 1 3 2.37 2.37 0 0 1 -.72.85 7.5 7.5 0 0 1 -2 1 11.46 11.46 0 0 1 -2.85.4 63.9 63.9 0 0 0 -10.34.93 17.45 17.45 0 0 1 -9.61-1.32 3.61 3.61 0 0 1 -1-.64 2.24 2.24 0 0 1 -.84-2 2 2 0 0 1 1.27-1.78 6.61 6.61 0 0 1 2.24-.48c1.96-.14 3.85-.08 5.77-.08z"></path>
        <path d="m201.85 1000.67a4.3 4.3 0 0 1 -.95-.08 60.54 60.54 0 0 0 -9.79-.56 27.09 27.09 0 0 1 -4-.39 7.61 7.61 0 0 1 -2.07-.95 2 2 0 0 1 -.86-2 2.07 2.07 0 0 1 1.4-1.68 5.89 5.89 0 0 1 2.24-.41c5.16.44 10.34.91 15.49 1.5a18.12 18.12 0 0 0 5.69-.1 25 25 0 0 1 8-.35 6 6 0 0 1 1.59.61c.41.17.51 1.23.15 1.53s-.56.61-.87.72a22.73 22.73 0 0 1 -4.39 1.31c-3.56.37-7.21.53-11.63.85z"></path>
        <path d="m224.31 1001.44c2.67 0 5.32.5 8-.39 2.24-.75 4.56 0 6.71.81a1.24 1.24 0 0 1 .7.82c0 .52-.13 1.28-.48 1.49a11.41 11.41 0 0 1 -3.11 1.38c-3 .75-6 1.36-9 2a24.76 24.76 0 0 1 -9.16.3 4.87 4.87 0 0 1 -3-1.59 2.51 2.51 0 0 1 0-3.17 4.81 4.81 0 0 1 3.55-1.68c1.96-.04 3.88.03 5.79.03z"></path>
        <path d="m145.41 955.91-10.54.62a8 8 0 0 1 -5-1.08 1.78 1.78 0 0 1 -.78-1.36c.07-.44.66-.89 1.12-1.12a4.43 4.43 0 0 1 1.68-.38c1-.09 1.92-.12 2.88-.13h9.82c4 0 8.08.1 12.06-.77a4.82 4.82 0 0 1 3.35.31c.31.18.7.53.72.81 0 .52 0 1.29-.34 1.55a6.16 6.16 0 0 1 -2.52 1.25 28.29 28.29 0 0 1 -4.59.34c-2.84-.01-5.72-.04-7.86-.04z"></path>
        <path d="m938.77 951.34c-1.72-.13-3.47-.13-5.17-.42a6.82 6.82 0 0 1 -2.55-1.21 2.18 2.18 0 0 1 -.14-3.09 5.16 5.16 0 0 1 3-1.61c3.42-.46 6.87-.78 10.31-1.12a2.74 2.74 0 0 1 .56.06c1.79.22 3.62 1.6 3.91 3s-1.16 3.08-3.09 3.7a12.55 12.55 0 0 1 -2.79.56c-1.34.09-2.7 0-4 0z"></path>
        <path d="m865.52 977.88a13.82 13.82 0 0 1 -6.48-1.64 6.92 6.92 0 0 1 -1.68-1.51 2 2 0 0 1 .76-2.92 7.17 7.17 0 0 1 1.64-.54 24.67 24.67 0 0 1 11.36 1.34 1.12 1.12 0 0 1 .51.28 7 7 0 0 1 1 1.38 2.09 2.09 0 0 1 -.83 2 10.69 10.69 0 0 1 -6.28 1.61z"></path>
        <path d="m204.26 981c1.12-.08 2.28-.23 3.41-.22a3.61 3.61 0 0 1 1.59.56 1.15 1.15 0 0 1 .37 1.58 1.08 1.08 0 0 1 -.31.33 8.51 8.51 0 0 1 -5.43 1.47 33.22 33.22 0 0 0 -9.64.71 4.21 4.21 0 0 1 -2.14-.56 1.23 1.23 0 0 1 -.11-2 8.66 8.66 0 0 1 2.59-1.12c3.2-.42 6.43-.67 9.65-1z"></path>
        <path d="m121.83 942.94a8.82 8.82 0 0 1 -5.83-1.94 6.58 6.58 0 0 1 -1.11-1.3 2 2 0 0 1 .67-2.69 2.11 2.11 0 0 1 .34-.16 3.07 3.07 0 0 1 1.12-.27c2.66.39 5.33.8 8 1.31a1.94 1.94 0 0 1 1.48 1.61 2.14 2.14 0 0 1 -.81 2.05 5.51 5.51 0 0 1 -3.86 1.39z"></path>
        <path d="m220.42 711.9c-.6-.06-1.37-.12-2.13-.24-2.67-.43-4.07-3-3.11-5.74a1.72 1.72 0 0 1 1.88-1c1.05.48 2.07 1 3.11 1.52a4.62 4.62 0 0 0 3.39.18 12.19 12.19 0 0 0 6.21-4 6.84 6.84 0 0 1 3-2.6 1.71 1.71 0 0 1 2 1.46 3.22 3.22 0 0 1 -.13 1.11 13 13 0 0 1 -1.91 3.54 17.1 17.1 0 0 1 -12.31 5.77z"></path>
        <path d="m436.38 838.66a2.14 2.14 0 0 1 -1.93-1.07 1.89 1.89 0 0 1 .05-2.12 6.29 6.29 0 0 1 1.59-1.54 2.24 2.24 0 0 1 3 .35 2.44 2.44 0 0 1 -.08 2.66 3.32 3.32 0 0 1 -2.63 1.72z"></path>
        <path d="m431.43 827.35a1.32 1.32 0 0 1 -1.14-1.46v-.12a1.41 1.41 0 0 1 1.64-1.13 1.37 1.37 0 0 1 1.17 1.55 1.52 1.52 0 0 1 -1.67 1.16z"></path>
        <path d="m416 831.22a1.6 1.6 0 0 1 -1.21 1.72 1.38 1.38 0 0 1 -1.65-1 .29.29 0 0 1 0-.09 1.56 1.56 0 0 1 1.2-1.71 1.38 1.38 0 0 1 1.66 1 .43.43 0 0 1 0 .08z"></path>
        <path d="m453.84 737a4.42 4.42 0 0 1 -.41 1 3.27 3.27 0 0 1 -2.48 1.27 2.06 2.06 0 0 1 -1.87-1.12 2.64 2.64 0 0 1 1.45-3.35 2.5 2.5 0 0 1 3.22 1.47v.06a2.7 2.7 0 0 1 .09.67z"></path>
        <path d="m272.54 462.35a1.76 1.76 0 0 1 -1.27-2.19 2 2 0 0 1 .23-.51 19.43 19.43 0 0 1 6.36-4.76c.67-.3 1.83 0 2 .61a2.27 2.27 0 0 1 -.1 1.62 21 21 0 0 1 -6.08 5.1 3 3 0 0 1 -1.14.13z"></path>
    </g>
</svg>